NotoSansKhmer-CondensedBold.ufo
<glyph name="exclam" format="2">
  <advance width="300"/>
  <unicode hex="0021"/>
  <note>
exclam
</note>
  <outline>
    <contour>
      <point x="235" y="266" type="line"/>
      <point x="260" y="714" type="line"/>
      <point x="41" y="714" type="line"/>
      <point x="66" y="266" type="line"/>
    </contour>
    <contour>
      <point x="45" y="83" type="curve" smooth="yes"/>
      <point x="45" y="19"/>
      <point x="87" y="-12"/>
      <point x="150" y="-12" type="curve" smooth="yes"/>
      <point x="211" y="-12"/>
      <point x="254" y="19"/>
      <point x="254" y="83" type="curve" smooth="yes"/>
      <point x="254" y="150"/>
      <point x="211" y="179"/>
      <point x="150" y="179" type="curve" smooth="yes"/>
      <point x="87" y="179"/>
      <point x="45" y="150"/>
    </contour>
  </outline>
</glyph>
<glyph name="parenleft" format="2">
  <advance width="370"/>
  <unicode hex="0028"/>
  <note>
parenleft
</note>
  <outline>
    <contour>
      <point x="40" y="274" type="curve" smooth="yes"/>
      <point x="40" y="109"/>
      <point x="88" y="-43"/>
      <point x="187" y="-158" type="curve"/>
      <point x="339" y="-158" type="line"/>
      <point x="251" y="-38"/>
      <point x="203" y="119"/>
      <point x="203" y="275" type="curve" smooth="yes"/>
      <point x="203" y="434"/>
      <point x="251" y="590"/>
      <point x="340" y="714" type="curve"/>
      <point x="187" y="714" type="line"/>
      <point x="88" y="595"/>
      <point x="40" y="442"/>
    </contour>
  </outline>
</glyph>
<glyph name="parenright" format="2">
  <advance width="370"/>
  <unicode hex="0029"/>
  <note>
parenright
</note>
  <outline>
    <contour>
      <point x="330" y="274" type="curve" smooth="yes"/>
      <point x="330" y="442"/>
      <point x="282" y="595"/>
      <point x="183" y="714" type="curve"/>
      <point x="30" y="714" type="line"/>
      <point x="119" y="590"/>
      <point x="167" y="434"/>
      <point x="167" y="275" type="curve" smooth="yes"/>
      <point x="167" y="119"/>
      <point x="119" y="-38"/>
      <point x="31" y="-158" type="curve"/>
      <point x="183" y="-158" type="line"/>
      <point x="282" y="-43"/>
      <point x="330" y="109"/>
    </contour>
  </outline>
</glyph>
<glyph name="slash" format="2">
  <advance width="445"/>
  <unicode hex="002F"/>
  <note>
slash
</note>
  <outline>
    <contour>
      <point x="5" y="0" type="line"/>
      <point x="178" y="0" type="line"/>
      <point x="444" y="714" type="line"/>
      <point x="271" y="714" type="line"/>
    </contour>
  </outline>
</glyph>
<glyph name="uni00AD" format="2">
  <advance width="325"/>
  <unicode hex="00AD"/>
  <note>
uni00AD
</note>
  <outline>
    <contour>
      <point x="29" y="192" type="line"/>
      <point x="296" y="192" type="line"/>
      <point x="296" y="344" type="line"/>
      <point x="29" y="344" type="line"/>
    </contour>
  </outline>
</glyph>
<glyph name="uni1780" format="2">
  <advance width="561"/>
  <unicode hex="1780"/>
  <note>
uni1780
</note>
  <outline>
    <contour>
      <point x="60" y="474" type="line"/>
      <point x="501" y="474" type="line"/>
      <point x="501" y="586" type="line"/>
      <point x="60" y="586" type="line"/>
    </contour>
    <contour>
      <point x="60" y="0" type="line"/>
      <point x="211" y="0" type="line"/>
      <point x="211" y="266" type="line" smooth="yes"/>
      <point x="211" y="299"/>
      <point x="237" y="329"/>
      <point x="280" y="329" type="curve" smooth="yes"/>
      <point x="323" y="329"/>
      <point x="350" y="299"/>
      <point x="350" y="266" type="curve" smooth="yes"/>
      <point x="350" y="0" type="line"/>
      <point x="501" y="0" type="line"/>
      <point x="501" y="266" type="line" smooth="yes"/>
      <point x="501" y="374"/>
      <point x="423" y="440"/>
      <point x="280" y="440" type="curve" smooth="yes"/>
      <point x="138" y="440"/>
      <point x="60" y="374"/>
      <point x="60" y="266" type="curve" smooth="yes"/>
    </contour>
  </outline>
</glyph>
<glyph name="uni1781" format="2">
  <advance width="561"/>
  <unicode hex="1781"/>
  <note>
uni1781
</note>
  <outline>
    <contour>
      <point x="280" y="0" type="curve" smooth="yes"/>
      <point x="423" y="0"/>
      <point x="501" y="46"/>
      <point x="501" y="158" type="curve" smooth="yes"/>
      <point x="501" y="234" type="line"/>
      <point x="350" y="234" type="line"/>
      <point x="350" y="158" type="line" smooth="yes"/>
      <point x="350" y="129"/>
      <point x="323" y="112"/>
      <point x="280" y="112" type="curve" smooth="yes"/>
      <point x="239" y="112"/>
      <point x="211" y="129"/>
      <point x="211" y="158" type="curve" smooth="yes"/>
      <point x="211" y="213" type="line"/>
      <point x="246" y="226" type="line" smooth="yes"/>
      <point x="433" y="295"/>
      <point x="501" y="329"/>
      <point x="501" y="436" type="curve" smooth="yes"/>
      <point x="501" y="540"/>
      <point x="423" y="586"/>
      <point x="280" y="586" type="curve" smooth="yes"/>
      <point x="134" y="586"/>
      <point x="60" y="549"/>
      <point x="60" y="454" type="curve" smooth="yes"/>
      <point x="60" y="381"/>
      <point x="102" y="351"/>
      <point x="161" y="351" type="curve" smooth="yes"/>
      <point x="240" y="351" type="line"/>
      <point x="240" y="424" type="line"/>
      <point x="220" y="424"/>
      <point x="216" y="434"/>
      <point x="216" y="445" type="curve" smooth="yes"/>
      <point x="216" y="462"/>
      <point x="239" y="474"/>
      <point x="280" y="474" type="curve" smooth="yes"/>
      <point x="323" y="474"/>
      <point x="350" y="457"/>
      <point x="350" y="428" type="curve" smooth="yes"/>
      <point x="350" y="383"/>
      <point x="315" y="348"/>
      <point x="242" y="330" type="curve" smooth="yes"/>
      <point x="60" y="286" type="line"/>
      <point x="60" y="158" type="line" smooth="yes"/>
      <point x="60" y="46"/>
      <point x="138" y="0"/>
    </contour>
  </outline>
</glyph>
<glyph name="uni1782" format="2">
  <advance width="561"/>
  <unicode hex="1782"/>
  <note>
uni1782
</note>
  <outline>
    <contour>
      <point x="60" y="474" type="line"/>
      <point x="501" y="474" type="line"/>
      <point x="501" y="586" type="line"/>
      <point x="60" y="586" type="line"/>
    </contour>
    <contour>
      <point x="60" y="0" type="line"/>
      <point x="211" y="0" type="line"/>
      <point x="211" y="97" type="line"/>
      <point x="217" y="108"/>
      <point x="232" y="128"/>
      <point x="259" y="128" type="curve" smooth="yes"/>
      <point x="301" y="128" type="line"/>
      <point x="301" y="240" type="line"/>
      <point x="274" y="240" type="line" smooth="yes"/>
      <point x="243" y="240"/>
      <point x="225" y="232"/>
      <point x="211" y="211" type="curve"/>
      <point x="211" y="266" type="line" smooth="yes"/>
      <point x="211" y="301"/>
      <point x="237" y="331"/>
      <point x="280" y="331" type="curve" smooth="yes"/>
      <point x="323" y="331"/>
      <point x="350" y="299"/>
      <point x="350" y="266" type="curve" smooth="yes"/>
      <point x="350" y="0" type="line"/>
      <point x="501" y="0" type="line"/>
      <point x="501" y="266" type="line" smooth="yes"/>
      <point x="501" y="374"/>
      <point x="423" y="442"/>
      <point x="280" y="442" type="curve" smooth="yes"/>
      <point x="138" y="442"/>
      <point x="60" y="374"/>
      <point x="60" y="266" type="curve" smooth="yes"/>
    </contour>
  </outline>
</glyph>
<glyph name="uni1787" format="2">
  <advance width="583"/>
  <unicode hex="1787"/>
  <note>
uni1787
</note>
  <outline>
    <contour>
      <point x="81" y="0" type="line"/>
      <point x="208" y="0" type="line"/>
      <point x="302" y="83" type="line"/>
      <point x="396" y="0" type="line"/>
      <point x="523" y="0" type="line"/>
      <point x="523" y="424" type="line"/>
      <point x="372" y="424" type="line"/>
      <point x="372" y="165" type="line"/>
      <point x="302" y="223" type="line"/>
      <point x="232" y="164" type="line"/>
      <point x="232" y="374" type="line"/>
      <point x="164" y="421"/>
      <point x="146" y="450"/>
      <point x="146" y="457" type="curve" smooth="yes"/>
      <point x="146" y="462"/>
      <point x="148" y="469"/>
      <point x="156" y="474" type="curve"/>
      <point x="423" y="474" type="line" smooth="yes"/>
      <point x="517" y="474"/>
      <point x="523" y="519"/>
      <point x="523" y="610" type="curve" smooth="yes"/>
      <point x="523" y="674" type="line"/>
      <point x="372" y="674" type="line"/>
      <point x="372" y="610" type="line" smooth="yes"/>
      <point x="372" y="594"/>
      <point x="368" y="586"/>
      <point x="355" y="586" type="curve" smooth="yes"/>
      <point x="112" y="586" type="line"/>
      <point x="58" y="517"/>
      <point x="40" y="495"/>
      <point x="40" y="469" type="curve" smooth="yes"/>
      <point x="40" y="453"/>
      <point x="62" y="416"/>
      <point x="81" y="384" type="curve"/>
    </contour>
  </outline>
</glyph>
<glyph name="uni178A" format="2">
  <advance width="561"/>
  <unicode hex="178A"/>
  <note>
uni178A
</note>
  <outline>
    <contour>
      <point x="60" y="443" type="line"/>
      <point x="397" y="443" type="line" smooth="yes"/>
      <point x="483" y="443"/>
      <point x="501" y="489"/>
      <point x="501" y="578" type="curve" smooth="yes"/>
      <point x="501" y="674" type="line"/>
      <point x="350" y="674" type="line"/>
      <point x="350" y="578" type="line" smooth="yes"/>
      <point x="350" y="563"/>
      <point x="335" y="555"/>
      <point x="304" y="555" type="curve" smooth="yes"/>
      <point x="211" y="555" type="line"/>
      <point x="211" y="610" type="line"/>
      <point x="60" y="610" type="line"/>
    </contour>
    <contour>
      <point x="60" y="0" type="line"/>
      <point x="187" y="0" type="line"/>
      <point x="281" y="76" type="line"/>
      <point x="375" y="0" type="line"/>
      <point x="501" y="0" type="line"/>
      <point x="501" y="402" type="line"/>
      <point x="350" y="402" type="line"/>
      <point x="350" y="165" type="line"/>
      <point x="281" y="223" type="line"/>
      <point x="211" y="164" type="line"/>
      <point x="211" y="402" type="line"/>
      <point x="60" y="402" type="line"/>
    </contour>
  </outline>
</glyph>
<glyph name="uni178C" format="2">
  <advance width="555"/>
  <unicode hex="178C"/>
  <note>
uni178C
</note>
  <outline>
    <contour>
      <point x="344" y="-10" type="line"/>
      <point x="495" y="-10" type="line"/>
      <point x="495" y="224" type="line"/>
      <point x="344" y="224" type="line"/>
      <point x="344" y="197" type="line" smooth="yes"/>
      <point x="344" y="156"/>
      <point x="292" y="112"/>
      <point x="249" y="112" type="curve" smooth="yes"/>
      <point x="218" y="112"/>
      <point x="204" y="136"/>
      <point x="204" y="158" type="curve" smooth="yes"/>
      <point x="204" y="209" type="line"/>
      <point x="239" y="217" type="line" smooth="yes"/>
      <point x="397" y="253"/>
      <point x="494" y="331"/>
      <point x="494" y="454" type="curve" smooth="yes"/>
      <point x="494" y="548"/>
      <point x="446" y="586"/>
      <point x="387" y="586" type="curve" smooth="yes"/>
      <point x="343" y="586"/>
      <point x="317" y="566"/>
      <point x="275" y="525" type="curve"/>
      <point x="273" y="525" type="line"/>
      <point x="242" y="568"/>
      <point x="215" y="586"/>
      <point x="175" y="586" type="curve" smooth="yes"/>
      <point x="91" y="586"/>
      <point x="53" y="530"/>
      <point x="53" y="462" type="curve" smooth="yes"/>
      <point x="53" y="389"/>
      <point x="100" y="342"/>
      <point x="168" y="342" type="curve" smooth="yes"/>
      <point x="206" y="342" type="line"/>
      <point x="206" y="427" type="line"/>
      <point x="203" y="427"/>
      <point x="194" y="431"/>
      <point x="194" y="446" type="curve" smooth="yes"/>
      <point x="194" y="457"/>
      <point x="201" y="463"/>
      <point x="210" y="463" type="curve" smooth="yes"/>
      <point x="230" y="463"/>
      <point x="246" y="407"/>
      <point x="273" y="407" type="curve" smooth="yes"/>
      <point x="285" y="407"/>
      <point x="297" y="419"/>
      <point x="307" y="432" type="curve" smooth="yes"/>
      <point x="318" y="447"/>
      <point x="329" y="463"/>
      <point x="337" y="463" type="curve" smooth="yes"/>
      <point x="346" y="463"/>
      <point x="353" y="451"/>
      <point x="353" y="437" type="curve" smooth="yes"/>
      <point x="353" y="393"/>
      <point x="308" y="345"/>
      <point x="235" y="328" type="curve" smooth="yes"/>
      <point x="53" y="286" type="line"/>
      <point x="53" y="158" type="line" smooth="yes"/>
      <point x="53" y="65"/>
      <point x="137" y="0"/>
      <point x="203" y="0" type="curve" smooth="yes"/>
      <point x="252" y="0"/>
      <point x="296" y="13"/>
      <point x="343" y="65" type="curve"/>
      <point x="344" y="65" type="line"/>
    </contour>
  </outline>
</glyph>
<glyph name="uni178D" format="2">
  <advance width="822"/>
  <unicode hex="178D"/>
  <note>
uni178D
</note>
  <outline>
    <contour>
      <point x="754" y="371" type="line"/>
      <point x="603" y="371" type="line"/>
      <point x="603" y="169" type="line" smooth="yes"/>
      <point x="603" y="136"/>
      <point x="588" y="121"/>
      <point x="569" y="121" type="curve" smooth="yes"/>
      <point x="547" y="121"/>
      <point x="534" y="141"/>
      <point x="525" y="175" type="curve"/>
      <point x="486" y="175" type="line"/>
      <point x="486" y="59" type="line"/>
      <point x="509" y="59" type="line"/>
      <point x="529" y="22"/>
      <point x="561" y="0"/>
      <point x="610" y="0" type="curve" smooth="yes"/>
      <point x="673" y="0"/>
      <point x="754" y="51"/>
      <point x="754" y="163" type="curve" smooth="yes"/>
    </contour>
    <contour>
      <point x="60" y="251" type="line"/>
      <point x="211" y="251" type="line"/>
      <point x="211" y="451" type="line" smooth="yes"/>
      <point x="211" y="462"/>
      <point x="215" y="468"/>
      <point x="222" y="468" type="curve" smooth="yes"/>
      <point x="238" y="468"/>
      <point x="255" y="407"/>
      <point x="280" y="407" type="curve" smooth="yes"/>
      <point x="306" y="407"/>
      <point x="322" y="468"/>
      <point x="340" y="468" type="curve" smooth="yes"/>
      <point x="346" y="468"/>
      <point x="351" y="462"/>
      <point x="351" y="451" type="curve" smooth="yes"/>
      <point x="351" y="0" type="line"/>
      <point x="502" y="0" type="line"/>
      <point x="502" y="451" type="line" smooth="yes"/>
      <point x="502" y="520"/>
      <point x="466" y="586"/>
      <point x="387" y="586" type="curve" smooth="yes"/>
      <point x="347" y="586"/>
      <point x="313" y="565"/>
      <point x="283" y="525" type="curve"/>
      <point x="280" y="525" type="line"/>
      <point x="250" y="566"/>
      <point x="215" y="586"/>
      <point x="176" y="586" type="curve" smooth="yes"/>
      <point x="90" y="586"/>
      <point x="60" y="521"/>
      <point x="60" y="451" type="curve" smooth="yes"/>
    </contour>
    <contour>
      <point x="60" y="259" type="line"/>
      <point x="60" y="70" type="line" smooth="yes"/>
      <point x="60" y="19"/>
      <point x="78" y="0"/>
      <point x="142" y="0" type="curve" smooth="yes"/>
      <point x="189" y="0" type="line" smooth="yes"/>
      <point x="267" y="0"/>
      <point x="316" y="52"/>
      <point x="316" y="125" type="curve" smooth="yes"/>
      <point x="316" y="210"/>
      <point x="277" y="241"/>
      <point x="211" y="241" type="curve"/>
      <point x="211" y="259" type="line" smooth="yes"/>
    </contour>
    <contour>
      <point x="211" y="80" type="curve"/>
      <point x="211" y="164" type="line"/>
      <point x="223" y="164"/>
      <point x="235" y="152"/>
      <point x="235" y="127" type="curve" smooth="yes"/>
      <point x="235" y="100"/>
      <point x="222" y="80"/>
    </contour>
    <contour>
      <point x="603" y="354" type="line"/>
      <point x="754" y="354" type="line"/>
      <point x="754" y="410" type="line"/>
      <point x="698" y="473" type="line"/>
      <point x="698" y="474" type="line"/>
      <point x="762" y="474" type="line"/>
      <point x="762" y="586" type="line"/>
      <point x="611" y="586" type="line"/>
      <point x="561" y="511"/>
      <point x="543" y="484"/>
      <point x="543" y="473" type="curve" smooth="yes"/>
      <point x="543" y="462"/>
      <point x="575" y="424"/>
      <point x="603" y="391" type="curve"/>
    </contour>
  </outline>
</glyph>
<glyph name="uni178E" format="2">
  <advance width="1064"/>
  <unicode hex="178E"/>
  <note>
uni178E
</note>
  <outline>
    <contour>
      <point x="60" y="251" type="line"/>
      <point x="211" y="251" type="line"/>
      <point x="211" y="428" type="line" smooth="yes"/>
      <point x="211" y="459"/>
      <point x="230" y="474"/>
      <point x="268" y="474" type="curve" smooth="yes"/>
      <point x="307" y="474"/>
      <point x="326" y="459"/>
      <point x="326" y="428" type="curve" smooth="yes"/>
      <point x="326" y="0" type="line"/>
      <point x="452" y="0" type="line"/>
      <point x="533" y="62" type="line"/>
      <point x="614" y="0" type="line"/>
      <point x="740" y="0" type="line"/>
      <point x="740" y="428" type="line" smooth="yes"/>
      <point x="740" y="459"/>
      <point x="759" y="474"/>
      <point x="797" y="474" type="curve" smooth="yes"/>
      <point x="834" y="474"/>
      <point x="853" y="459"/>
      <point x="853" y="428" type="curve" smooth="yes"/>
      <point x="853" y="0" type="line"/>
      <point x="1004" y="0" type="line"/>
      <point x="1004" y="428" type="line" smooth="yes"/>
      <point x="1004" y="533"/>
      <point x="934" y="586"/>
      <point x="797" y="586" type="curve" smooth="yes"/>
      <point x="659" y="586"/>
      <point x="589" y="533"/>
      <point x="589" y="428" type="curve" smooth="yes"/>
      <point x="589" y="165" type="line"/>
      <point x="533" y="209" type="line"/>
      <point x="477" y="164" type="line"/>
      <point x="477" y="428" type="line" smooth="yes"/>
      <point x="477" y="533"/>
      <point x="405" y="586"/>
      <point x="268" y="586" type="curve" smooth="yes"/>
      <point x="129" y="586"/>
      <point x="60" y="533"/>
      <point x="60" y="428" type="curve" smooth="yes"/>
    </contour>
    <contour>
      <point x="60" y="259" type="line"/>
      <point x="60" y="70" type="line" smooth="yes"/>
      <point x="60" y="19"/>
      <point x="78" y="0"/>
      <point x="142" y="0" type="curve" smooth="yes"/>
      <point x="189" y="0" type="line" smooth="yes"/>
      <point x="267" y="0"/>
      <point x="316" y="52"/>
      <point x="316" y="125" type="curve" smooth="yes"/>
      <point x="316" y="210"/>
      <point x="277" y="241"/>
      <point x="211" y="241" type="curve"/>
      <point x="211" y="259" type="line" smooth="yes"/>
    </contour>
    <contour>
      <point x="211" y="80" type="curve"/>
      <point x="211" y="164" type="line"/>
      <point x="223" y="164"/>
      <point x="235" y="152"/>
      <point x="235" y="127" type="curve" smooth="yes"/>
      <point x="235" y="100"/>
      <point x="222" y="80"/>
    </contour>
  </outline>
</glyph>
<glyph name="uni1791" format="2">
  <advance width="547"/>
  <unicode hex="1791"/>
  <note>
uni1791
</note>
  <outline>
    <contour>
      <point x="268" y="0" type="curve" smooth="yes"/>
      <point x="398" y="0"/>
      <point x="464" y="53"/>
      <point x="464" y="158" type="curve" smooth="yes"/>
      <point x="464" y="210" type="line"/>
      <point x="483" y="226"/>
      <point x="497" y="245"/>
      <point x="497" y="289" type="curve" smooth="yes"/>
      <point x="497" y="344"/>
      <point x="451" y="383"/>
      <point x="403" y="383" type="curve" smooth="yes"/>
      <point x="361" y="383"/>
      <point x="334" y="360"/>
      <point x="319" y="328" type="curve"/>
      <point x="231" y="364"/>
      <point x="201" y="386"/>
      <point x="201" y="425" type="curve" smooth="yes"/>
      <point x="201" y="457"/>
      <point x="229" y="474"/>
      <point x="270" y="474" type="curve" smooth="yes"/>
      <point x="309" y="474"/>
      <point x="341" y="463"/>
      <point x="341" y="438" type="curve" smooth="yes"/>
      <point x="341" y="414" type="line"/>
      <point x="491" y="414" type="line"/>
      <point x="491" y="438" type="line" smooth="yes"/>
      <point x="491" y="549"/>
      <point x="417" y="586"/>
      <point x="270" y="586" type="curve" smooth="yes"/>
      <point x="128" y="586"/>
      <point x="50" y="540"/>
      <point x="50" y="428" type="curve" smooth="yes"/>
      <point x="50" y="315"/>
      <point x="146" y="259"/>
      <point x="313" y="219" type="curve"/>
      <point x="313" y="158" type="line" smooth="yes"/>
      <point x="313" y="127"/>
      <point x="300" y="112"/>
      <point x="268" y="112" type="curve" smooth="yes"/>
      <point x="236" y="112"/>
      <point x="223" y="127"/>
      <point x="223" y="158" type="curve" smooth="yes"/>
      <point x="223" y="218" type="line"/>
      <point x="72" y="218" type="line"/>
      <point x="72" y="158" type="line" smooth="yes"/>
      <point x="72" y="53"/>
      <point x="137" y="0"/>
    </contour>
  </outline>
</glyph>
<glyph name="uni1792" format="2">
  <advance width="582"/>
  <unicode hex="1792"/>
  <note>
uni1792
</note>
  <outline>
    <contour>
      <point x="522" y="208" type="line"/>
      <point x="371" y="208" type="line"/>
      <point x="371" y="165" type="line"/>
      <point x="302" y="203" type="line"/>
      <point x="232" y="164" type="line"/>
      <point x="232" y="374" type="line"/>
      <point x="164" y="421"/>
      <point x="146" y="450"/>
      <point x="146" y="457" type="curve" smooth="yes"/>
      <point x="146" y="462"/>
      <point x="148" y="469"/>
      <point x="156" y="474" type="curve"/>
      <point x="522" y="474" type="line"/>
      <point x="522" y="586" type="line"/>
      <point x="112" y="586" type="line"/>
      <point x="58" y="517"/>
      <point x="40" y="495"/>
      <point x="40" y="469" type="curve" smooth="yes"/>
      <point x="40" y="453"/>
      <point x="62" y="416"/>
      <point x="81" y="384" type="curve"/>
      <point x="81" y="0" type="line"/>
      <point x="208" y="0" type="line"/>
      <point x="302" y="56" type="line"/>
      <point x="396" y="0" type="line"/>
      <point x="522" y="0" type="line"/>
    </contour>
    <contour>
      <point x="522" y="198" type="line"/>
      <point x="522" y="363" type="line" smooth="yes"/>
      <point x="522" y="404"/>
      <point x="484" y="434"/>
      <point x="425" y="434" type="curve" smooth="yes"/>
      <point x="325" y="434"/>
      <point x="277" y="383"/>
      <point x="277" y="311" type="curve" smooth="yes"/>
      <point x="277" y="253"/>
      <point x="315" y="211"/>
      <point x="371" y="211" type="curve"/>
      <point x="371" y="198" type="line"/>
    </contour>
    <contour>
      <point x="371" y="286" type="line"/>
      <point x="361" y="286"/>
      <point x="350" y="295"/>
      <point x="350" y="316" type="curve" smooth="yes"/>
      <point x="350" y="335"/>
      <point x="361" y="345"/>
      <point x="371" y="345" type="curve"/>
    </contour>
  </outline>
</glyph>
<glyph name="uni1793" format="2">
  <advance width="582"/>
  <unicode hex="1793"/>
  <note>
uni1793
</note>
  <outline>
    <contour>
      <point x="70" y="0" type="line"/>
      <point x="221" y="0" type="line"/>
      <point x="221" y="47" type="line"/>
      <point x="235" y="45"/>
      <point x="258" y="31"/>
      <point x="275" y="23" type="curve" smooth="yes"/>
      <point x="294" y="14"/>
      <point x="324" y="0"/>
      <point x="364" y="0" type="curve" smooth="yes"/>
      <point x="435" y="0"/>
      <point x="522" y="55"/>
      <point x="522" y="158" type="curve" smooth="yes"/>
      <point x="522" y="250"/>
      <point x="458" y="297"/>
      <point x="342" y="341" type="curve" smooth="yes"/>
      <point x="285" y="363"/>
      <point x="221" y="381"/>
      <point x="221" y="426" type="curve" smooth="yes"/>
      <point x="221" y="457"/>
      <point x="255" y="474"/>
      <point x="295" y="474" type="curve" smooth="yes"/>
      <point x="333" y="474"/>
      <point x="356" y="468"/>
      <point x="356" y="451" type="curve" smooth="yes"/>
      <point x="356" y="444"/>
      <point x="349" y="437"/>
      <point x="340" y="435" type="curve"/>
      <point x="340" y="362" type="line"/>
      <point x="373" y="362" type="line" smooth="yes"/>
      <point x="488" y="362"/>
      <point x="505" y="413"/>
      <point x="505" y="461" type="curve" smooth="yes"/>
      <point x="505" y="550"/>
      <point x="438" y="586"/>
      <point x="290" y="586" type="curve" smooth="yes"/>
      <point x="148" y="586"/>
      <point x="70" y="540"/>
      <point x="70" y="428" type="curve" smooth="yes"/>
      <point x="70" y="329"/>
      <point x="195" y="289"/>
      <point x="314" y="242" type="curve" smooth="yes"/>
      <point x="347" y="229"/>
      <point x="372" y="210"/>
      <point x="372" y="173" type="curve" smooth="yes"/>
      <point x="372" y="134"/>
      <point x="353" y="112"/>
      <point x="329" y="112" type="curve" smooth="yes"/>
      <point x="315" y="112"/>
      <point x="294" y="123"/>
      <point x="275" y="133" type="curve" smooth="yes"/>
      <point x="258" y="142"/>
      <point x="237" y="153"/>
      <point x="221" y="155" type="curve"/>
      <point x="221" y="246" type="line"/>
      <point x="70" y="246" type="line"/>
    </contour>
  </outline>
</glyph>
<glyph name="uni1796" format="2">
  <advance width="562"/>
  <unicode hex="1796"/>
  <note>
uni1796
</note>
  <outline>
    <contour>
      <point x="60" y="251" type="line"/>
      <point x="211" y="251" type="line"/>
      <point x="211" y="451" type="line" smooth="yes"/>
      <point x="211" y="462"/>
      <point x="215" y="468"/>
      <point x="222" y="468" type="curve" smooth="yes"/>
      <point x="238" y="468"/>
      <point x="255" y="407"/>
      <point x="280" y="407" type="curve" smooth="yes"/>
      <point x="306" y="407"/>
      <point x="322" y="468"/>
      <point x="340" y="468" type="curve" smooth="yes"/>
      <point x="346" y="468"/>
      <point x="351" y="462"/>
      <point x="351" y="451" type="curve" smooth="yes"/>
      <point x="351" y="0" type="line"/>
      <point x="502" y="0" type="line"/>
      <point x="502" y="451" type="line" smooth="yes"/>
      <point x="502" y="520"/>
      <point x="466" y="586"/>
      <point x="387" y="586" type="curve" smooth="yes"/>
      <point x="347" y="586"/>
      <point x="313" y="565"/>
      <point x="283" y="525" type="curve"/>
      <point x="280" y="525" type="line"/>
      <point x="250" y="566"/>
      <point x="215" y="586"/>
      <point x="176" y="586" type="curve" smooth="yes"/>
      <point x="90" y="586"/>
      <point x="60" y="521"/>
      <point x="60" y="451" type="curve" smooth="yes"/>
    </contour>
    <contour>
      <point x="60" y="259" type="line"/>
      <point x="60" y="70" type="line" smooth="yes"/>
      <point x="60" y="19"/>
      <point x="78" y="0"/>
      <point x="142" y="0" type="curve" smooth="yes"/>
      <point x="189" y="0" type="line" smooth="yes"/>
      <point x="267" y="0"/>
      <point x="316" y="52"/>
      <point x="316" y="125" type="curve" smooth="yes"/>
      <point x="316" y="210"/>
      <point x="277" y="241"/>
      <point x="211" y="241" type="curve"/>
      <point x="211" y="259" type="line" smooth="yes"/>
    </contour>
    <contour>
      <point x="211" y="80" type="curve"/>
      <point x="211" y="164" type="line"/>
      <point x="223" y="164"/>
      <point x="235" y="152"/>
      <point x="235" y="127" type="curve" smooth="yes"/>
      <point x="235" y="100"/>
      <point x="222" y="80"/>
    </contour>
  </outline>
</glyph>
<glyph name="uni1797" format="2">
  <advance width="605"/>
  <unicode hex="1797"/>
  <note>
uni1797
</note>
  <outline>
    <contour>
      <point x="104" y="474" type="line"/>
      <point x="545" y="474" type="line"/>
      <point x="545" y="586" type="line"/>
      <point x="104" y="586" type="line"/>
    </contour>
    <contour>
      <point x="158" y="-8" type="curve" smooth="yes"/>
      <point x="243" y="-8"/>
      <point x="282" y="37"/>
      <point x="282" y="123" type="curve" smooth="yes"/>
      <point x="282" y="195"/>
      <point x="262" y="244"/>
      <point x="262" y="276" type="curve" smooth="yes"/>
      <point x="262" y="309"/>
      <point x="290" y="327"/>
      <point x="330" y="327" type="curve" smooth="yes"/>
      <point x="373" y="327"/>
      <point x="395" y="303"/>
      <point x="395" y="247" type="curve" smooth="yes"/>
      <point x="395" y="0" type="line"/>
      <point x="545" y="0" type="line"/>
      <point x="545" y="266" type="line" smooth="yes"/>
      <point x="545" y="377"/>
      <point x="474" y="439"/>
      <point x="326" y="439" type="curve" smooth="yes"/>
      <point x="185" y="439"/>
      <point x="112" y="361"/>
      <point x="112" y="282" type="curve" smooth="yes"/>
      <point x="112" y="211"/>
      <point x="140" y="130"/>
      <point x="141" y="122" type="curve" smooth="yes"/>
      <point x="142" y="116"/>
      <point x="139" y="111"/>
      <point x="134" y="111" type="curve" smooth="yes"/>
      <point x="127" y="111"/>
      <point x="120" y="122"/>
      <point x="115" y="135" type="curve"/>
      <point x="44" y="97" type="line"/>
      <point x="69" y="24"/>
      <point x="106" y="-8"/>
    </contour>
  </outline>
</glyph>
<glyph name="uni1798" format="2">
  <advance width="591"/>
  <unicode hex="1798"/>
  <note>
uni1798
</note>
  <outline>
    <contour>
      <point x="193" y="237" type="line"/>
      <point x="406" y="237" type="line"/>
      <point x="406" y="349" type="line"/>
      <point x="193" y="349" type="line"/>
    </contour>
    <contour>
      <point x="232" y="379" type="line"/>
      <point x="81" y="379" type="line"/>
      <point x="81" y="158" type="line" smooth="yes"/>
      <point x="81" y="53"/>
      <point x="154" y="0"/>
      <point x="301" y="0" type="curve" smooth="yes"/>
      <point x="449" y="0"/>
      <point x="523" y="53"/>
      <point x="523" y="158" type="curve" smooth="yes"/>
      <point x="523" y="376" type="line"/>
      <point x="372" y="376" type="line"/>
      <point x="372" y="168" type="line" smooth="yes"/>
      <point x="372" y="137"/>
      <point x="349" y="112"/>
      <point x="301" y="112" type="curve" smooth="yes"/>
      <point x="255" y="112"/>
      <point x="232" y="137"/>
      <point x="232" y="168" type="curve" smooth="yes"/>
    </contour>
    <contour>
      <point x="372" y="354" type="line"/>
      <point x="523" y="354" type="line"/>
      <point x="523" y="410" type="line"/>
      <point x="467" y="473" type="line"/>
      <point x="467" y="474" type="line"/>
      <point x="531" y="474" type="line"/>
      <point x="531" y="586" type="line"/>
      <point x="380" y="586" type="line"/>
      <point x="330" y="511"/>
      <point x="312" y="484"/>
      <point x="312" y="473" type="curve" smooth="yes"/>
      <point x="312" y="462"/>
      <point x="344" y="424"/>
      <point x="372" y="391" type="curve"/>
    </contour>
    <contour>
      <point x="81" y="354" type="line"/>
      <point x="232" y="354" type="line"/>
      <point x="232" y="410" type="line"/>
      <point x="180" y="473" type="line"/>
      <point x="180" y="474" type="line"/>
      <point x="239" y="474" type="line"/>
      <point x="239" y="586" type="line"/>
      <point x="99" y="586" type="line"/>
      <point x="64" y="532"/>
      <point x="46" y="505"/>
      <point x="46" y="491" type="curve" smooth="yes"/>
      <point x="46" y="482"/>
      <point x="48" y="479"/>
      <point x="81" y="426" type="curve"/>
    </contour>
  </outline>
</glyph>
<glyph name="uni1799" format="2">
  <advance width="842"/>
  <unicode hex="1799"/>
  <note>
uni1799
</note>
  <outline>
    <contour>
      <point x="774" y="371" type="line"/>
      <point x="623" y="371" type="line"/>
      <point x="623" y="168" type="line" smooth="yes"/>
      <point x="623" y="137"/>
      <point x="605" y="112"/>
      <point x="566" y="112" type="curve" smooth="yes"/>
      <point x="527" y="112"/>
      <point x="510" y="137"/>
      <point x="510" y="168" type="curve" smooth="yes"/>
      <point x="510" y="371" type="line"/>
      <point x="359" y="371" type="line"/>
      <point x="359" y="168" type="line" smooth="yes"/>
      <point x="359" y="139"/>
      <point x="331" y="112"/>
      <point x="285" y="112" type="curve" smooth="yes"/>
      <point x="239" y="112"/>
      <point x="211" y="139"/>
      <point x="211" y="168" type="curve" smooth="yes"/>
      <point x="211" y="451" type="line" smooth="yes"/>
      <point x="211" y="466"/>
      <point x="225" y="474"/>
      <point x="253" y="474" type="curve"/>
      <point x="253" y="586" type="line"/>
      <point x="121" y="586" type="line" smooth="yes"/>
      <point x="82" y="586"/>
      <point x="60" y="569"/>
      <point x="60" y="536" type="curve" smooth="yes"/>
      <point x="60" y="158" type="line" smooth="yes"/>
      <point x="60" y="46"/>
      <point x="146" y="0"/>
      <point x="288" y="0" type="curve" smooth="yes"/>
      <point x="296" y="0" type="line" smooth="yes"/>
      <point x="359" y="0"/>
      <point x="407" y="19"/>
      <point x="433" y="48" type="curve"/>
      <point x="434" y="48" type="line"/>
      <point x="465" y="16"/>
      <point x="509" y="0"/>
      <point x="566" y="0" type="curve" smooth="yes"/>
      <point x="706" y="0"/>
      <point x="774" y="45"/>
      <point x="774" y="158" type="curve" smooth="yes"/>
    </contour>
    <contour>
      <point x="623" y="354" type="line"/>
      <point x="774" y="354" type="line"/>
      <point x="774" y="410" type="line"/>
      <point x="718" y="473" type="line"/>
      <point x="718" y="474" type="line"/>
      <point x="782" y="474" type="line"/>
      <point x="782" y="586" type="line"/>
      <point x="631" y="586" type="line"/>
      <point x="581" y="511"/>
      <point x="563" y="484"/>
      <point x="563" y="473" type="curve" smooth="yes"/>
      <point x="563" y="462"/>
      <point x="595" y="424"/>
      <point x="623" y="391" type="curve"/>
    </contour>
    <contour>
      <point x="359" y="354" type="line"/>
      <point x="510" y="354" type="line"/>
      <point x="510" y="410" type="line"/>
      <point x="458" y="473" type="line"/>
      <point x="458" y="474" type="line"/>
      <point x="517" y="474" type="line"/>
      <point x="517" y="586" type="line"/>
      <point x="377" y="586" type="line"/>
      <point x="342" y="532"/>
      <point x="324" y="505"/>
      <point x="324" y="491" type="curve" smooth="yes"/>
      <point x="324" y="482"/>
      <point x="326" y="479"/>
      <point x="359" y="426" type="curve"/>
    </contour>
  </outline>
</glyph>
<glyph name="uni179C" format="2">
  <advance width="345"/>
  <unicode hex="179C"/>
  <note>
uni179C
</note>
  <outline>
    <contour>
      <point x="138" y="356" type="line"/>
      <point x="289" y="356" type="line"/>
      <point x="289" y="410" type="line"/>
      <point x="234" y="473" type="line"/>
      <point x="235" y="474" type="line"/>
      <point x="258" y="474" type="line" smooth="yes"/>
      <point x="294" y="474"/>
      <point x="321" y="505"/>
      <point x="321" y="543" type="curve" smooth="yes"/>
      <point x="321" y="674" type="line"/>
      <point x="171" y="674" type="line"/>
      <point x="171" y="610" type="line" smooth="yes"/>
      <point x="171" y="594"/>
      <point x="154" y="586"/>
      <point x="138" y="586" type="curve" smooth="yes"/>
      <point x="122" y="586" type="line"/>
      <point x="94" y="544"/>
      <point x="69" y="507"/>
      <point x="69" y="489" type="curve" smooth="yes"/>
      <point x="69" y="476"/>
      <point x="94" y="446"/>
      <point x="138" y="394" type="curve"/>
    </contour>
    <contour>
      <point x="289" y="375" type="line"/>
      <point x="138" y="375" type="line"/>
      <point x="138" y="229" type="line"/>
      <point x="94" y="227"/>
      <point x="40" y="187"/>
      <point x="40" y="113" type="curve" smooth="yes"/>
      <point x="40" y="22"/>
      <point x="98" y="0"/>
      <point x="143" y="0" type="curve" smooth="yes"/>
      <point x="205" y="0" type="line" smooth="yes"/>
      <point x="272" y="0"/>
      <point x="289" y="42"/>
      <point x="289" y="109" type="curve" smooth="yes"/>
    </contour>
    <contour>
      <point x="138" y="77" type="line"/>
      <point x="129" y="77"/>
      <point x="112" y="80"/>
      <point x="112" y="115" type="curve" smooth="yes"/>
      <point x="112" y="140"/>
      <point x="129" y="151"/>
      <point x="138" y="151" type="curve"/>
    </contour>
  </outline>
</glyph>
<glyph name="uni179F" format="2">
  <advance width="812"/>
  <unicode hex="179F"/>
  <note>
uni179F
</note>
  <outline>
    <contour>
      <point x="128" y="406" type="curve"/>
      <point x="256" y="434" type="line"/>
      <point x="228" y="473" type="line"/>
      <point x="228" y="474" type="line"/>
      <point x="365" y="474" type="line"/>
      <point x="365" y="586" type="line"/>
      <point x="133" y="586" type="line"/>
      <point x="98" y="532"/>
      <point x="80" y="511"/>
      <point x="80" y="494" type="curve" smooth="yes"/>
      <point x="80" y="482"/>
      <point x="84" y="472"/>
    </contour>
    <contour>
      <point x="744" y="374" type="line"/>
      <point x="593" y="374" type="line"/>
      <point x="593" y="158" type="line" smooth="yes"/>
      <point x="593" y="127"/>
      <point x="576" y="112"/>
      <point x="537" y="112" type="curve" smooth="yes"/>
      <point x="498" y="112"/>
      <point x="479" y="127"/>
      <point x="479" y="158" type="curve" smooth="yes"/>
      <point x="479" y="282" type="line" smooth="yes"/>
      <point x="479" y="387"/>
      <point x="426" y="438"/>
      <point x="270" y="438" type="curve" smooth="yes"/>
      <point x="155" y="438"/>
      <point x="60" y="414"/>
      <point x="60" y="282" type="curve" smooth="yes"/>
      <point x="60" y="251" type="line"/>
      <point x="211" y="251" type="line"/>
      <point x="211" y="282" type="line" smooth="yes"/>
      <point x="211" y="313"/>
      <point x="231" y="329"/>
      <point x="270" y="329" type="curve" smooth="yes"/>
      <point x="309" y="329"/>
      <point x="329" y="313"/>
      <point x="329" y="282" type="curve" smooth="yes"/>
      <point x="329" y="158" type="line" smooth="yes"/>
      <point x="329" y="53"/>
      <point x="398" y="0"/>
      <point x="537" y="0" type="curve" smooth="yes"/>
      <point x="674" y="0"/>
      <point x="744" y="53"/>
      <point x="744" y="158" type="curve" smooth="yes"/>
    </contour>
    <contour>
      <point x="60" y="259" type="line"/>
      <point x="60" y="70" type="line" smooth="yes"/>
      <point x="60" y="19"/>
      <point x="78" y="0"/>
      <point x="142" y="0" type="curve" smooth="yes"/>
      <point x="189" y="0" type="line" smooth="yes"/>
      <point x="267" y="0"/>
      <point x="316" y="52"/>
      <point x="316" y="125" type="curve" smooth="yes"/>
      <point x="316" y="210"/>
      <point x="277" y="241"/>
      <point x="211" y="241" type="curve"/>
      <point x="211" y="259" type="line" smooth="yes"/>
    </contour>
    <contour>
      <point x="211" y="80" type="curve"/>
      <point x="211" y="164" type="line"/>
      <point x="223" y="164"/>
      <point x="235" y="152"/>
      <point x="235" y="127" type="curve" smooth="yes"/>
      <point x="235" y="100"/>
      <point x="222" y="80"/>
    </contour>
    <contour>
      <point x="593" y="354" type="line"/>
      <point x="744" y="354" type="line"/>
      <point x="744" y="410" type="line"/>
      <point x="688" y="473" type="line"/>
      <point x="688" y="474" type="line"/>
      <point x="752" y="474" type="line"/>
      <point x="752" y="586" type="line"/>
      <point x="601" y="586" type="line"/>
      <point x="551" y="511"/>
      <point x="533" y="484"/>
      <point x="533" y="473" type="curve" smooth="yes"/>
      <point x="533" y="462"/>
      <point x="565" y="424"/>
      <point x="593" y="391" type="curve"/>
    </contour>
  </outline>
</glyph>
<glyph name="uni17A0" format="2">
  <advance width="824"/>
  <unicode hex="17A0"/>
  <note>
uni17A0
</note>
  <outline>
    <contour>
      <point x="232" y="378" type="line"/>
      <point x="81" y="378" type="line"/>
      <point x="81" y="158" type="line" smooth="yes"/>
      <point x="81" y="45"/>
      <point x="151" y="0"/>
      <point x="291" y="0" type="curve" smooth="yes"/>
      <point x="431" y="0"/>
      <point x="500" y="45"/>
      <point x="500" y="158" type="curve" smooth="yes"/>
      <point x="500" y="428" type="line" smooth="yes"/>
      <point x="500" y="459"/>
      <point x="519" y="474"/>
      <point x="558" y="474" type="curve" smooth="yes"/>
      <point x="598" y="474"/>
      <point x="616" y="459"/>
      <point x="616" y="428" type="curve" smooth="yes"/>
      <point x="616" y="0" type="line"/>
      <point x="764" y="0" type="line"/>
      <point x="764" y="428" type="line" smooth="yes"/>
      <point x="764" y="533"/>
      <point x="696" y="586"/>
      <point x="559" y="586" type="curve" smooth="yes"/>
      <point x="419" y="586"/>
      <point x="350" y="541"/>
      <point x="350" y="428" type="curve" smooth="yes"/>
      <point x="350" y="158" type="line" smooth="yes"/>
      <point x="350" y="127"/>
      <point x="330" y="112"/>
      <point x="291" y="112" type="curve" smooth="yes"/>
      <point x="252" y="112"/>
      <point x="232" y="127"/>
      <point x="232" y="158" type="curve" smooth="yes"/>
    </contour>
    <contour>
      <point x="81" y="354" type="line"/>
      <point x="232" y="354" type="line"/>
      <point x="232" y="410" type="line"/>
      <point x="180" y="473" type="line"/>
      <point x="180" y="474" type="line"/>
      <point x="239" y="474" type="line"/>
      <point x="239" y="586" type="line"/>
      <point x="99" y="586" type="line"/>
      <point x="64" y="532"/>
      <point x="46" y="505"/>
      <point x="46" y="491" type="curve" smooth="yes"/>
      <point x="46" y="482"/>
      <point x="48" y="479"/>
      <point x="81" y="426" type="curve"/>
    </contour>
  </outline>
</glyph>
<glyph name="uni17A4" format="2">
  <advance width="847"/>
  <unicode hex="17A4"/>
  <note>
uni17A4
</note>
  <outline>
    <contour>
      <point x="526" y="377" type="line"/>
      <point x="375" y="377" type="line"/>
      <point x="375" y="349" type="line"/>
      <point x="238" y="349" type="line"/>
      <point x="238" y="377" type="line"/>
      <point x="87" y="377" type="line"/>
      <point x="87" y="135" type="line" smooth="yes"/>
      <point x="87" y="120"/>
      <point x="73" y="112"/>
      <point x="50" y="112" type="curve"/>
      <point x="50" y="0" type="line"/>
      <point x="137" y="0" type="line" smooth="yes"/>
      <point x="203" y="0"/>
      <point x="238" y="17"/>
      <point x="238" y="50" type="curve" smooth="yes"/>
      <point x="238" y="237" type="line"/>
      <point x="375" y="237" type="line"/>
      <point x="375" y="135" type="line" smooth="yes"/>
      <point x="375" y="120"/>
      <point x="364" y="112"/>
      <point x="340" y="112" type="curve"/>
      <point x="340" y="0" type="line"/>
      <point x="427" y="0" type="line" smooth="yes"/>
      <point x="493" y="0"/>
      <point x="526" y="17"/>
      <point x="526" y="50" type="curve" smooth="yes"/>
    </contour>
    <contour>
      <point x="375" y="354" type="line"/>
      <point x="526" y="354" type="line"/>
      <point x="526" y="410" type="line"/>
      <point x="470" y="473" type="line"/>
      <point x="470" y="474" type="line"/>
      <point x="534" y="474" type="line"/>
      <point x="534" y="586" type="line"/>
      <point x="383" y="586" type="line"/>
      <point x="333" y="511"/>
      <point x="315" y="484"/>
      <point x="315" y="473" type="curve" smooth="yes"/>
      <point x="315" y="462"/>
      <point x="347" y="424"/>
      <point x="375" y="391" type="curve"/>
    </contour>
    <contour>
      <point x="87" y="354" type="line"/>
      <point x="238" y="354" type="line"/>
      <point x="238" y="410" type="line"/>
      <point x="186" y="473" type="line"/>
      <point x="186" y="474" type="line"/>
      <point x="245" y="474" type="line"/>
      <point x="245" y="586" type="line"/>
      <point x="105" y="586" type="line"/>
      <point x="70" y="532"/>
      <point x="52" y="505"/>
      <point x="52" y="491" type="curve" smooth="yes"/>
      <point x="52" y="482"/>
      <point x="54" y="479"/>
      <point x="87" y="426" type="curve"/>
    </contour>
    <contour>
      <point x="636" y="0" type="line"/>
      <point x="787" y="0" type="line"/>
      <point x="787" y="458" type="line" smooth="yes"/>
      <point x="787" y="539"/>
      <point x="751" y="586"/>
      <point x="670" y="586" type="curve" smooth="yes"/>
      <point x="500" y="586" type="line"/>
      <point x="500" y="474" type="line"/>
      <point x="586" y="474" type="line" smooth="yes"/>
      <point x="629" y="474"/>
      <point x="636" y="455"/>
      <point x="636" y="413" type="curve" smooth="yes"/>
    </contour>
  </outline>
</glyph>
<glyph name="uni17A5" format="2">
  <advance width="598"/>
  <unicode hex="17A5"/>
  <note>
uni17A5
</note>
  <outline>
    <contour>
      <point x="101" y="388" type="curve"/>
      <point x="198" y="442" type="line"/>
      <point x="179" y="458"/>
      <point x="169" y="468"/>
      <point x="169" y="475" type="curve" smooth="yes"/>
      <point x="169" y="480"/>
      <point x="172" y="487"/>
      <point x="181" y="492" type="curve"/>
      <point x="418" y="492" type="line" smooth="yes"/>
      <point x="512" y="492"/>
      <point x="518" y="537"/>
      <point x="518" y="628" type="curve" smooth="yes"/>
      <point x="518" y="702" type="line"/>
      <point x="367" y="702" type="line"/>
      <point x="367" y="628" type="line" smooth="yes"/>
      <point x="367" y="612"/>
      <point x="363" y="604"/>
      <point x="350" y="604" type="curve" smooth="yes"/>
      <point x="128" y="604" type="line"/>
      <point x="64" y="535"/>
      <point x="42" y="511"/>
      <point x="42" y="486" type="curve" smooth="yes"/>
      <point x="42" y="468"/>
      <point x="53" y="451"/>
    </contour>
    <contour>
      <point x="73" y="254" type="line"/>
      <point x="224" y="254" type="line"/>
      <point x="224" y="266" type="line" smooth="yes"/>
      <point x="224" y="297"/>
      <point x="247" y="313"/>
      <point x="293" y="313" type="curve" smooth="yes"/>
      <point x="339" y="313"/>
      <point x="364" y="297"/>
      <point x="364" y="266" type="curve" smooth="yes"/>
      <point x="364" y="0" type="line"/>
      <point x="515" y="0" type="line"/>
      <point x="515" y="266" type="line" smooth="yes"/>
      <point x="515" y="371"/>
      <point x="441" y="424"/>
      <point x="293" y="424" type="curve" smooth="yes"/>
      <point x="146" y="424"/>
      <point x="73" y="371"/>
      <point x="73" y="266" type="curve" smooth="yes"/>
    </contour>
    <contour>
      <point x="73" y="259" type="line"/>
      <point x="73" y="70" type="line" smooth="yes"/>
      <point x="73" y="19"/>
      <point x="91" y="0"/>
      <point x="155" y="0" type="curve" smooth="yes"/>
      <point x="202" y="0" type="line" smooth="yes"/>
      <point x="280" y="0"/>
      <point x="329" y="52"/>
      <point x="329" y="125" type="curve" smooth="yes"/>
      <point x="329" y="210"/>
      <point x="290" y="241"/>
      <point x="224" y="241" type="curve"/>
      <point x="224" y="259" type="line" smooth="yes"/>
    </contour>
    <contour>
      <point x="224" y="80" type="curve"/>
      <point x="224" y="164" type="line"/>
      <point x="236" y="164"/>
      <point x="248" y="152"/>
      <point x="248" y="127" type="curve" smooth="yes"/>
      <point x="248" y="100"/>
      <point x="235" y="80"/>
    </contour>
  </outline>
</glyph>
<glyph name="uni17A6" format="2">
  <advance width="782"/>
  <unicode hex="17A6"/>
  <note>
uni17A6
</note>
  <outline>
    <contour>
      <point x="722" y="541" type="line"/>
      <point x="571" y="541" type="line"/>
      <point x="571" y="-118" type="line" smooth="yes"/>
      <point x="571" y="-142"/>
      <point x="557" y="-155"/>
      <point x="518" y="-155" type="curve" smooth="yes"/>
      <point x="479" y="-155"/>
      <point x="458" y="-145"/>
      <point x="458" y="-118" type="curve" smooth="yes"/>
      <point x="458" y="-59"/>
      <point x="369" y="-24"/>
      <point x="258" y="-24" type="curve" smooth="yes"/>
      <point x="169" y="-24"/>
      <point x="60" y="-58"/>
      <point x="60" y="-138" type="curve" smooth="yes"/>
      <point x="60" y="-173" type="line" smooth="yes"/>
      <point x="60" y="-232"/>
      <point x="90" y="-244"/>
      <point x="150" y="-244" type="curve" smooth="yes"/>
      <point x="243" y="-244" type="line"/>
      <point x="243" y="-160" type="line"/>
      <point x="227" y="-160"/>
      <point x="200" y="-156"/>
      <point x="200" y="-142" type="curve" smooth="yes"/>
      <point x="200" y="-128" type="line" smooth="yes"/>
      <point x="200" y="-106"/>
      <point x="223" y="-95"/>
      <point x="258" y="-95" type="curve" smooth="yes"/>
      <point x="298" y="-95"/>
      <point x="318" y="-106"/>
      <point x="318" y="-135" type="curve" smooth="yes"/>
      <point x="318" y="-209"/>
      <point x="388" y="-244"/>
      <point x="528" y="-244" type="curve" smooth="yes"/>
      <point x="658" y="-244"/>
      <point x="722" y="-205"/>
      <point x="722" y="-127" type="curve" smooth="yes"/>
    </contour>
    <contour>
      <point x="42" y="254" type="line"/>
      <point x="193" y="254" type="line"/>
      <point x="193" y="426" type="line" smooth="yes"/>
      <point x="193" y="457"/>
      <point x="216" y="473"/>
      <point x="262" y="473" type="curve" smooth="yes"/>
      <point x="308" y="473"/>
      <point x="333" y="457"/>
      <point x="333" y="426" type="curve" smooth="yes"/>
      <point x="333" y="0" type="line"/>
      <point x="483" y="0" type="line"/>
      <point x="483" y="426" type="line" smooth="yes"/>
      <point x="483" y="531"/>
      <point x="410" y="584"/>
      <point x="262" y="584" type="curve" smooth="yes"/>
      <point x="115" y="584"/>
      <point x="42" y="531"/>
      <point x="42" y="426" type="curve" smooth="yes"/>
    </contour>
    <contour>
      <point x="42" y="259" type="line"/>
      <point x="42" y="70" type="line" smooth="yes"/>
      <point x="42" y="19"/>
      <point x="60" y="0"/>
      <point x="124" y="0" type="curve" smooth="yes"/>
      <point x="171" y="0" type="line" smooth="yes"/>
      <point x="249" y="0"/>
      <point x="298" y="52"/>
      <point x="298" y="125" type="curve" smooth="yes"/>
      <point x="298" y="210"/>
      <point x="259" y="241"/>
      <point x="193" y="241" type="curve"/>
      <point x="193" y="259" type="line" smooth="yes"/>
    </contour>
    <contour>
      <point x="193" y="80" type="curve"/>
      <point x="193" y="164" type="line"/>
      <point x="205" y="164"/>
      <point x="217" y="152"/>
      <point x="217" y="127" type="curve" smooth="yes"/>
      <point x="217" y="100"/>
      <point x="204" y="80"/>
    </contour>
    <contour>
      <point x="571" y="520" type="line"/>
      <point x="722" y="520" type="line"/>
      <point x="722" y="632" type="line" smooth="yes"/>
      <point x="722" y="749"/>
      <point x="672" y="838"/>
      <point x="558" y="838" type="curve" smooth="yes"/>
      <point x="519" y="838"/>
      <point x="499" y="823"/>
      <point x="483" y="811" type="curve"/>
      <point x="483" y="929" type="line"/>
      <point x="332" y="929" type="line"/>
      <point x="332" y="685" type="line"/>
      <point x="483" y="685" type="line"/>
      <point x="489" y="698"/>
      <point x="500" y="705"/>
      <point x="520" y="705" type="curve" smooth="yes"/>
      <point x="550" y="705"/>
      <point x="571" y="683"/>
      <point x="571" y="620" type="curve" smooth="yes"/>
    </contour>
  </outline>
</glyph>
<glyph name="uni17A7" format="2">
  <advance width="561"/>
  <unicode hex="17A7"/>
  <note>
uni17A7
</note>
  <outline>
    <contour>
      <point x="351" y="-4" type="line"/>
      <point x="501" y="-4" type="line"/>
      <point x="501" y="234" type="line"/>
      <point x="351" y="234" type="line"/>
      <point x="351" y="189" type="line" smooth="yes"/>
      <point x="351" y="150"/>
      <point x="287" y="112"/>
      <point x="255" y="112" type="curve" smooth="yes"/>
      <point x="226" y="112"/>
      <point x="211" y="136"/>
      <point x="211" y="170" type="curve" smooth="yes"/>
      <point x="211" y="215" type="line"/>
      <point x="246" y="224" type="line" smooth="yes"/>
      <point x="403" y="264"/>
      <point x="501" y="332"/>
      <point x="501" y="428" type="curve" smooth="yes"/>
      <point x="501" y="543"/>
      <point x="423" y="586"/>
      <point x="280" y="586" type="curve" smooth="yes"/>
      <point x="136" y="586"/>
      <point x="60" y="540"/>
      <point x="60" y="452" type="curve" smooth="yes"/>
      <point x="60" y="385"/>
      <point x="102" y="349"/>
      <point x="178" y="349" type="curve" smooth="yes"/>
      <point x="238" y="349" type="line"/>
      <point x="238" y="424" type="line"/>
      <point x="218" y="424"/>
      <point x="213" y="433"/>
      <point x="213" y="445" type="curve" smooth="yes"/>
      <point x="213" y="466"/>
      <point x="245" y="474"/>
      <point x="285" y="474" type="curve" smooth="yes"/>
      <point x="326" y="474"/>
      <point x="351" y="458"/>
      <point x="351" y="429" type="curve" smooth="yes"/>
      <point x="351" y="385"/>
      <point x="315" y="348"/>
      <point x="242" y="330" type="curve" smooth="yes"/>
      <point x="60" y="286" type="line"/>
      <point x="60" y="158" type="line" smooth="yes"/>
      <point x="60" y="46"/>
      <point x="122" y="0"/>
      <point x="205" y="0" type="curve" smooth="yes"/>
      <point x="268" y="0"/>
      <point x="322" y="30"/>
      <point x="350" y="55" type="curve"/>
      <point x="351" y="55" type="line"/>
    </contour>
  </outline>
</glyph>
<glyph name="uni17A8" format="2">
  <advance width="567"/>
  <unicode hex="17A8"/>
  <note>
uni17A8
</note>
  <outline>
    <contour>
      <point x="60" y="622" type="line"/>
      <point x="485" y="622" type="line"/>
      <point x="485" y="732" type="line"/>
      <point x="60" y="732" type="line"/>
    </contour>
    <contour>
      <point x="357" y="-4" type="line"/>
      <point x="507" y="-4" type="line"/>
      <point x="507" y="234" type="line"/>
      <point x="357" y="234" type="line"/>
      <point x="357" y="189" type="line" smooth="yes"/>
      <point x="357" y="150"/>
      <point x="293" y="112"/>
      <point x="261" y="112" type="curve" smooth="yes"/>
      <point x="232" y="112"/>
      <point x="217" y="136"/>
      <point x="217" y="170" type="curve" smooth="yes"/>
      <point x="217" y="215" type="line"/>
      <point x="252" y="224" type="line" smooth="yes"/>
      <point x="409" y="264"/>
      <point x="507" y="332"/>
      <point x="507" y="428" type="curve" smooth="yes"/>
      <point x="507" y="543"/>
      <point x="429" y="586"/>
      <point x="286" y="586" type="curve" smooth="yes"/>
      <point x="142" y="586"/>
      <point x="66" y="540"/>
      <point x="66" y="452" type="curve" smooth="yes"/>
      <point x="66" y="385"/>
      <point x="108" y="349"/>
      <point x="184" y="349" type="curve" smooth="yes"/>
      <point x="244" y="349" type="line"/>
      <point x="244" y="424" type="line"/>
      <point x="224" y="424"/>
      <point x="219" y="433"/>
      <point x="219" y="445" type="curve" smooth="yes"/>
      <point x="219" y="466"/>
      <point x="251" y="474"/>
      <point x="291" y="474" type="curve" smooth="yes"/>
      <point x="332" y="474"/>
      <point x="357" y="458"/>
      <point x="357" y="429" type="curve" smooth="yes"/>
      <point x="357" y="385"/>
      <point x="321" y="348"/>
      <point x="248" y="330" type="curve" smooth="yes"/>
      <point x="66" y="286" type="line"/>
      <point x="66" y="158" type="line" smooth="yes"/>
      <point x="66" y="46"/>
      <point x="128" y="0"/>
      <point x="211" y="0" type="curve" smooth="yes"/>
      <point x="274" y="0"/>
      <point x="328" y="30"/>
      <point x="356" y="55" type="curve"/>
      <point x="357" y="55" type="line"/>
    </contour>
  </outline>
</glyph>
<glyph name="uni17AA" format="2">
  <advance width="596"/>
  <unicode hex="17AA"/>
  <note>
uni17AA
</note>
  <outline>
    <contour>
      <point x="101" y="561" type="curve"/>
      <point x="198" y="615" type="line"/>
      <point x="179" y="631"/>
      <point x="169" y="641"/>
      <point x="169" y="648" type="curve" smooth="yes"/>
      <point x="169" y="653"/>
      <point x="172" y="660"/>
      <point x="181" y="665" type="curve"/>
      <point x="418" y="665" type="line" smooth="yes"/>
      <point x="512" y="665"/>
      <point x="518" y="710"/>
      <point x="518" y="801" type="curve" smooth="yes"/>
      <point x="518" y="875" type="line"/>
      <point x="367" y="875" type="line"/>
      <point x="367" y="801" type="line" smooth="yes"/>
      <point x="367" y="785"/>
      <point x="363" y="777"/>
      <point x="350" y="777" type="curve" smooth="yes"/>
      <point x="128" y="777" type="line"/>
      <point x="64" y="708"/>
      <point x="42" y="684"/>
      <point x="42" y="659" type="curve" smooth="yes"/>
      <point x="42" y="641"/>
      <point x="53" y="624"/>
    </contour>
    <contour>
      <point x="386" y="-4" type="line"/>
      <point x="536" y="-4" type="line"/>
      <point x="536" y="234" type="line"/>
      <point x="386" y="234" type="line"/>
      <point x="386" y="189" type="line" smooth="yes"/>
      <point x="386" y="150"/>
      <point x="322" y="112"/>
      <point x="290" y="112" type="curve" smooth="yes"/>
      <point x="261" y="112"/>
      <point x="246" y="136"/>
      <point x="246" y="170" type="curve" smooth="yes"/>
      <point x="246" y="215" type="line"/>
      <point x="281" y="224" type="line" smooth="yes"/>
      <point x="438" y="264"/>
      <point x="536" y="332"/>
      <point x="536" y="428" type="curve" smooth="yes"/>
      <point x="536" y="543"/>
      <point x="458" y="586"/>
      <point x="315" y="586" type="curve" smooth="yes"/>
      <point x="171" y="586"/>
      <point x="95" y="540"/>
      <point x="95" y="452" type="curve" smooth="yes"/>
      <point x="95" y="385"/>
      <point x="137" y="349"/>
      <point x="213" y="349" type="curve" smooth="yes"/>
      <point x="273" y="349" type="line"/>
      <point x="273" y="424" type="line"/>
      <point x="253" y="424"/>
      <point x="248" y="433"/>
      <point x="248" y="445" type="curve" smooth="yes"/>
      <point x="248" y="466"/>
      <point x="280" y="474"/>
      <point x="320" y="474" type="curve" smooth="yes"/>
      <point x="361" y="474"/>
      <point x="386" y="458"/>
      <point x="386" y="429" type="curve" smooth="yes"/>
      <point x="386" y="385"/>
      <point x="350" y="348"/>
      <point x="277" y="330" type="curve" smooth="yes"/>
      <point x="95" y="286" type="line"/>
      <point x="95" y="158" type="line" smooth="yes"/>
      <point x="95" y="46"/>
      <point x="157" y="0"/>
      <point x="240" y="0" type="curve" smooth="yes"/>
      <point x="303" y="0"/>
      <point x="357" y="30"/>
      <point x="385" y="55" type="curve"/>
      <point x="386" y="55" type="line"/>
    </contour>
  </outline>
</glyph>
<glyph name="uni17AB" format="2">
  <advance width="591"/>
  <unicode hex="17AB"/>
  <note>
uni17AB
</note>
  <outline>
    <contour>
      <point x="232" y="379" type="line"/>
      <point x="81" y="379" type="line"/>
      <point x="81" y="158" type="line" smooth="yes"/>
      <point x="81" y="53"/>
      <point x="154" y="0"/>
      <point x="301" y="0" type="curve" smooth="yes"/>
      <point x="449" y="0"/>
      <point x="523" y="53"/>
      <point x="523" y="158" type="curve" smooth="yes"/>
      <point x="523" y="376" type="line"/>
      <point x="372" y="376" type="line"/>
      <point x="372" y="168" type="line" smooth="yes"/>
      <point x="372" y="137"/>
      <point x="349" y="112"/>
      <point x="301" y="112" type="curve" smooth="yes"/>
      <point x="255" y="112"/>
      <point x="232" y="137"/>
      <point x="232" y="168" type="curve" smooth="yes"/>
    </contour>
    <contour>
      <point x="372" y="354" type="line"/>
      <point x="523" y="354" type="line"/>
      <point x="523" y="410" type="line"/>
      <point x="467" y="473" type="line"/>
      <point x="467" y="474" type="line"/>
      <point x="531" y="474" type="line"/>
      <point x="531" y="586" type="line"/>
      <point x="380" y="586" type="line"/>
      <point x="330" y="511"/>
      <point x="312" y="484"/>
      <point x="312" y="473" type="curve" smooth="yes"/>
      <point x="312" y="462"/>
      <point x="344" y="424"/>
      <point x="372" y="391" type="curve"/>
    </contour>
    <contour>
      <point x="81" y="354" type="line"/>
      <point x="232" y="354" type="line"/>
      <point x="232" y="410" type="line"/>
      <point x="180" y="473" type="line"/>
      <point x="180" y="474" type="line"/>
      <point x="239" y="474" type="line"/>
      <point x="239" y="586" type="line"/>
      <point x="99" y="586" type="line"/>
      <point x="64" y="532"/>
      <point x="46" y="505"/>
      <point x="46" y="491" type="curve" smooth="yes"/>
      <point x="46" y="482"/>
      <point x="48" y="479"/>
      <point x="81" y="426" type="curve"/>
    </contour>
    <contour>
      <point x="80" y="-243" type="line"/>
      <point x="239" y="-243" type="line" smooth="yes"/>
      <point x="427" y="-242"/>
      <point x="521" y="-192"/>
      <point x="521" y="-49" type="curve" smooth="yes"/>
      <point x="521" y="-24" type="line"/>
      <point x="324" y="-24" type="line"/>
      <point x="324" y="-116" type="line"/>
      <point x="371" y="-116" type="line"/>
      <point x="367" y="-133"/>
      <point x="327" y="-142"/>
      <point x="239" y="-142" type="curve" smooth="yes"/>
      <point x="80" y="-142" type="line"/>
    </contour>
  </outline>
</glyph>
<glyph name="uni17AE" format="2">
  <advance width="588"/>
  <unicode hex="17AE"/>
  <note>
uni17AE
</note>
  <outline>
    <contour>
      <point x="60" y="251" type="line"/>
      <point x="211" y="251" type="line"/>
      <point x="211" y="451" type="line" smooth="yes"/>
      <point x="211" y="462"/>
      <point x="215" y="468"/>
      <point x="222" y="468" type="curve" smooth="yes"/>
      <point x="238" y="468"/>
      <point x="255" y="407"/>
      <point x="280" y="407" type="curve" smooth="yes"/>
      <point x="306" y="407"/>
      <point x="322" y="468"/>
      <point x="340" y="468" type="curve" smooth="yes"/>
      <point x="346" y="468"/>
      <point x="351" y="462"/>
      <point x="351" y="451" type="curve" smooth="yes"/>
      <point x="351" y="0" type="line"/>
      <point x="502" y="0" type="line"/>
      <point x="502" y="451" type="line" smooth="yes"/>
      <point x="502" y="520"/>
      <point x="466" y="586"/>
      <point x="387" y="586" type="curve" smooth="yes"/>
      <point x="347" y="586"/>
      <point x="313" y="565"/>
      <point x="283" y="525" type="curve"/>
      <point x="280" y="525" type="line"/>
      <point x="250" y="566"/>
      <point x="215" y="586"/>
      <point x="176" y="586" type="curve" smooth="yes"/>
      <point x="90" y="586"/>
      <point x="60" y="521"/>
      <point x="60" y="451" type="curve" smooth="yes"/>
    </contour>
    <contour>
      <point x="60" y="259" type="line"/>
      <point x="60" y="70" type="line" smooth="yes"/>
      <point x="60" y="19"/>
      <point x="78" y="0"/>
      <point x="142" y="0" type="curve" smooth="yes"/>
      <point x="189" y="0" type="line" smooth="yes"/>
      <point x="267" y="0"/>
      <point x="316" y="52"/>
      <point x="316" y="125" type="curve" smooth="yes"/>
      <point x="316" y="210"/>
      <point x="277" y="241"/>
      <point x="211" y="241" type="curve"/>
      <point x="211" y="259" type="line" smooth="yes"/>
    </contour>
    <contour>
      <point x="211" y="80" type="curve"/>
      <point x="211" y="164" type="line"/>
      <point x="223" y="164"/>
      <point x="235" y="152"/>
      <point x="235" y="127" type="curve" smooth="yes"/>
      <point x="235" y="100"/>
      <point x="222" y="80"/>
    </contour>
    <contour>
      <point x="445" y="-187" type="line"/>
      <point x="467" y="-217"/>
      <point x="495" y="-244"/>
      <point x="545" y="-244" type="curve" smooth="yes"/>
      <point x="568" y="-244" type="line"/>
      <point x="568" y="-144" type="line"/>
      <point x="549" y="-144" type="line" smooth="yes"/>
      <point x="513" y="-144"/>
      <point x="500" y="-132"/>
      <point x="489" y="-118" type="curve"/>
    </contour>
    <contour>
      <point x="61" y="-243" type="line"/>
      <point x="220" y="-243" type="line" smooth="yes"/>
      <point x="408" y="-242"/>
      <point x="502" y="-192"/>
      <point x="502" y="-49" type="curve" smooth="yes"/>
      <point x="502" y="-24" type="line"/>
      <point x="305" y="-24" type="line"/>
      <point x="305" y="-116" type="line"/>
      <point x="352" y="-116" type="line"/>
      <point x="348" y="-133"/>
      <point x="308" y="-142"/>
      <point x="220" y="-142" type="curve" smooth="yes"/>
      <point x="61" y="-142" type="line"/>
    </contour>
  </outline>
</glyph>
<glyph name="uni17AF" format="2">
  <advance width="583"/>
  <unicode hex="17AF"/>
  <note>
uni17AF
</note>
  <outline>
    <contour>
      <point x="81" y="0" type="line"/>
      <point x="208" y="0" type="line"/>
      <point x="302" y="76" type="line"/>
      <point x="396" y="0" type="line"/>
      <point x="523" y="0" type="line"/>
      <point x="523" y="438" type="line" smooth="yes"/>
      <point x="523" y="537"/>
      <point x="471" y="586"/>
      <point x="368" y="586" type="curve" smooth="yes"/>
      <point x="288" y="586" type="line" smooth="yes"/>
      <point x="236" y="586"/>
      <point x="232" y="608"/>
      <point x="232" y="643" type="curve" smooth="yes"/>
      <point x="232" y="742" type="line"/>
      <point x="81" y="742" type="line"/>
      <point x="81" y="643" type="line" smooth="yes"/>
      <point x="81" y="519"/>
      <point x="138" y="474"/>
      <point x="253" y="474" type="curve" smooth="yes"/>
      <point x="330" y="474" type="line" smooth="yes"/>
      <point x="358" y="474"/>
      <point x="372" y="462"/>
      <point x="372" y="438" type="curve" smooth="yes"/>
      <point x="372" y="165" type="line"/>
      <point x="302" y="223" type="line"/>
      <point x="232" y="164" type="line"/>
      <point x="232" y="365" type="line" smooth="yes"/>
      <point x="232" y="412"/>
      <point x="199" y="437"/>
      <point x="138" y="437" type="curve" smooth="yes"/>
      <point x="40" y="437" type="line"/>
      <point x="40" y="325" type="line"/>
      <point x="61" y="325"/>
      <point x="81" y="324"/>
      <point x="81" y="305" type="curve" smooth="yes"/>
    </contour>
  </outline>
</glyph>
<glyph name="uni17B0" format="2">
  <advance width="562"/>
  <unicode hex="17B0"/>
  <note>
uni17B0
</note>
  <outline>
    <contour>
      <point x="60" y="251" type="line"/>
      <point x="211" y="251" type="line"/>
      <point x="211" y="451" type="line" smooth="yes"/>
      <point x="211" y="462"/>
      <point x="215" y="468"/>
      <point x="222" y="468" type="curve" smooth="yes"/>
      <point x="238" y="468"/>
      <point x="255" y="407"/>
      <point x="280" y="407" type="curve" smooth="yes"/>
      <point x="306" y="407"/>
      <point x="322" y="468"/>
      <point x="340" y="468" type="curve" smooth="yes"/>
      <point x="346" y="468"/>
      <point x="351" y="462"/>
      <point x="351" y="451" type="curve" smooth="yes"/>
      <point x="351" y="0" type="line"/>
      <point x="502" y="0" type="line"/>
      <point x="502" y="451" type="line" smooth="yes"/>
      <point x="502" y="520"/>
      <point x="466" y="586"/>
      <point x="387" y="586" type="curve" smooth="yes"/>
      <point x="347" y="586"/>
      <point x="313" y="565"/>
      <point x="283" y="525" type="curve"/>
      <point x="280" y="525" type="line"/>
      <point x="250" y="566"/>
      <point x="215" y="586"/>
      <point x="176" y="586" type="curve" smooth="yes"/>
      <point x="90" y="586"/>
      <point x="60" y="521"/>
      <point x="60" y="451" type="curve" smooth="yes"/>
    </contour>
    <contour>
      <point x="60" y="259" type="line"/>
      <point x="60" y="70" type="line" smooth="yes"/>
      <point x="60" y="19"/>
      <point x="78" y="0"/>
      <point x="142" y="0" type="curve" smooth="yes"/>
      <point x="189" y="0" type="line" smooth="yes"/>
      <point x="267" y="0"/>
      <point x="316" y="52"/>
      <point x="316" y="125" type="curve" smooth="yes"/>
      <point x="316" y="210"/>
      <point x="277" y="241"/>
      <point x="211" y="241" type="curve"/>
      <point x="211" y="259" type="line" smooth="yes"/>
    </contour>
    <contour>
      <point x="211" y="80" type="curve"/>
      <point x="211" y="164" type="line"/>
      <point x="223" y="164"/>
      <point x="235" y="152"/>
      <point x="235" y="127" type="curve" smooth="yes"/>
      <point x="235" y="100"/>
      <point x="222" y="80"/>
    </contour>
    <contour>
      <point x="220" y="-207" type="curve" smooth="yes"/>
      <point x="281" y="-207"/>
      <point x="312" y="-183"/>
      <point x="329" y="-157" type="curve"/>
      <point x="338" y="-165"/>
      <point x="353" y="-174"/>
      <point x="387" y="-174" type="curve" smooth="yes"/>
      <point x="430" y="-174"/>
      <point x="502" y="-148"/>
      <point x="502" y="-72" type="curve" smooth="yes"/>
      <point x="502" y="14" type="line"/>
      <point x="371" y="14" type="line"/>
      <point x="360" y="-7"/>
      <point x="223" y="-38"/>
      <point x="104" y="-60" type="curve"/>
      <point x="104" y="-88" type="line" smooth="yes"/>
      <point x="104" y="-173"/>
      <point x="151" y="-207"/>
    </contour>
    <contour>
      <point x="230" y="-143" type="curve" smooth="yes"/>
      <point x="221" y="-143"/>
      <point x="209" y="-141"/>
      <point x="209" y="-128" type="curve" smooth="yes"/>
      <point x="209" y="-116" type="line"/>
      <point x="262" y="-101" type="line"/>
      <point x="262" y="-110" type="line" smooth="yes"/>
      <point x="262" y="-126"/>
      <point x="250" y="-143"/>
    </contour>
    <contour>
      <point x="392" y="-80" type="line" smooth="yes"/>
      <point x="392" y="-99"/>
      <point x="372" y="-107"/>
      <point x="355" y="-107" type="curve" smooth="yes"/>
      <point x="341" y="-107"/>
      <point x="329" y="-100"/>
      <point x="329" y="-93" type="curve" smooth="yes"/>
      <point x="329" y="-83" type="line"/>
      <point x="392" y="-66" type="line"/>
    </contour>
  </outline>
</glyph>
<glyph name="uni17B1" format="2">
  <advance width="572"/>
  <unicode hex="17B1"/>
  <note>
uni17B1
</note>
  <outline>
    <contour>
      <point x="77" y="561" type="curve"/>
      <point x="174" y="615" type="line"/>
      <point x="155" y="631"/>
      <point x="145" y="641"/>
      <point x="145" y="648" type="curve" smooth="yes"/>
      <point x="145" y="653"/>
      <point x="148" y="660"/>
      <point x="157" y="665" type="curve"/>
      <point x="316" y="665" type="line" smooth="yes"/>
      <point x="353" y="665"/>
      <point x="426" y="657"/>
      <point x="421" y="586" type="curve"/>
      <point x="540" y="620" type="line"/>
      <point x="524" y="740"/>
      <point x="442" y="777"/>
      <point x="361" y="777" type="curve" smooth="yes"/>
      <point x="104" y="777" type="line"/>
      <point x="40" y="708"/>
      <point x="18" y="684"/>
      <point x="18" y="659" type="curve" smooth="yes"/>
      <point x="18" y="641"/>
      <point x="29" y="624"/>
    </contour>
    <contour>
      <point x="363" y="-4" type="line"/>
      <point x="513" y="-4" type="line"/>
      <point x="513" y="234" type="line"/>
      <point x="363" y="234" type="line"/>
      <point x="363" y="189" type="line" smooth="yes"/>
      <point x="363" y="150"/>
      <point x="299" y="112"/>
      <point x="267" y="112" type="curve" smooth="yes"/>
      <point x="238" y="112"/>
      <point x="223" y="136"/>
      <point x="223" y="170" type="curve" smooth="yes"/>
      <point x="223" y="215" type="line"/>
      <point x="258" y="224" type="line" smooth="yes"/>
      <point x="415" y="264"/>
      <point x="513" y="332"/>
      <point x="513" y="428" type="curve" smooth="yes"/>
      <point x="513" y="543"/>
      <point x="435" y="586"/>
      <point x="292" y="586" type="curve" smooth="yes"/>
      <point x="148" y="586"/>
      <point x="72" y="540"/>
      <point x="72" y="452" type="curve" smooth="yes"/>
      <point x="72" y="385"/>
      <point x="114" y="349"/>
      <point x="190" y="349" type="curve" smooth="yes"/>
      <point x="250" y="349" type="line"/>
      <point x="250" y="424" type="line"/>
      <point x="230" y="424"/>
      <point x="225" y="433"/>
      <point x="225" y="445" type="curve" smooth="yes"/>
      <point x="225" y="466"/>
      <point x="257" y="474"/>
      <point x="297" y="474" type="curve" smooth="yes"/>
      <point x="338" y="474"/>
      <point x="363" y="458"/>
      <point x="363" y="429" type="curve" smooth="yes"/>
      <point x="363" y="385"/>
      <point x="327" y="348"/>
      <point x="254" y="330" type="curve" smooth="yes"/>
      <point x="72" y="286" type="line"/>
      <point x="72" y="158" type="line" smooth="yes"/>
      <point x="72" y="46"/>
      <point x="134" y="0"/>
      <point x="217" y="0" type="curve" smooth="yes"/>
      <point x="280" y="0"/>
      <point x="334" y="30"/>
      <point x="362" y="55" type="curve"/>
      <point x="363" y="55" type="line"/>
    </contour>
  </outline>
</glyph>
<glyph name="uni17B2" format="2">
  <advance width="521"/>
  <unicode hex="17B2"/>
  <note>
uni17B2
</note>
  <outline>
    <contour>
      <point x="261" y="0" type="curve" smooth="yes"/>
      <point x="404" y="0"/>
      <point x="479" y="46"/>
      <point x="479" y="153" type="curve" smooth="yes"/>
      <point x="479" y="195"/>
      <point x="459" y="230"/>
      <point x="432" y="250" type="curve"/>
      <point x="460" y="285"/>
      <point x="465" y="295"/>
      <point x="465" y="312" type="curve" smooth="yes"/>
      <point x="465" y="324"/>
      <point x="463" y="327"/>
      <point x="413" y="405" type="curve"/>
      <point x="250" y="405" type="line"/>
      <point x="250" y="293" type="line"/>
      <point x="310" y="293" type="line"/>
      <point x="250" y="233" type="line"/>
      <point x="309" y="164" type="line"/>
      <point x="329" y="187" type="line"/>
      <point x="334" y="179"/>
      <point x="335" y="174"/>
      <point x="335" y="168" type="curve" smooth="yes"/>
      <point x="335" y="140"/>
      <point x="313" y="114"/>
      <point x="261" y="114" type="curve" smooth="yes"/>
      <point x="219" y="114"/>
      <point x="192" y="137"/>
      <point x="192" y="160" type="curve" smooth="yes"/>
      <point x="192" y="428" type="line" smooth="yes"/>
      <point x="192" y="459"/>
      <point x="222" y="474"/>
      <point x="273" y="474" type="curve" smooth="yes"/>
      <point x="325" y="474"/>
      <point x="363" y="459"/>
      <point x="394" y="435" type="curve"/>
      <point x="424" y="538" type="line"/>
      <point x="386" y="568"/>
      <point x="329" y="586"/>
      <point x="251" y="586" type="curve" smooth="yes"/>
      <point x="111" y="586"/>
      <point x="41" y="541"/>
      <point x="41" y="428" type="curve" smooth="yes"/>
      <point x="41" y="158" type="line" smooth="yes"/>
      <point x="41" y="46"/>
      <point x="119" y="0"/>
    </contour>
  </outline>
</glyph>
<glyph name="uni17B3" format="2">
  <advance width="537"/>
  <unicode hex="17B3"/>
  <note>
uni17B3
</note>
  <outline>
    <contour>
      <point x="59" y="561" type="curve"/>
      <point x="156" y="615" type="line"/>
      <point x="137" y="631"/>
      <point x="127" y="641"/>
      <point x="127" y="648" type="curve" smooth="yes"/>
      <point x="127" y="653"/>
      <point x="130" y="660"/>
      <point x="139" y="665" type="curve"/>
      <point x="358" y="665" type="line"/>
      <point x="436" y="573" type="line"/>
      <point x="497" y="610" type="line"/>
      <point x="480" y="714"/>
      <point x="452" y="760"/>
      <point x="392" y="773" type="curve"/>
      <point x="362" y="813"/>
      <point x="353" y="827"/>
      <point x="353" y="849" type="curve" smooth="yes"/>
      <point x="353" y="874"/>
      <point x="360" y="882"/>
      <point x="365" y="892" type="curve"/>
      <point x="262" y="923" type="line"/>
      <point x="247" y="905"/>
      <point x="234" y="878"/>
      <point x="234" y="854" type="curve" smooth="yes"/>
      <point x="234" y="830"/>
      <point x="242" y="807"/>
      <point x="262" y="777" type="curve"/>
      <point x="86" y="777" type="line"/>
      <point x="22" y="708"/>
      <point x="0" y="684"/>
      <point x="0" y="659" type="curve" smooth="yes"/>
      <point x="0" y="641"/>
      <point x="11" y="624"/>
    </contour>
    <contour>
      <point x="340" y="-4" type="line"/>
      <point x="490" y="-4" type="line"/>
      <point x="490" y="234" type="line"/>
      <point x="340" y="234" type="line"/>
      <point x="340" y="189" type="line" smooth="yes"/>
      <point x="340" y="150"/>
      <point x="276" y="112"/>
      <point x="244" y="112" type="curve" smooth="yes"/>
      <point x="215" y="112"/>
      <point x="200" y="136"/>
      <point x="200" y="170" type="curve" smooth="yes"/>
      <point x="200" y="215" type="line"/>
      <point x="235" y="224" type="line" smooth="yes"/>
      <point x="392" y="264"/>
      <point x="490" y="332"/>
      <point x="490" y="428" type="curve" smooth="yes"/>
      <point x="490" y="543"/>
      <point x="412" y="586"/>
      <point x="269" y="586" type="curve" smooth="yes"/>
      <point x="125" y="586"/>
      <point x="49" y="540"/>
      <point x="49" y="452" type="curve" smooth="yes"/>
      <point x="49" y="385"/>
      <point x="91" y="349"/>
      <point x="167" y="349" type="curve" smooth="yes"/>
      <point x="227" y="349" type="line"/>
      <point x="227" y="424" type="line"/>
      <point x="207" y="424"/>
      <point x="202" y="433"/>
      <point x="202" y="445" type="curve" smooth="yes"/>
      <point x="202" y="466"/>
      <point x="234" y="474"/>
      <point x="274" y="474" type="curve" smooth="yes"/>
      <point x="315" y="474"/>
      <point x="340" y="458"/>
      <point x="340" y="429" type="curve" smooth="yes"/>
      <point x="340" y="385"/>
      <point x="304" y="348"/>
      <point x="231" y="330" type="curve" smooth="yes"/>
      <point x="49" y="286" type="line"/>
      <point x="49" y="158" type="line" smooth="yes"/>
      <point x="49" y="46"/>
      <point x="111" y="0"/>
      <point x="194" y="0" type="curve" smooth="yes"/>
      <point x="257" y="0"/>
      <point x="311" y="30"/>
      <point x="339" y="55" type="curve"/>
      <point x="340" y="55" type="line"/>
    </contour>
  </outline>
</glyph>
<glyph name="uni17B4" format="2">
  <advance width="249"/>
  <unicode hex="17B4"/>
  <note>
uni17B4
</note>
  <outline>
    <contour>
      <point x="172" y="605" type="line"/>
      <point x="172" y="750" type="line" smooth="yes"/>
      <point x="172" y="821"/>
      <point x="147" y="854"/>
      <point x="73" y="854" type="curve" smooth="yes"/>
      <point x="-60" y="854" type="line"/>
      <point x="-60" y="742" type="line"/>
      <point x="-42" y="742" type="line" smooth="yes"/>
      <point x="14" y="742"/>
      <point x="21" y="732"/>
      <point x="21" y="690" type="curve" smooth="yes"/>
      <point x="21" y="605" type="line"/>
    </contour>
    <contour>
      <point x="38" y="0" type="line"/>
      <point x="189" y="0" type="line"/>
      <point x="189" y="458" type="line" smooth="yes"/>
      <point x="189" y="539"/>
      <point x="153" y="586"/>
      <point x="72" y="586" type="curve" smooth="yes"/>
      <point x="-98" y="586" type="line"/>
      <point x="-98" y="474" type="line"/>
      <point x="-12" y="474" type="line" smooth="yes"/>
      <point x="31" y="474"/>
      <point x="38" y="455"/>
      <point x="38" y="413" type="curve" smooth="yes"/>
    </contour>
  </outline>
</glyph>
<glyph name="uni17B5" format="2">
  <advance width="249"/>
  <unicode hex="17B5"/>
  <note>
uni17B5
</note>
  <outline>
    <contour>
      <point x="38" y="0" type="line"/>
      <point x="189" y="0" type="line"/>
      <point x="189" y="458" type="line" smooth="yes"/>
      <point x="189" y="539"/>
      <point x="153" y="586"/>
      <point x="72" y="586" type="curve" smooth="yes"/>
      <point x="-98" y="586" type="line"/>
      <point x="-98" y="474" type="line"/>
      <point x="-12" y="474" type="line" smooth="yes"/>
      <point x="31" y="474"/>
      <point x="38" y="455"/>
      <point x="38" y="413" type="curve" smooth="yes"/>
    </contour>
  </outline>
</glyph>
<glyph name="uni17B6" format="2">
  <advance width="249"/>
  <unicode hex="17B6"/>
  <note>
uni17B6
</note>
  <outline>
    <contour>
      <point x="38" y="0" type="line"/>
      <point x="189" y="0" type="line"/>
      <point x="189" y="458" type="line" smooth="yes"/>
      <point x="189" y="539"/>
      <point x="153" y="586"/>
      <point x="72" y="586" type="curve" smooth="yes"/>
      <point x="-98" y="586" type="line"/>
      <point x="-98" y="474" type="line"/>
      <point x="-12" y="474" type="line" smooth="yes"/>
      <point x="31" y="474"/>
      <point x="38" y="455"/>
      <point x="38" y="413" type="curve" smooth="yes"/>
    </contour>
  </outline>
</glyph>
<glyph name="uni17B8" format="2">
  <unicode hex="17B8"/>
  <note>
uni17B8
</note>
  <outline>
    <contour>
      <point x="-103" y="684" type="line"/>
      <point x="-103" y="910" type="line"/>
      <point x="-199" y="910" type="line"/>
      <point x="-199" y="684" type="line"/>
    </contour>
    <contour>
      <point x="-410" y="684" type="curve" smooth="yes"/>
      <point x="-103" y="684" type="line"/>
      <point x="-103" y="757" type="line"/>
      <point x="-178" y="838"/>
      <point x="-252" y="897"/>
      <point x="-338" y="897" type="curve" smooth="yes"/>
      <point x="-418" y="897"/>
      <point x="-485" y="848"/>
      <point x="-485" y="757" type="curve" smooth="yes"/>
      <point x="-485" y="708"/>
      <point x="-461" y="684"/>
    </contour>
    <contour>
      <point x="-383" y="763" type="line"/>
      <point x="-379" y="782"/>
      <point x="-365" y="795"/>
      <point x="-334" y="795" type="curve" smooth="yes"/>
      <point x="-299" y="795"/>
      <point x="-264" y="780"/>
      <point x="-250" y="763" type="curve"/>
    </contour>
  </outline>
</glyph>
<glyph name="uni17B9" format="2">
  <unicode hex="17B9"/>
  <note>
uni17B9
</note>
  <outline>
    <contour>
      <point x="-282" y="884" type="curve"/>
      <point x="-129" y="775" type="line"/>
      <point x="-122" y="784"/>
      <point x="-102" y="822"/>
      <point x="-102" y="857" type="curve" smooth="yes"/>
      <point x="-102" y="899"/>
      <point x="-132" y="945"/>
      <point x="-188" y="945" type="curve" smooth="yes"/>
      <point x="-231" y="945"/>
      <point x="-268" y="924"/>
    </contour>
    <contour>
      <point x="-212" y="853" type="line"/>
      <point x="-209" y="859"/>
      <point x="-202" y="865"/>
      <point x="-194" y="865" type="curve" smooth="yes"/>
      <point x="-185" y="865"/>
      <point x="-178" y="859"/>
      <point x="-178" y="850" type="curve" smooth="yes"/>
      <point x="-178" y="843"/>
      <point x="-183" y="835"/>
      <point x="-185" y="833" type="curve"/>
    </contour>
    <contour>
      <point x="-410" y="684" type="curve" smooth="yes"/>
      <point x="-103" y="684" type="line"/>
      <point x="-103" y="757" type="line"/>
      <point x="-178" y="838"/>
      <point x="-252" y="897"/>
      <point x="-338" y="897" type="curve" smooth="yes"/>
      <point x="-418" y="897"/>
      <point x="-485" y="848"/>
      <point x="-485" y="757" type="curve" smooth="yes"/>
      <point x="-485" y="708"/>
      <point x="-461" y="684"/>
    </contour>
    <contour>
      <point x="-383" y="763" type="line"/>
      <point x="-379" y="782"/>
      <point x="-365" y="795"/>
      <point x="-334" y="795" type="curve" smooth="yes"/>
      <point x="-299" y="795"/>
      <point x="-264" y="780"/>
      <point x="-250" y="763" type="curve"/>
    </contour>
  </outline>
</glyph>
<glyph name="uni17BA" format="2">
  <unicode hex="17BA"/>
  <note>
uni17BA
</note>
  <outline>
    <contour>
      <point x="-183" y="910" type="line"/>
      <point x="-183" y="684" type="line"/>
      <point x="-103" y="684" type="line"/>
      <point x="-103" y="910" type="line"/>
    </contour>
    <contour>
      <point x="-279" y="935" type="line"/>
      <point x="-279" y="826" type="line"/>
      <point x="-199" y="826" type="line"/>
      <point x="-199" y="935" type="line"/>
    </contour>
    <contour>
      <point x="-410" y="684" type="curve" smooth="yes"/>
      <point x="-103" y="684" type="line"/>
      <point x="-103" y="757" type="line"/>
      <point x="-178" y="838"/>
      <point x="-252" y="897"/>
      <point x="-338" y="897" type="curve" smooth="yes"/>
      <point x="-418" y="897"/>
      <point x="-485" y="848"/>
      <point x="-485" y="757" type="curve" smooth="yes"/>
      <point x="-485" y="708"/>
      <point x="-461" y="684"/>
    </contour>
    <contour>
      <point x="-383" y="763" type="line"/>
      <point x="-379" y="782"/>
      <point x="-365" y="795"/>
      <point x="-334" y="795" type="curve" smooth="yes"/>
      <point x="-299" y="795"/>
      <point x="-264" y="780"/>
      <point x="-250" y="763" type="curve"/>
    </contour>
  </outline>
</glyph>
<glyph name="uni17BB" format="2">
  <unicode hex="17BB"/>
  <note>
uni17BB
</note>
  <outline>
    <contour>
      <point x="-357" y="-244" type="line"/>
      <point x="-206" y="-244" type="line"/>
      <point x="-206" y="-34" type="line"/>
      <point x="-389" y="-34" type="line"/>
      <point x="-389" y="-126" type="line"/>
      <point x="-357" y="-126" type="line"/>
    </contour>
  </outline>
</glyph>
<glyph name="uni17BC" format="2">
  <unicode hex="17BC"/>
  <note>
uni17BC
</note>
  <outline>
    <contour>
      <point x="-297" y="-262" type="curve" smooth="yes"/>
      <point x="-204" y="-262"/>
      <point x="-152" y="-222"/>
      <point x="-152" y="-142" type="curve" smooth="yes"/>
      <point x="-152" y="-34" type="line"/>
      <point x="-269" y="-34" type="line"/>
      <point x="-269" y="-119" type="line" smooth="yes"/>
      <point x="-269" y="-148"/>
      <point x="-279" y="-161"/>
      <point x="-297" y="-161" type="curve" smooth="yes"/>
      <point x="-315" y="-161"/>
      <point x="-325" y="-148"/>
      <point x="-325" y="-119" type="curve" smooth="yes"/>
      <point x="-325" y="-34" type="line"/>
      <point x="-442" y="-34" type="line"/>
      <point x="-442" y="-142" type="line" smooth="yes"/>
      <point x="-442" y="-222"/>
      <point x="-390" y="-262"/>
    </contour>
  </outline>
</glyph>
<glyph name="uni17BD" format="2">
  <unicode hex="17BD"/>
  <note>
uni17BD
</note>
  <outline>
    <contour>
      <point x="-442" y="-262" type="line"/>
      <point x="-340" y="-262" type="line"/>
      <point x="-297" y="-223" type="line"/>
      <point x="-255" y="-262" type="line"/>
      <point x="-152" y="-262" type="line"/>
      <point x="-152" y="-34" type="line"/>
      <point x="-268" y="-34" type="line"/>
      <point x="-268" y="-135" type="line"/>
      <point x="-297" y="-110" type="line"/>
      <point x="-326" y="-135" type="line"/>
      <point x="-326" y="-34" type="line"/>
      <point x="-442" y="-34" type="line"/>
    </contour>
  </outline>
</glyph>
<glyph name="uni17BE" format="2">
  <unicode hex="17BE"/>
  <note>
uni17BE
</note>
  <outline>
    <contour>
      <point x="732" y="684" type="line"/>
      <point x="732" y="910" type="line"/>
      <point x="636" y="910" type="line"/>
      <point x="636" y="684" type="line"/>
    </contour>
    <contour>
      <point x="425" y="684" type="curve" smooth="yes"/>
      <point x="732" y="684" type="line"/>
      <point x="732" y="757" type="line"/>
      <point x="657" y="838"/>
      <point x="583" y="897"/>
      <point x="497" y="897" type="curve" smooth="yes"/>
      <point x="417" y="897"/>
      <point x="350" y="848"/>
      <point x="350" y="757" type="curve" smooth="yes"/>
      <point x="350" y="708"/>
      <point x="374" y="684"/>
    </contour>
    <contour>
      <point x="452" y="763" type="line"/>
      <point x="456" y="782"/>
      <point x="470" y="795"/>
      <point x="501" y="795" type="curve" smooth="yes"/>
      <point x="536" y="795"/>
      <point x="571" y="780"/>
      <point x="585" y="763" type="curve"/>
    </contour>
    <contour>
      <point x="212" y="375" type="line"/>
      <point x="61" y="375" type="line"/>
      <point x="61" y="50" type="line" smooth="yes"/>
      <point x="61" y="17"/>
      <point x="83" y="0"/>
      <point x="122" y="0" type="curve" smooth="yes"/>
      <point x="250" y="0" type="line"/>
      <point x="250" y="112" type="line"/>
      <point x="238" y="112" type="line" smooth="yes"/>
      <point x="219" y="112"/>
      <point x="212" y="118"/>
      <point x="212" y="143" type="curve" smooth="yes"/>
    </contour>
    <contour>
      <point x="61" y="354" type="line"/>
      <point x="212" y="354" type="line"/>
      <point x="212" y="410" type="line"/>
      <point x="160" y="473" type="line"/>
      <point x="160" y="474" type="line"/>
      <point x="219" y="474" type="line"/>
      <point x="219" y="586" type="line"/>
      <point x="79" y="586" type="line"/>
      <point x="44" y="532"/>
      <point x="26" y="505"/>
      <point x="26" y="491" type="curve" smooth="yes"/>
      <point x="26" y="482"/>
      <point x="28" y="479"/>
      <point x="61" y="426" type="curve"/>
    </contour>
    <contour>
      <point x="367.155" y="256" type="curve" smooth="yes"/>
      <point x="382.982" y="256"/>
      <point x="396.31" y="272"/>
      <point x="396.31" y="291" type="curve" smooth="yes"/>
      <point x="396.31" y="310"/>
      <point x="382.982" y="326"/>
      <point x="367.155" y="326" type="curve" smooth="yes"/>
      <point x="351.328" y="326"/>
      <point x="338" y="310"/>
      <point x="338" y="291" type="curve" smooth="yes"/>
      <point x="338" y="272"/>
      <point x="351.328" y="256"/>
    </contour>
    <contour>
      <point x="388.155" y="357" type="curve" smooth="yes"/>
      <point x="403.982" y="357"/>
      <point x="417.31" y="373"/>
      <point x="417.31" y="392" type="curve" smooth="yes"/>
      <point x="417.31" y="411"/>
      <point x="403.982" y="427"/>
      <point x="388.155" y="427" type="curve" smooth="yes"/>
      <point x="372.328" y="427"/>
      <point x="359" y="411"/>
      <point x="359" y="392" type="curve" smooth="yes"/>
      <point x="359" y="373"/>
      <point x="372.328" y="357"/>
    </contour>
    <contour>
      <point x="448.155" y="427" type="curve" smooth="yes"/>
      <point x="463.982" y="427"/>
      <point x="477.31" y="443"/>
      <point x="477.31" y="462" type="curve" smooth="yes"/>
      <point x="477.31" y="481"/>
      <point x="463.982" y="497"/>
      <point x="448.155" y="497" type="curve" smooth="yes"/>
      <point x="432.328" y="497"/>
      <point x="419" y="481"/>
      <point x="419" y="462" type="curve" smooth="yes"/>
      <point x="419" y="443"/>
      <point x="432.328" y="427"/>
    </contour>
    <contour>
      <point x="528.155" y="451" type="curve" smooth="yes"/>
      <point x="543.982" y="451"/>
      <point x="557.31" y="467"/>
      <point x="557.31" y="486" type="curve" smooth="yes"/>
      <point x="557.31" y="505"/>
      <point x="543.982" y="521"/>
      <point x="528.155" y="521" type="curve" smooth="yes"/>
      <point x="512.328" y="521"/>
      <point x="499" y="505"/>
      <point x="499" y="486" type="curve" smooth="yes"/>
      <point x="499" y="467"/>
      <point x="512.328" y="451"/>
    </contour>
    <contour>
      <point x="609.155" y="427" type="curve" smooth="yes"/>
      <point x="624.982" y="427"/>
      <point x="638.31" y="443"/>
      <point x="638.31" y="462" type="curve" smooth="yes"/>
      <point x="638.31" y="481"/>
      <point x="624.982" y="497"/>
      <point x="609.155" y="497" type="curve" smooth="yes"/>
      <point x="593.328" y="497"/>
      <point x="580" y="481"/>
      <point x="580" y="462" type="curve" smooth="yes"/>
      <point x="580" y="443"/>
      <point x="593.328" y="427"/>
    </contour>
    <contour>
      <point x="668.155" y="355" type="curve" smooth="yes"/>
      <point x="683.982" y="355"/>
      <point x="697.31" y="371"/>
      <point x="697.31" y="390" type="curve" smooth="yes"/>
      <point x="697.31" y="409"/>
      <point x="683.982" y="425"/>
      <point x="668.155" y="425" type="curve" smooth="yes"/>
      <point x="652.328" y="425"/>
      <point x="639" y="409"/>
      <point x="639" y="390" type="curve" smooth="yes"/>
      <point x="639" y="371"/>
      <point x="652.328" y="355"/>
    </contour>
    <contour>
      <point x="693.155" y="256" type="curve" smooth="yes"/>
      <point x="708.982" y="256"/>
      <point x="722.31" y="272"/>
      <point x="722.31" y="291" type="curve" smooth="yes"/>
      <point x="722.31" y="310"/>
      <point x="708.982" y="326"/>
      <point x="693.155" y="326" type="curve" smooth="yes"/>
      <point x="677.328" y="326"/>
      <point x="664" y="310"/>
      <point x="664" y="291" type="curve" smooth="yes"/>
      <point x="664" y="272"/>
      <point x="677.328" y="256"/>
    </contour>
    <contour>
      <point x="669.155" y="162" type="curve" smooth="yes"/>
      <point x="684.982" y="162"/>
      <point x="698.31" y="178"/>
      <point x="698.31" y="197" type="curve" smooth="yes"/>
      <point x="698.31" y="216"/>
      <point x="684.982" y="232"/>
      <point x="669.155" y="232" type="curve" smooth="yes"/>
      <point x="653.328" y="232"/>
      <point x="640" y="216"/>
      <point x="640" y="197" type="curve" smooth="yes"/>
      <point x="640" y="178"/>
      <point x="653.328" y="162"/>
    </contour>
    <contour>
      <point x="610.155" y="90" type="curve" smooth="yes"/>
      <point x="625.982" y="90"/>
      <point x="639.31" y="106"/>
      <point x="639.31" y="125" type="curve" smooth="yes"/>
      <point x="639.31" y="144"/>
      <point x="625.982" y="160"/>
      <point x="610.155" y="160" type="curve" smooth="yes"/>
      <point x="594.328" y="160"/>
      <point x="581" y="144"/>
      <point x="581" y="125" type="curve" smooth="yes"/>
      <point x="581" y="106"/>
      <point x="594.328" y="90"/>
    </contour>
    <contour>
      <point x="528.155" y="62" type="curve" smooth="yes"/>
      <point x="543.982" y="62"/>
      <point x="557.31" y="78"/>
      <point x="557.31" y="97" type="curve" smooth="yes"/>
      <point x="557.31" y="116"/>
      <point x="543.982" y="132"/>
      <point x="528.155" y="132" type="curve" smooth="yes"/>
      <point x="512.328" y="132"/>
      <point x="499" y="116"/>
      <point x="499" y="97" type="curve" smooth="yes"/>
      <point x="499" y="78"/>
      <point x="512.328" y="62"/>
    </contour>
    <contour>
      <point x="448.155" y="89" type="curve" smooth="yes"/>
      <point x="463.982" y="89"/>
      <point x="477.31" y="105"/>
      <point x="477.31" y="124" type="curve" smooth="yes"/>
      <point x="477.31" y="143"/>
      <point x="463.982" y="159"/>
      <point x="448.155" y="159" type="curve" smooth="yes"/>
      <point x="432.328" y="159"/>
      <point x="419" y="143"/>
      <point x="419" y="124" type="curve" smooth="yes"/>
      <point x="419" y="105"/>
      <point x="432.328" y="89"/>
    </contour>
    <contour>
      <point x="387.155" y="161" type="curve" smooth="yes"/>
      <point x="402.982" y="161"/>
      <point x="416.31" y="177"/>
      <point x="416.31" y="196" type="curve" smooth="yes"/>
      <point x="416.31" y="215"/>
      <point x="402.982" y="231"/>
      <point x="387.155" y="231" type="curve" smooth="yes"/>
      <point x="371.328" y="231"/>
      <point x="358" y="215"/>
      <point x="358" y="196" type="curve" smooth="yes"/>
      <point x="358" y="177"/>
      <point x="371.328" y="161"/>
    </contour>
  </outline>
</glyph>
<glyph name="uni17BF" format="2">
  <advance width="1058"/>
  <unicode hex="17BF"/>
  <note>
uni17BF
</note>
  <outline>
    <contour>
      <point x="212" y="375" type="line"/>
      <point x="61" y="375" type="line"/>
      <point x="61" y="50" type="line" smooth="yes"/>
      <point x="61" y="17"/>
      <point x="83" y="0"/>
      <point x="122" y="0" type="curve" smooth="yes"/>
      <point x="250" y="0" type="line"/>
      <point x="250" y="112" type="line"/>
      <point x="238" y="112" type="line" smooth="yes"/>
      <point x="219" y="112"/>
      <point x="212" y="118"/>
      <point x="212" y="143" type="curve" smooth="yes"/>
    </contour>
    <contour>
      <point x="61" y="354" type="line"/>
      <point x="212" y="354" type="line"/>
      <point x="212" y="410" type="line"/>
      <point x="160" y="473" type="line"/>
      <point x="160" y="474" type="line"/>
      <point x="219" y="474" type="line"/>
      <point x="219" y="586" type="line"/>
      <point x="79" y="586" type="line"/>
      <point x="44" y="532"/>
      <point x="26" y="505"/>
      <point x="26" y="491" type="curve" smooth="yes"/>
      <point x="26" y="482"/>
      <point x="28" y="479"/>
      <point x="61" y="426" type="curve"/>
    </contour>
    <contour>
      <point x="349.155" y="256" type="curve" smooth="yes"/>
      <point x="364.982" y="256"/>
      <point x="378.31" y="272"/>
      <point x="378.31" y="291" type="curve" smooth="yes"/>
      <point x="378.31" y="310"/>
      <point x="364.982" y="326"/>
      <point x="349.155" y="326" type="curve" smooth="yes"/>
      <point x="333.328" y="326"/>
      <point x="320" y="310"/>
      <point x="320" y="291" type="curve" smooth="yes"/>
      <point x="320" y="272"/>
      <point x="333.328" y="256"/>
    </contour>
    <contour>
      <point x="370.155" y="357" type="curve" smooth="yes"/>
      <point x="385.982" y="357"/>
      <point x="399.31" y="373"/>
      <point x="399.31" y="392" type="curve" smooth="yes"/>
      <point x="399.31" y="411"/>
      <point x="385.982" y="427"/>
      <point x="370.155" y="427" type="curve" smooth="yes"/>
      <point x="354.328" y="427"/>
      <point x="341" y="411"/>
      <point x="341" y="392" type="curve" smooth="yes"/>
      <point x="341" y="373"/>
      <point x="354.328" y="357"/>
    </contour>
    <contour>
      <point x="430.155" y="427" type="curve" smooth="yes"/>
      <point x="445.982" y="427"/>
      <point x="459.31" y="443"/>
      <point x="459.31" y="462" type="curve" smooth="yes"/>
      <point x="459.31" y="481"/>
      <point x="445.982" y="497"/>
      <point x="430.155" y="497" type="curve" smooth="yes"/>
      <point x="414.328" y="497"/>
      <point x="401" y="481"/>
      <point x="401" y="462" type="curve" smooth="yes"/>
      <point x="401" y="443"/>
      <point x="414.328" y="427"/>
    </contour>
    <contour>
      <point x="510.155" y="451" type="curve" smooth="yes"/>
      <point x="525.982" y="451"/>
      <point x="539.31" y="467"/>
      <point x="539.31" y="486" type="curve" smooth="yes"/>
      <point x="539.31" y="505"/>
      <point x="525.982" y="521"/>
      <point x="510.155" y="521" type="curve" smooth="yes"/>
      <point x="494.328" y="521"/>
      <point x="481" y="505"/>
      <point x="481" y="486" type="curve" smooth="yes"/>
      <point x="481" y="467"/>
      <point x="494.328" y="451"/>
    </contour>
    <contour>
      <point x="591.155" y="427" type="curve" smooth="yes"/>
      <point x="606.982" y="427"/>
      <point x="620.31" y="443"/>
      <point x="620.31" y="462" type="curve" smooth="yes"/>
      <point x="620.31" y="481"/>
      <point x="606.982" y="497"/>
      <point x="591.155" y="497" type="curve" smooth="yes"/>
      <point x="575.328" y="497"/>
      <point x="562" y="481"/>
      <point x="562" y="462" type="curve" smooth="yes"/>
      <point x="562" y="443"/>
      <point x="575.328" y="427"/>
    </contour>
    <contour>
      <point x="650.155" y="355" type="curve" smooth="yes"/>
      <point x="665.982" y="355"/>
      <point x="679.31" y="371"/>
      <point x="679.31" y="390" type="curve" smooth="yes"/>
      <point x="679.31" y="409"/>
      <point x="665.982" y="425"/>
      <point x="650.155" y="425" type="curve" smooth="yes"/>
      <point x="634.328" y="425"/>
      <point x="621" y="409"/>
      <point x="621" y="390" type="curve" smooth="yes"/>
      <point x="621" y="371"/>
      <point x="634.328" y="355"/>
    </contour>
    <contour>
      <point x="675.155" y="256" type="curve" smooth="yes"/>
      <point x="690.982" y="256"/>
      <point x="704.31" y="272"/>
      <point x="704.31" y="291" type="curve" smooth="yes"/>
      <point x="704.31" y="310"/>
      <point x="690.982" y="326"/>
      <point x="675.155" y="326" type="curve" smooth="yes"/>
      <point x="659.328" y="326"/>
      <point x="646" y="310"/>
      <point x="646" y="291" type="curve" smooth="yes"/>
      <point x="646" y="272"/>
      <point x="659.328" y="256"/>
    </contour>
    <contour>
      <point x="651.155" y="162" type="curve" smooth="yes"/>
      <point x="666.982" y="162"/>
      <point x="680.31" y="178"/>
      <point x="680.31" y="197" type="curve" smooth="yes"/>
      <point x="680.31" y="216"/>
      <point x="666.982" y="232"/>
      <point x="651.155" y="232" type="curve" smooth="yes"/>
      <point x="635.328" y="232"/>
      <point x="622" y="216"/>
      <point x="622" y="197" type="curve" smooth="yes"/>
      <point x="622" y="178"/>
      <point x="635.328" y="162"/>
    </contour>
    <contour>
      <point x="592.155" y="90" type="curve" smooth="yes"/>
      <point x="607.982" y="90"/>
      <point x="621.31" y="106"/>
      <point x="621.31" y="125" type="curve" smooth="yes"/>
      <point x="621.31" y="144"/>
      <point x="607.982" y="160"/>
      <point x="592.155" y="160" type="curve" smooth="yes"/>
      <point x="576.328" y="160"/>
      <point x="563" y="144"/>
      <point x="563" y="125" type="curve" smooth="yes"/>
      <point x="563" y="106"/>
      <point x="576.328" y="90"/>
    </contour>
    <contour>
      <point x="510.155" y="62" type="curve" smooth="yes"/>
      <point x="525.982" y="62"/>
      <point x="539.31" y="78"/>
      <point x="539.31" y="97" type="curve" smooth="yes"/>
      <point x="539.31" y="116"/>
      <point x="525.982" y="132"/>
      <point x="510.155" y="132" type="curve" smooth="yes"/>
      <point x="494.328" y="132"/>
      <point x="481" y="116"/>
      <point x="481" y="97" type="curve" smooth="yes"/>
      <point x="481" y="78"/>
      <point x="494.328" y="62"/>
    </contour>
    <contour>
      <point x="430.155" y="89" type="curve" smooth="yes"/>
      <point x="445.982" y="89"/>
      <point x="459.31" y="105"/>
      <point x="459.31" y="124" type="curve" smooth="yes"/>
      <point x="459.31" y="143"/>
      <point x="445.982" y="159"/>
      <point x="430.155" y="159" type="curve" smooth="yes"/>
      <point x="414.328" y="159"/>
      <point x="401" y="143"/>
      <point x="401" y="124" type="curve" smooth="yes"/>
      <point x="401" y="105"/>
      <point x="414.328" y="89"/>
    </contour>
    <contour>
      <point x="369.155" y="161" type="curve" smooth="yes"/>
      <point x="384.982" y="161"/>
      <point x="398.31" y="177"/>
      <point x="398.31" y="196" type="curve" smooth="yes"/>
      <point x="398.31" y="215"/>
      <point x="384.982" y="231"/>
      <point x="369.155" y="231" type="curve" smooth="yes"/>
      <point x="353.328" y="231"/>
      <point x="340" y="215"/>
      <point x="340" y="196" type="curve" smooth="yes"/>
      <point x="340" y="177"/>
      <point x="353.328" y="161"/>
    </contour>
    <contour>
      <point x="998" y="602" type="line"/>
      <point x="847" y="602" type="line"/>
      <point x="847" y="-127" type="line" smooth="yes"/>
      <point x="847" y="-141"/>
      <point x="832" y="-148"/>
      <point x="803" y="-148" type="curve" smooth="yes"/>
      <point x="774" y="-148"/>
      <point x="759" y="-141"/>
      <point x="759" y="-127" type="curve" smooth="yes"/>
      <point x="759" y="-122" type="line"/>
      <point x="770" y="-122" type="line"/>
      <point x="770" y="-49" type="line"/>
      <point x="608" y="-49" type="line"/>
      <point x="608" y="-127" type="line" smooth="yes"/>
      <point x="608" y="-205"/>
      <point x="673" y="-244"/>
      <point x="803" y="-244" type="curve" smooth="yes"/>
      <point x="933" y="-244"/>
      <point x="998" y="-205"/>
      <point x="998" y="-127" type="curve" smooth="yes"/>
    </contour>
    <contour>
      <point x="847" y="595" type="line"/>
      <point x="998" y="595" type="line"/>
      <point x="998" y="643" type="line" smooth="yes"/>
      <point x="998" y="739"/>
      <point x="977" y="806"/>
      <point x="894" y="875" type="curve" smooth="yes"/>
      <point x="826" y="931"/>
      <point x="780" y="959"/>
      <point x="721" y="959" type="curve" smooth="yes"/>
      <point x="658" y="959"/>
      <point x="591" y="909"/>
      <point x="591" y="825" type="curve" smooth="yes"/>
      <point x="591" y="762"/>
      <point x="614" y="723"/>
      <point x="693" y="723" type="curve" smooth="yes"/>
      <point x="803" y="723" type="line" smooth="yes"/>
      <point x="832" y="723"/>
      <point x="847" y="707"/>
      <point x="847" y="675" type="curve" smooth="yes"/>
    </contour>
    <contour>
      <point x="704" y="812" type="line"/>
      <point x="704" y="831"/>
      <point x="718" y="844"/>
      <point x="738" y="844" type="curve" smooth="yes"/>
      <point x="762" y="844"/>
      <point x="787" y="834"/>
      <point x="810" y="812" type="curve"/>
    </contour>
    <contour>
      <point x="826" y="900" type="line"/>
      <point x="826" y="1012" type="line"/>
      <point x="747" y="1012" type="line"/>
      <point x="747" y="941" type="line"/>
    </contour>
    <contour>
      <point x="918" y="843" type="line"/>
      <point x="918" y="987" type="line"/>
      <point x="839" y="987" type="line"/>
      <point x="839" y="891" type="line"/>
    </contour>
  </outline>
</glyph>
<glyph name="uni17C0" format="2">
  <advance width="1103"/>
  <unicode hex="17C0"/>
  <note>
uni17C0
</note>
  <outline>
    <contour>
      <point x="212" y="375" type="line"/>
      <point x="61" y="375" type="line"/>
      <point x="61" y="50" type="line" smooth="yes"/>
      <point x="61" y="17"/>
      <point x="83" y="0"/>
      <point x="122" y="0" type="curve" smooth="yes"/>
      <point x="250" y="0" type="line"/>
      <point x="250" y="112" type="line"/>
      <point x="238" y="112" type="line" smooth="yes"/>
      <point x="219" y="112"/>
      <point x="212" y="118"/>
      <point x="212" y="143" type="curve" smooth="yes"/>
    </contour>
    <contour>
      <point x="61" y="354" type="line"/>
      <point x="212" y="354" type="line"/>
      <point x="212" y="410" type="line"/>
      <point x="160" y="473" type="line"/>
      <point x="160" y="474" type="line"/>
      <point x="219" y="474" type="line"/>
      <point x="219" y="586" type="line"/>
      <point x="79" y="586" type="line"/>
      <point x="44" y="532"/>
      <point x="26" y="505"/>
      <point x="26" y="491" type="curve" smooth="yes"/>
      <point x="26" y="482"/>
      <point x="28" y="479"/>
      <point x="61" y="426" type="curve"/>
    </contour>
    <contour>
      <point x="364.155" y="256" type="curve" smooth="yes"/>
      <point x="379.982" y="256"/>
      <point x="393.31" y="272"/>
      <point x="393.31" y="291" type="curve" smooth="yes"/>
      <point x="393.31" y="310"/>
      <point x="379.982" y="326"/>
      <point x="364.155" y="326" type="curve" smooth="yes"/>
      <point x="348.328" y="326"/>
      <point x="335" y="310"/>
      <point x="335" y="291" type="curve" smooth="yes"/>
      <point x="335" y="272"/>
      <point x="348.328" y="256"/>
    </contour>
    <contour>
      <point x="385.155" y="357" type="curve" smooth="yes"/>
      <point x="400.982" y="357"/>
      <point x="414.31" y="373"/>
      <point x="414.31" y="392" type="curve" smooth="yes"/>
      <point x="414.31" y="411"/>
      <point x="400.982" y="427"/>
      <point x="385.155" y="427" type="curve" smooth="yes"/>
      <point x="369.328" y="427"/>
      <point x="356" y="411"/>
      <point x="356" y="392" type="curve" smooth="yes"/>
      <point x="356" y="373"/>
      <point x="369.328" y="357"/>
    </contour>
    <contour>
      <point x="445.155" y="427" type="curve" smooth="yes"/>
      <point x="460.982" y="427"/>
      <point x="474.31" y="443"/>
      <point x="474.31" y="462" type="curve" smooth="yes"/>
      <point x="474.31" y="481"/>
      <point x="460.982" y="497"/>
      <point x="445.155" y="497" type="curve" smooth="yes"/>
      <point x="429.328" y="497"/>
      <point x="416" y="481"/>
      <point x="416" y="462" type="curve" smooth="yes"/>
      <point x="416" y="443"/>
      <point x="429.328" y="427"/>
    </contour>
    <contour>
      <point x="525.155" y="451" type="curve" smooth="yes"/>
      <point x="540.982" y="451"/>
      <point x="554.31" y="467"/>
      <point x="554.31" y="486" type="curve" smooth="yes"/>
      <point x="554.31" y="505"/>
      <point x="540.982" y="521"/>
      <point x="525.155" y="521" type="curve" smooth="yes"/>
      <point x="509.328" y="521"/>
      <point x="496" y="505"/>
      <point x="496" y="486" type="curve" smooth="yes"/>
      <point x="496" y="467"/>
      <point x="509.328" y="451"/>
    </contour>
    <contour>
      <point x="606.155" y="427" type="curve" smooth="yes"/>
      <point x="621.982" y="427"/>
      <point x="635.31" y="443"/>
      <point x="635.31" y="462" type="curve" smooth="yes"/>
      <point x="635.31" y="481"/>
      <point x="621.982" y="497"/>
      <point x="606.155" y="497" type="curve" smooth="yes"/>
      <point x="590.328" y="497"/>
      <point x="577" y="481"/>
      <point x="577" y="462" type="curve" smooth="yes"/>
      <point x="577" y="443"/>
      <point x="590.328" y="427"/>
    </contour>
    <contour>
      <point x="665.155" y="355" type="curve" smooth="yes"/>
      <point x="680.982" y="355"/>
      <point x="694.31" y="371"/>
      <point x="694.31" y="390" type="curve" smooth="yes"/>
      <point x="694.31" y="409"/>
      <point x="680.982" y="425"/>
      <point x="665.155" y="425" type="curve" smooth="yes"/>
      <point x="649.328" y="425"/>
      <point x="636" y="409"/>
      <point x="636" y="390" type="curve" smooth="yes"/>
      <point x="636" y="371"/>
      <point x="649.328" y="355"/>
    </contour>
    <contour>
      <point x="690.155" y="256" type="curve" smooth="yes"/>
      <point x="705.982" y="256"/>
      <point x="719.31" y="272"/>
      <point x="719.31" y="291" type="curve" smooth="yes"/>
      <point x="719.31" y="310"/>
      <point x="705.982" y="326"/>
      <point x="690.155" y="326" type="curve" smooth="yes"/>
      <point x="674.328" y="326"/>
      <point x="661" y="310"/>
      <point x="661" y="291" type="curve" smooth="yes"/>
      <point x="661" y="272"/>
      <point x="674.328" y="256"/>
    </contour>
    <contour>
      <point x="666.155" y="162" type="curve" smooth="yes"/>
      <point x="681.982" y="162"/>
      <point x="695.31" y="178"/>
      <point x="695.31" y="197" type="curve" smooth="yes"/>
      <point x="695.31" y="216"/>
      <point x="681.982" y="232"/>
      <point x="666.155" y="232" type="curve" smooth="yes"/>
      <point x="650.328" y="232"/>
      <point x="637" y="216"/>
      <point x="637" y="197" type="curve" smooth="yes"/>
      <point x="637" y="178"/>
      <point x="650.328" y="162"/>
    </contour>
    <contour>
      <point x="607.155" y="90" type="curve" smooth="yes"/>
      <point x="622.982" y="90"/>
      <point x="636.31" y="106"/>
      <point x="636.31" y="125" type="curve" smooth="yes"/>
      <point x="636.31" y="144"/>
      <point x="622.982" y="160"/>
      <point x="607.155" y="160" type="curve" smooth="yes"/>
      <point x="591.328" y="160"/>
      <point x="578" y="144"/>
      <point x="578" y="125" type="curve" smooth="yes"/>
      <point x="578" y="106"/>
      <point x="591.328" y="90"/>
    </contour>
    <contour>
      <point x="525.155" y="62" type="curve" smooth="yes"/>
      <point x="540.982" y="62"/>
      <point x="554.31" y="78"/>
      <point x="554.31" y="97" type="curve" smooth="yes"/>
      <point x="554.31" y="116"/>
      <point x="540.982" y="132"/>
      <point x="525.155" y="132" type="curve" smooth="yes"/>
      <point x="509.328" y="132"/>
      <point x="496" y="116"/>
      <point x="496" y="97" type="curve" smooth="yes"/>
      <point x="496" y="78"/>
      <point x="509.328" y="62"/>
    </contour>
    <contour>
      <point x="445.155" y="89" type="curve" smooth="yes"/>
      <point x="460.982" y="89"/>
      <point x="474.31" y="105"/>
      <point x="474.31" y="124" type="curve" smooth="yes"/>
      <point x="474.31" y="143"/>
      <point x="460.982" y="159"/>
      <point x="445.155" y="159" type="curve" smooth="yes"/>
      <point x="429.328" y="159"/>
      <point x="416" y="143"/>
      <point x="416" y="124" type="curve" smooth="yes"/>
      <point x="416" y="105"/>
      <point x="429.328" y="89"/>
    </contour>
    <contour>
      <point x="384.155" y="161" type="curve" smooth="yes"/>
      <point x="399.982" y="161"/>
      <point x="413.31" y="177"/>
      <point x="413.31" y="196" type="curve" smooth="yes"/>
      <point x="413.31" y="215"/>
      <point x="399.982" y="231"/>
      <point x="384.155" y="231" type="curve" smooth="yes"/>
      <point x="368.328" y="231"/>
      <point x="355" y="215"/>
      <point x="355" y="196" type="curve" smooth="yes"/>
      <point x="355" y="177"/>
      <point x="368.328" y="161"/>
    </contour>
    <contour>
      <point x="1043" y="578" type="line"/>
      <point x="892" y="578" type="line"/>
      <point x="892" y="-124" type="line" smooth="yes"/>
      <point x="892" y="-139"/>
      <point x="877" y="-148"/>
      <point x="848" y="-148" type="curve" smooth="yes"/>
      <point x="819" y="-148"/>
      <point x="804" y="-139"/>
      <point x="804" y="-124" type="curve" smooth="yes"/>
      <point x="804" y="-122" type="line"/>
      <point x="821" y="-122" type="line"/>
      <point x="821" y="-49" type="line"/>
      <point x="653" y="-49" type="line"/>
      <point x="653" y="-127" type="line" smooth="yes"/>
      <point x="653" y="-205"/>
      <point x="718" y="-244"/>
      <point x="848" y="-244" type="curve" smooth="yes"/>
      <point x="978" y="-244"/>
      <point x="1043" y="-205"/>
      <point x="1043" y="-127" type="curve" smooth="yes"/>
    </contour>
    <contour>
      <point x="892" y="558" type="line"/>
      <point x="1043" y="558" type="line"/>
      <point x="1043" y="670" type="line" smooth="yes"/>
      <point x="1043" y="787"/>
      <point x="993" y="876"/>
      <point x="879" y="876" type="curve" smooth="yes"/>
      <point x="840" y="876"/>
      <point x="820" y="861"/>
      <point x="804" y="849" type="curve"/>
      <point x="804" y="967" type="line"/>
      <point x="653" y="967" type="line"/>
      <point x="653" y="723" type="line"/>
      <point x="804" y="723" type="line"/>
      <point x="810" y="736"/>
      <point x="821" y="743"/>
      <point x="841" y="743" type="curve" smooth="yes"/>
      <point x="871" y="743"/>
      <point x="892" y="721"/>
      <point x="892" y="658" type="curve" smooth="yes"/>
    </contour>
  </outline>
</glyph>
<glyph name="uni17C1" format="2">
  <advance width="260"/>
  <unicode hex="17C1"/>
  <note>
uni17C1
</note>
  <outline>
    <contour>
      <point x="212" y="375" type="line"/>
      <point x="61" y="375" type="line"/>
      <point x="61" y="50" type="line" smooth="yes"/>
      <point x="61" y="17"/>
      <point x="83" y="0"/>
      <point x="122" y="0" type="curve" smooth="yes"/>
      <point x="250" y="0" type="line"/>
      <point x="250" y="112" type="line"/>
      <point x="238" y="112" type="line" smooth="yes"/>
      <point x="219" y="112"/>
      <point x="212" y="118"/>
      <point x="212" y="143" type="curve" smooth="yes"/>
    </contour>
    <contour>
      <point x="61" y="354" type="line"/>
      <point x="212" y="354" type="line"/>
      <point x="212" y="410" type="line"/>
      <point x="160" y="473" type="line"/>
      <point x="160" y="474" type="line"/>
      <point x="219" y="474" type="line"/>
      <point x="219" y="586" type="line"/>
      <point x="79" y="586" type="line"/>
      <point x="44" y="532"/>
      <point x="26" y="505"/>
      <point x="26" y="491" type="curve" smooth="yes"/>
      <point x="26" y="482"/>
      <point x="28" y="479"/>
      <point x="61" y="426" type="curve"/>
    </contour>
  </outline>
</glyph>
<glyph name="uni17C2" format="2">
  <advance width="260"/>
  <unicode hex="17C2"/>
  <note>
uni17C2
</note>
  <outline>
    <contour>
      <point x="115" y="635" type="curve" smooth="yes"/>
      <point x="207" y="635"/>
      <point x="258" y="703"/>
      <point x="258" y="854" type="curve"/>
      <point x="160" y="854" type="line"/>
      <point x="163" y="794"/>
      <point x="157" y="725"/>
      <point x="129" y="725" type="curve" smooth="yes"/>
      <point x="121" y="725"/>
      <point x="116" y="730"/>
      <point x="116" y="738" type="curve" smooth="yes"/>
      <point x="116" y="747"/>
      <point x="123" y="752"/>
      <point x="131" y="752" type="curve"/>
      <point x="131" y="825" type="line"/>
      <point x="44" y="825"/>
      <point x="0" y="789"/>
      <point x="0" y="730" type="curve" smooth="yes"/>
      <point x="0" y="669"/>
      <point x="51" y="635"/>
    </contour>
    <contour>
      <point x="212" y="375" type="line"/>
      <point x="61" y="375" type="line"/>
      <point x="61" y="50" type="line" smooth="yes"/>
      <point x="61" y="17"/>
      <point x="83" y="0"/>
      <point x="122" y="0" type="curve" smooth="yes"/>
      <point x="250" y="0" type="line"/>
      <point x="250" y="112" type="line"/>
      <point x="238" y="112" type="line" smooth="yes"/>
      <point x="219" y="112"/>
      <point x="212" y="118"/>
      <point x="212" y="143" type="curve" smooth="yes"/>
    </contour>
    <contour>
      <point x="61" y="354" type="line"/>
      <point x="212" y="354" type="line"/>
      <point x="212" y="410" type="line"/>
      <point x="160" y="473" type="line"/>
      <point x="160" y="474" type="line"/>
      <point x="219" y="474" type="line"/>
      <point x="219" y="586" type="line"/>
      <point x="79" y="586" type="line"/>
      <point x="44" y="532"/>
      <point x="26" y="505"/>
      <point x="26" y="491" type="curve" smooth="yes"/>
      <point x="26" y="482"/>
      <point x="28" y="479"/>
      <point x="61" y="426" type="curve"/>
    </contour>
  </outline>
</glyph>
<glyph name="uni17C3" format="2">
  <advance width="260"/>
  <unicode hex="17C3"/>
  <note>
uni17C3
</note>
  <outline>
    <contour>
      <point x="22" y="635" type="line"/>
      <point x="148" y="635" type="line" smooth="yes"/>
      <point x="218" y="635"/>
      <point x="275" y="680"/>
      <point x="275" y="759" type="curve" smooth="yes"/>
      <point x="275" y="818"/>
      <point x="243" y="856"/>
      <point x="188" y="856" type="curve" smooth="yes"/>
      <point x="162" y="856"/>
      <point x="146" y="847"/>
      <point x="131" y="833" type="curve"/>
      <point x="131" y="869" type="line" smooth="yes"/>
      <point x="131" y="897"/>
      <point x="124" y="928"/>
      <point x="83" y="928" type="curve" smooth="yes"/>
      <point x="0" y="928" type="line"/>
      <point x="0" y="838" type="line"/>
      <point x="14" y="838"/>
      <point x="22" y="830"/>
      <point x="22" y="814" type="curve" smooth="yes"/>
      <point x="22" y="750" type="line"/>
      <point x="131" y="750" type="line"/>
      <point x="134" y="760"/>
      <point x="142" y="769"/>
      <point x="155" y="769" type="curve" smooth="yes"/>
      <point x="168" y="769"/>
      <point x="175" y="760"/>
      <point x="175" y="749" type="curve" smooth="yes"/>
      <point x="175" y="737"/>
      <point x="167" y="725"/>
      <point x="142" y="725" type="curve" smooth="yes"/>
      <point x="22" y="725" type="line"/>
    </contour>
    <contour>
      <point x="212" y="375" type="line"/>
      <point x="61" y="375" type="line"/>
      <point x="61" y="50" type="line" smooth="yes"/>
      <point x="61" y="17"/>
      <point x="83" y="0"/>
      <point x="122" y="0" type="curve" smooth="yes"/>
      <point x="250" y="0" type="line"/>
      <point x="250" y="112" type="line"/>
      <point x="238" y="112" type="line" smooth="yes"/>
      <point x="219" y="112"/>
      <point x="212" y="118"/>
      <point x="212" y="143" type="curve" smooth="yes"/>
    </contour>
    <contour>
      <point x="61" y="354" type="line"/>
      <point x="212" y="354" type="line"/>
      <point x="212" y="410" type="line"/>
      <point x="160" y="473" type="line"/>
      <point x="160" y="474" type="line"/>
      <point x="219" y="474" type="line"/>
      <point x="219" y="586" type="line"/>
      <point x="79" y="586" type="line"/>
      <point x="44" y="532"/>
      <point x="26" y="505"/>
      <point x="26" y="491" type="curve" smooth="yes"/>
      <point x="26" y="482"/>
      <point x="28" y="479"/>
      <point x="61" y="426" type="curve"/>
    </contour>
  </outline>
</glyph>
<glyph name="uni17C4" format="2">
  <advance width="1011"/>
  <unicode hex="17C4"/>
  <note>
uni17C4
</note>
  <outline>
    <contour>
      <point x="800" y="0" type="line"/>
      <point x="951" y="0" type="line"/>
      <point x="951" y="458" type="line" smooth="yes"/>
      <point x="951" y="539"/>
      <point x="915" y="586"/>
      <point x="834" y="586" type="curve" smooth="yes"/>
      <point x="664" y="586" type="line"/>
      <point x="664" y="474" type="line"/>
      <point x="750" y="474" type="line" smooth="yes"/>
      <point x="793" y="474"/>
      <point x="800" y="455"/>
      <point x="800" y="413" type="curve" smooth="yes"/>
    </contour>
    <contour>
      <point x="212" y="375" type="line"/>
      <point x="61" y="375" type="line"/>
      <point x="61" y="50" type="line" smooth="yes"/>
      <point x="61" y="17"/>
      <point x="83" y="0"/>
      <point x="122" y="0" type="curve" smooth="yes"/>
      <point x="250" y="0" type="line"/>
      <point x="250" y="112" type="line"/>
      <point x="238" y="112" type="line" smooth="yes"/>
      <point x="219" y="112"/>
      <point x="212" y="118"/>
      <point x="212" y="143" type="curve" smooth="yes"/>
    </contour>
    <contour>
      <point x="61" y="354" type="line"/>
      <point x="212" y="354" type="line"/>
      <point x="212" y="410" type="line"/>
      <point x="160" y="473" type="line"/>
      <point x="160" y="474" type="line"/>
      <point x="219" y="474" type="line"/>
      <point x="219" y="586" type="line"/>
      <point x="79" y="586" type="line"/>
      <point x="44" y="532"/>
      <point x="26" y="505"/>
      <point x="26" y="491" type="curve" smooth="yes"/>
      <point x="26" y="482"/>
      <point x="28" y="479"/>
      <point x="61" y="426" type="curve"/>
    </contour>
    <contour>
      <point x="316.155" y="256" type="curve" smooth="yes"/>
      <point x="331.982" y="256"/>
      <point x="345.31" y="272"/>
      <point x="345.31" y="291" type="curve" smooth="yes"/>
      <point x="345.31" y="310"/>
      <point x="331.982" y="326"/>
      <point x="316.155" y="326" type="curve" smooth="yes"/>
      <point x="300.328" y="326"/>
      <point x="287" y="310"/>
      <point x="287" y="291" type="curve" smooth="yes"/>
      <point x="287" y="272"/>
      <point x="300.328" y="256"/>
    </contour>
    <contour>
      <point x="337.155" y="357" type="curve" smooth="yes"/>
      <point x="352.982" y="357"/>
      <point x="366.31" y="373"/>
      <point x="366.31" y="392" type="curve" smooth="yes"/>
      <point x="366.31" y="411"/>
      <point x="352.982" y="427"/>
      <point x="337.155" y="427" type="curve" smooth="yes"/>
      <point x="321.328" y="427"/>
      <point x="308" y="411"/>
      <point x="308" y="392" type="curve" smooth="yes"/>
      <point x="308" y="373"/>
      <point x="321.328" y="357"/>
    </contour>
    <contour>
      <point x="397.155" y="427" type="curve" smooth="yes"/>
      <point x="412.982" y="427"/>
      <point x="426.31" y="443"/>
      <point x="426.31" y="462" type="curve" smooth="yes"/>
      <point x="426.31" y="481"/>
      <point x="412.982" y="497"/>
      <point x="397.155" y="497" type="curve" smooth="yes"/>
      <point x="381.328" y="497"/>
      <point x="368" y="481"/>
      <point x="368" y="462" type="curve" smooth="yes"/>
      <point x="368" y="443"/>
      <point x="381.328" y="427"/>
    </contour>
    <contour>
      <point x="477.155" y="451" type="curve" smooth="yes"/>
      <point x="492.982" y="451"/>
      <point x="506.31" y="467"/>
      <point x="506.31" y="486" type="curve" smooth="yes"/>
      <point x="506.31" y="505"/>
      <point x="492.982" y="521"/>
      <point x="477.155" y="521" type="curve" smooth="yes"/>
      <point x="461.328" y="521"/>
      <point x="448" y="505"/>
      <point x="448" y="486" type="curve" smooth="yes"/>
      <point x="448" y="467"/>
      <point x="461.328" y="451"/>
    </contour>
    <contour>
      <point x="558.155" y="427" type="curve" smooth="yes"/>
      <point x="573.982" y="427"/>
      <point x="587.31" y="443"/>
      <point x="587.31" y="462" type="curve" smooth="yes"/>
      <point x="587.31" y="481"/>
      <point x="573.982" y="497"/>
      <point x="558.155" y="497" type="curve" smooth="yes"/>
      <point x="542.328" y="497"/>
      <point x="529" y="481"/>
      <point x="529" y="462" type="curve" smooth="yes"/>
      <point x="529" y="443"/>
      <point x="542.328" y="427"/>
    </contour>
    <contour>
      <point x="617.155" y="355" type="curve" smooth="yes"/>
      <point x="632.982" y="355"/>
      <point x="646.31" y="371"/>
      <point x="646.31" y="390" type="curve" smooth="yes"/>
      <point x="646.31" y="409"/>
      <point x="632.982" y="425"/>
      <point x="617.155" y="425" type="curve" smooth="yes"/>
      <point x="601.328" y="425"/>
      <point x="588" y="409"/>
      <point x="588" y="390" type="curve" smooth="yes"/>
      <point x="588" y="371"/>
      <point x="601.328" y="355"/>
    </contour>
    <contour>
      <point x="642.155" y="256" type="curve" smooth="yes"/>
      <point x="657.982" y="256"/>
      <point x="671.31" y="272"/>
      <point x="671.31" y="291" type="curve" smooth="yes"/>
      <point x="671.31" y="310"/>
      <point x="657.982" y="326"/>
      <point x="642.155" y="326" type="curve" smooth="yes"/>
      <point x="626.328" y="326"/>
      <point x="613" y="310"/>
      <point x="613" y="291" type="curve" smooth="yes"/>
      <point x="613" y="272"/>
      <point x="626.328" y="256"/>
    </contour>
    <contour>
      <point x="618.155" y="162" type="curve" smooth="yes"/>
      <point x="633.982" y="162"/>
      <point x="647.31" y="178"/>
      <point x="647.31" y="197" type="curve" smooth="yes"/>
      <point x="647.31" y="216"/>
      <point x="633.982" y="232"/>
      <point x="618.155" y="232" type="curve" smooth="yes"/>
      <point x="602.328" y="232"/>
      <point x="589" y="216"/>
      <point x="589" y="197" type="curve" smooth="yes"/>
      <point x="589" y="178"/>
      <point x="602.328" y="162"/>
    </contour>
    <contour>
      <point x="559.155" y="90" type="curve" smooth="yes"/>
      <point x="574.982" y="90"/>
      <point x="588.31" y="106"/>
      <point x="588.31" y="125" type="curve" smooth="yes"/>
      <point x="588.31" y="144"/>
      <point x="574.982" y="160"/>
      <point x="559.155" y="160" type="curve" smooth="yes"/>
      <point x="543.328" y="160"/>
      <point x="530" y="144"/>
      <point x="530" y="125" type="curve" smooth="yes"/>
      <point x="530" y="106"/>
      <point x="543.328" y="90"/>
    </contour>
    <contour>
      <point x="477.155" y="62" type="curve" smooth="yes"/>
      <point x="492.982" y="62"/>
      <point x="506.31" y="78"/>
      <point x="506.31" y="97" type="curve" smooth="yes"/>
      <point x="506.31" y="116"/>
      <point x="492.982" y="132"/>
      <point x="477.155" y="132" type="curve" smooth="yes"/>
      <point x="461.328" y="132"/>
      <point x="448" y="116"/>
      <point x="448" y="97" type="curve" smooth="yes"/>
      <point x="448" y="78"/>
      <point x="461.328" y="62"/>
    </contour>
    <contour>
      <point x="397.155" y="89" type="curve" smooth="yes"/>
      <point x="412.982" y="89"/>
      <point x="426.31" y="105"/>
      <point x="426.31" y="124" type="curve" smooth="yes"/>
      <point x="426.31" y="143"/>
      <point x="412.982" y="159"/>
      <point x="397.155" y="159" type="curve" smooth="yes"/>
      <point x="381.328" y="159"/>
      <point x="368" y="143"/>
      <point x="368" y="124" type="curve" smooth="yes"/>
      <point x="368" y="105"/>
      <point x="381.328" y="89"/>
    </contour>
    <contour>
      <point x="336.155" y="161" type="curve" smooth="yes"/>
      <point x="351.982" y="161"/>
      <point x="365.31" y="177"/>
      <point x="365.31" y="196" type="curve" smooth="yes"/>
      <point x="365.31" y="215"/>
      <point x="351.982" y="231"/>
      <point x="336.155" y="231" type="curve" smooth="yes"/>
      <point x="320.328" y="231"/>
      <point x="307" y="215"/>
      <point x="307" y="196" type="curve" smooth="yes"/>
      <point x="307" y="177"/>
      <point x="320.328" y="161"/>
    </contour>
  </outline>
</glyph>
<glyph name="uni17C5" format="2">
  <advance width="1010"/>
  <unicode hex="17C5"/>
  <note>
uni17C5
</note>
  <outline>
    <contour>
      <point x="212" y="375" type="line"/>
      <point x="61" y="375" type="line"/>
      <point x="61" y="50" type="line" smooth="yes"/>
      <point x="61" y="17"/>
      <point x="83" y="0"/>
      <point x="122" y="0" type="curve" smooth="yes"/>
      <point x="250" y="0" type="line"/>
      <point x="250" y="112" type="line"/>
      <point x="238" y="112" type="line" smooth="yes"/>
      <point x="219" y="112"/>
      <point x="212" y="118"/>
      <point x="212" y="143" type="curve" smooth="yes"/>
    </contour>
    <contour>
      <point x="61" y="354" type="line"/>
      <point x="212" y="354" type="line"/>
      <point x="212" y="410" type="line"/>
      <point x="160" y="473" type="line"/>
      <point x="160" y="474" type="line"/>
      <point x="219" y="474" type="line"/>
      <point x="219" y="586" type="line"/>
      <point x="79" y="586" type="line"/>
      <point x="44" y="532"/>
      <point x="26" y="505"/>
      <point x="26" y="491" type="curve" smooth="yes"/>
      <point x="26" y="482"/>
      <point x="28" y="479"/>
      <point x="61" y="426" type="curve"/>
    </contour>
    <contour>
      <point x="315.155" y="256" type="curve" smooth="yes"/>
      <point x="330.982" y="256"/>
      <point x="344.31" y="272"/>
      <point x="344.31" y="291" type="curve" smooth="yes"/>
      <point x="344.31" y="310"/>
      <point x="330.982" y="326"/>
      <point x="315.155" y="326" type="curve" smooth="yes"/>
      <point x="299.328" y="326"/>
      <point x="286" y="310"/>
      <point x="286" y="291" type="curve" smooth="yes"/>
      <point x="286" y="272"/>
      <point x="299.328" y="256"/>
    </contour>
    <contour>
      <point x="336.155" y="357" type="curve" smooth="yes"/>
      <point x="351.982" y="357"/>
      <point x="365.31" y="373"/>
      <point x="365.31" y="392" type="curve" smooth="yes"/>
      <point x="365.31" y="411"/>
      <point x="351.982" y="427"/>
      <point x="336.155" y="427" type="curve" smooth="yes"/>
      <point x="320.328" y="427"/>
      <point x="307" y="411"/>
      <point x="307" y="392" type="curve" smooth="yes"/>
      <point x="307" y="373"/>
      <point x="320.328" y="357"/>
    </contour>
    <contour>
      <point x="396.155" y="427" type="curve" smooth="yes"/>
      <point x="411.982" y="427"/>
      <point x="425.31" y="443"/>
      <point x="425.31" y="462" type="curve" smooth="yes"/>
      <point x="425.31" y="481"/>
      <point x="411.982" y="497"/>
      <point x="396.155" y="497" type="curve" smooth="yes"/>
      <point x="380.328" y="497"/>
      <point x="367" y="481"/>
      <point x="367" y="462" type="curve" smooth="yes"/>
      <point x="367" y="443"/>
      <point x="380.328" y="427"/>
    </contour>
    <contour>
      <point x="476.155" y="451" type="curve" smooth="yes"/>
      <point x="491.982" y="451"/>
      <point x="505.31" y="467"/>
      <point x="505.31" y="486" type="curve" smooth="yes"/>
      <point x="505.31" y="505"/>
      <point x="491.982" y="521"/>
      <point x="476.155" y="521" type="curve" smooth="yes"/>
      <point x="460.328" y="521"/>
      <point x="447" y="505"/>
      <point x="447" y="486" type="curve" smooth="yes"/>
      <point x="447" y="467"/>
      <point x="460.328" y="451"/>
    </contour>
    <contour>
      <point x="557.155" y="427" type="curve" smooth="yes"/>
      <point x="572.982" y="427"/>
      <point x="586.31" y="443"/>
      <point x="586.31" y="462" type="curve" smooth="yes"/>
      <point x="586.31" y="481"/>
      <point x="572.982" y="497"/>
      <point x="557.155" y="497" type="curve" smooth="yes"/>
      <point x="541.328" y="497"/>
      <point x="528" y="481"/>
      <point x="528" y="462" type="curve" smooth="yes"/>
      <point x="528" y="443"/>
      <point x="541.328" y="427"/>
    </contour>
    <contour>
      <point x="616.155" y="355" type="curve" smooth="yes"/>
      <point x="631.982" y="355"/>
      <point x="645.31" y="371"/>
      <point x="645.31" y="390" type="curve" smooth="yes"/>
      <point x="645.31" y="409"/>
      <point x="631.982" y="425"/>
      <point x="616.155" y="425" type="curve" smooth="yes"/>
      <point x="600.328" y="425"/>
      <point x="587" y="409"/>
      <point x="587" y="390" type="curve" smooth="yes"/>
      <point x="587" y="371"/>
      <point x="600.328" y="355"/>
    </contour>
    <contour>
      <point x="641.155" y="256" type="curve" smooth="yes"/>
      <point x="656.982" y="256"/>
      <point x="670.31" y="272"/>
      <point x="670.31" y="291" type="curve" smooth="yes"/>
      <point x="670.31" y="310"/>
      <point x="656.982" y="326"/>
      <point x="641.155" y="326" type="curve" smooth="yes"/>
      <point x="625.328" y="326"/>
      <point x="612" y="310"/>
      <point x="612" y="291" type="curve" smooth="yes"/>
      <point x="612" y="272"/>
      <point x="625.328" y="256"/>
    </contour>
    <contour>
      <point x="617.155" y="162" type="curve" smooth="yes"/>
      <point x="632.982" y="162"/>
      <point x="646.31" y="178"/>
      <point x="646.31" y="197" type="curve" smooth="yes"/>
      <point x="646.31" y="216"/>
      <point x="632.982" y="232"/>
      <point x="617.155" y="232" type="curve" smooth="yes"/>
      <point x="601.328" y="232"/>
      <point x="588" y="216"/>
      <point x="588" y="197" type="curve" smooth="yes"/>
      <point x="588" y="178"/>
      <point x="601.328" y="162"/>
    </contour>
    <contour>
      <point x="558.155" y="90" type="curve" smooth="yes"/>
      <point x="573.982" y="90"/>
      <point x="587.31" y="106"/>
      <point x="587.31" y="125" type="curve" smooth="yes"/>
      <point x="587.31" y="144"/>
      <point x="573.982" y="160"/>
      <point x="558.155" y="160" type="curve" smooth="yes"/>
      <point x="542.328" y="160"/>
      <point x="529" y="144"/>
      <point x="529" y="125" type="curve" smooth="yes"/>
      <point x="529" y="106"/>
      <point x="542.328" y="90"/>
    </contour>
    <contour>
      <point x="476.155" y="62" type="curve" smooth="yes"/>
      <point x="491.982" y="62"/>
      <point x="505.31" y="78"/>
      <point x="505.31" y="97" type="curve" smooth="yes"/>
      <point x="505.31" y="116"/>
      <point x="491.982" y="132"/>
      <point x="476.155" y="132" type="curve" smooth="yes"/>
      <point x="460.328" y="132"/>
      <point x="447" y="116"/>
      <point x="447" y="97" type="curve" smooth="yes"/>
      <point x="447" y="78"/>
      <point x="460.328" y="62"/>
    </contour>
    <contour>
      <point x="396.155" y="89" type="curve" smooth="yes"/>
      <point x="411.982" y="89"/>
      <point x="425.31" y="105"/>
      <point x="425.31" y="124" type="curve" smooth="yes"/>
      <point x="425.31" y="143"/>
      <point x="411.982" y="159"/>
      <point x="396.155" y="159" type="curve" smooth="yes"/>
      <point x="380.328" y="159"/>
      <point x="367" y="143"/>
      <point x="367" y="124" type="curve" smooth="yes"/>
      <point x="367" y="105"/>
      <point x="380.328" y="89"/>
    </contour>
    <contour>
      <point x="335.155" y="161" type="curve" smooth="yes"/>
      <point x="350.982" y="161"/>
      <point x="364.31" y="177"/>
      <point x="364.31" y="196" type="curve" smooth="yes"/>
      <point x="364.31" y="215"/>
      <point x="350.982" y="231"/>
      <point x="335.155" y="231" type="curve" smooth="yes"/>
      <point x="319.328" y="231"/>
      <point x="306" y="215"/>
      <point x="306" y="196" type="curve" smooth="yes"/>
      <point x="306" y="177"/>
      <point x="319.328" y="161"/>
    </contour>
    <contour>
      <point x="933" y="605" type="line"/>
      <point x="933" y="750" type="line" smooth="yes"/>
      <point x="933" y="821"/>
      <point x="908" y="854"/>
      <point x="834" y="854" type="curve" smooth="yes"/>
      <point x="701" y="854" type="line"/>
      <point x="701" y="742" type="line"/>
      <point x="719" y="742" type="line" smooth="yes"/>
      <point x="775" y="742"/>
      <point x="782" y="732"/>
      <point x="782" y="690" type="curve" smooth="yes"/>
      <point x="782" y="605" type="line"/>
    </contour>
    <contour>
      <point x="799" y="0" type="line"/>
      <point x="950" y="0" type="line"/>
      <point x="950" y="458" type="line" smooth="yes"/>
      <point x="950" y="539"/>
      <point x="914" y="586"/>
      <point x="833" y="586" type="curve" smooth="yes"/>
      <point x="663" y="586" type="line"/>
      <point x="663" y="474" type="line"/>
      <point x="749" y="474" type="line" smooth="yes"/>
      <point x="792" y="474"/>
      <point x="799" y="455"/>
      <point x="799" y="413" type="curve" smooth="yes"/>
    </contour>
  </outline>
</glyph>
<glyph name="uni17C6" format="2">
  <unicode hex="17C6"/>
  <note>
uni17C6
</note>
  <outline>
    <contour>
      <point x="-297" y="684" type="curve" smooth="yes"/>
      <point x="-233" y="684"/>
      <point x="-182" y="735"/>
      <point x="-182" y="799" type="curve" smooth="yes"/>
      <point x="-182" y="863"/>
      <point x="-233" y="914"/>
      <point x="-297" y="914" type="curve" smooth="yes"/>
      <point x="-361" y="914"/>
      <point x="-412" y="863"/>
      <point x="-412" y="799" type="curve" smooth="yes"/>
      <point x="-412" y="735"/>
      <point x="-361" y="684"/>
    </contour>
    <contour>
      <point x="-297" y="768" type="curve" smooth="yes"/>
      <point x="-314" y="768"/>
      <point x="-328" y="782"/>
      <point x="-328" y="799" type="curve" smooth="yes"/>
      <point x="-328" y="816"/>
      <point x="-314" y="830"/>
      <point x="-297" y="830" type="curve" smooth="yes"/>
      <point x="-280" y="830"/>
      <point x="-266" y="816"/>
      <point x="-266" y="799" type="curve" smooth="yes"/>
      <point x="-266" y="782"/>
      <point x="-280" y="768"/>
    </contour>
  </outline>
</glyph>
<glyph name="uni17C7" format="2">
  <advance width="350"/>
  <unicode hex="17C7"/>
  <note>
uni17C7
</note>
  <outline>
    <contour>
      <point x="175" y="361" type="curve" smooth="yes"/>
      <point x="239" y="361"/>
      <point x="290" y="412"/>
      <point x="290" y="476" type="curve" smooth="yes"/>
      <point x="290" y="540"/>
      <point x="239" y="591"/>
      <point x="175" y="591" type="curve" smooth="yes"/>
      <point x="111" y="591"/>
      <point x="60" y="540"/>
      <point x="60" y="476" type="curve" smooth="yes"/>
      <point x="60" y="412"/>
      <point x="111" y="361"/>
    </contour>
    <contour>
      <point x="175" y="445" type="curve" smooth="yes"/>
      <point x="158" y="445"/>
      <point x="144" y="459"/>
      <point x="144" y="476" type="curve" smooth="yes"/>
      <point x="144" y="493"/>
      <point x="158" y="507"/>
      <point x="175" y="507" type="curve" smooth="yes"/>
      <point x="192" y="507"/>
      <point x="206" y="493"/>
      <point x="206" y="476" type="curve" smooth="yes"/>
      <point x="206" y="459"/>
      <point x="192" y="445"/>
    </contour>
    <contour>
      <point x="175" y="-5" type="curve" smooth="yes"/>
      <point x="239" y="-5"/>
      <point x="290" y="46"/>
      <point x="290" y="110" type="curve" smooth="yes"/>
      <point x="290" y="174"/>
      <point x="239" y="225"/>
      <point x="175" y="225" type="curve" smooth="yes"/>
      <point x="111" y="225"/>
      <point x="60" y="174"/>
      <point x="60" y="110" type="curve" smooth="yes"/>
      <point x="60" y="46"/>
      <point x="111" y="-5"/>
    </contour>
    <contour>
      <point x="175" y="79" type="curve" smooth="yes"/>
      <point x="158" y="79"/>
      <point x="144" y="93"/>
      <point x="144" y="110" type="curve" smooth="yes"/>
      <point x="144" y="127"/>
      <point x="158" y="141"/>
      <point x="175" y="141" type="curve" smooth="yes"/>
      <point x="192" y="141"/>
      <point x="206" y="127"/>
      <point x="206" y="110" type="curve" smooth="yes"/>
      <point x="206" y="93"/>
      <point x="192" y="79"/>
    </contour>
  </outline>
</glyph>
<glyph name="uni17C8" format="2">
  <advance width="255"/>
  <unicode hex="17C8"/>
  <note>
uni17C8
</note>
  <outline>
    <contour>
      <point x="128" y="407" type="curve" smooth="yes"/>
      <point x="160" y="407"/>
      <point x="185" y="433"/>
      <point x="185" y="464" type="curve" smooth="yes"/>
      <point x="185" y="496"/>
      <point x="160" y="522"/>
      <point x="128" y="522" type="curve" smooth="yes"/>
      <point x="96" y="522"/>
      <point x="71" y="496"/>
      <point x="71" y="464" type="curve" smooth="yes"/>
      <point x="71" y="433"/>
      <point x="96" y="407"/>
    </contour>
    <contour>
      <point x="128" y="54" type="curve" smooth="yes"/>
      <point x="160" y="54"/>
      <point x="185" y="80"/>
      <point x="185" y="112" type="curve" smooth="yes"/>
      <point x="185" y="143"/>
      <point x="160" y="169"/>
      <point x="128" y="169" type="curve" smooth="yes"/>
      <point x="96" y="169"/>
      <point x="71" y="143"/>
      <point x="71" y="112" type="curve" smooth="yes"/>
      <point x="71" y="80"/>
      <point x="96" y="54"/>
    </contour>
  </outline>
</glyph>
<glyph name="uni17CA" format="2">
  <unicode hex="17CA"/>
  <note>
uni17CA
</note>
  <outline>
    <contour>
      <point x="-518" y="684" type="line"/>
      <point x="-77" y="684" type="line"/>
      <point x="-77" y="796" type="line"/>
      <point x="-261" y="796" type="line"/>
      <point x="-298" y="746" type="line"/>
      <point x="-334" y="796" type="line"/>
      <point x="-518" y="796" type="line"/>
    </contour>
  </outline>
</glyph>
<glyph name="uni17CC" format="2">
  <unicode hex="17CC"/>
  <note>
uni17CC
</note>
  <outline>
    <contour>
      <point x="-417" y="694" type="line"/>
      <point x="-397" y="718"/>
      <point x="-351" y="750"/>
      <point x="-313" y="750" type="curve" smooth="yes"/>
      <point x="-279" y="750"/>
      <point x="-249" y="744"/>
      <point x="-220" y="700" type="curve"/>
      <point x="-153" y="766" type="line"/>
      <point x="-192" y="815"/>
      <point x="-228" y="831"/>
      <point x="-288" y="830" type="curve"/>
      <point x="-261" y="867"/>
      <point x="-244" y="897"/>
      <point x="-235" y="927" type="curve"/>
      <point x="-316" y="958" type="line"/>
      <point x="-338" y="908"/>
      <point x="-389" y="848"/>
      <point x="-475" y="783" type="curve"/>
    </contour>
  </outline>
</glyph>
<glyph name="uni17CD" format="2">
  <unicode hex="17CD"/>
  <note>
uni17CD
</note>
  <outline>
    <contour>
      <point x="-309" y="684" type="curve" smooth="yes"/>
      <point x="-291" y="684" type="line"/>
      <point x="-291" y="769" type="line"/>
      <point x="-318" y="769" type="line" smooth="yes"/>
      <point x="-326" y="769"/>
      <point x="-331" y="775"/>
      <point x="-331" y="784" type="curve" smooth="yes"/>
      <point x="-331" y="792"/>
      <point x="-326" y="797"/>
      <point x="-317" y="797" type="curve" smooth="yes"/>
      <point x="-255" y="797" type="line" smooth="yes"/>
      <point x="-183" y="797"/>
      <point x="-127" y="855"/>
      <point x="-127" y="955" type="curve"/>
      <point x="-236" y="955" type="line"/>
      <point x="-236" y="934"/>
      <point x="-250" y="899"/>
      <point x="-277" y="899" type="curve" smooth="yes"/>
      <point x="-327" y="899" type="line" smooth="yes"/>
      <point x="-407" y="899"/>
      <point x="-459" y="871"/>
      <point x="-459" y="789" type="curve" smooth="yes"/>
      <point x="-459" y="720"/>
      <point x="-408" y="684"/>
    </contour>
  </outline>
</glyph>
<glyph name="uni17CE" format="2">
  <unicode hex="17CE"/>
  <note>
uni17CE
</note>
  <outline>
    <contour>
      <point x="-348" y="684" type="line"/>
      <point x="-246" y="684" type="line"/>
      <point x="-246" y="752" type="line"/>
      <point x="-179" y="752" type="line"/>
      <point x="-179" y="866" type="line"/>
      <point x="-246" y="866" type="line"/>
      <point x="-246" y="934" type="line"/>
      <point x="-348" y="934" type="line"/>
      <point x="-348" y="866" type="line"/>
      <point x="-415" y="866" type="line"/>
      <point x="-415" y="752" type="line"/>
      <point x="-348" y="752" type="line"/>
    </contour>
  </outline>
</glyph>
<glyph name="uni17CF" format="2">
  <unicode hex="17CF"/>
  <note>
uni17CF
</note>
  <outline>
    <contour>
      <point x="-495" y="684" type="line"/>
      <point x="-362" y="684" type="line"/>
      <point x="-297" y="722" type="line"/>
      <point x="-232" y="684" type="line"/>
      <point x="-97" y="684" type="line"/>
      <point x="-97" y="812" type="line"/>
      <point x="-232" y="812" type="line"/>
      <point x="-232" y="793" type="line"/>
      <point x="-296" y="815" type="line"/>
      <point x="-362" y="794" type="line"/>
      <point x="-362" y="800" type="line" smooth="yes"/>
      <point x="-362" y="830"/>
      <point x="-345" y="833"/>
      <point x="-333" y="833" type="curve" smooth="yes"/>
      <point x="-218" y="833" type="line" smooth="yes"/>
      <point x="-142" y="833"/>
      <point x="-90" y="898"/>
      <point x="-90" y="977" type="curve" smooth="yes"/>
      <point x="-90" y="989" type="line"/>
      <point x="-224" y="989" type="line"/>
      <point x="-224" y="957"/>
      <point x="-255" y="935"/>
      <point x="-302" y="935" type="curve" smooth="yes"/>
      <point x="-358" y="935" type="line" smooth="yes"/>
      <point x="-451" y="935"/>
      <point x="-495" y="893"/>
      <point x="-495" y="800" type="curve" smooth="yes"/>
    </contour>
  </outline>
</glyph>
<glyph name="uni17D0" format="2">
  <unicode hex="17D0"/>
  <note>
uni17D0
</note>
  <outline>
    <contour>
      <point x="-311.8" y="684" type="curve" smooth="yes"/>
      <point x="-175.9" y="684"/>
      <point x="-109.3" y="769"/>
      <point x="-109.3" y="904" type="curve"/>
      <point x="-235.3" y="904" type="line"/>
      <point x="-235.3" y="817"/>
      <point x="-267.7" y="779"/>
      <point x="-310" y="779" type="curve" smooth="yes"/>
      <point x="-334.3" y="779"/>
      <point x="-340.6" y="784"/>
      <point x="-340.6" y="794" type="curve" smooth="yes"/>
      <point x="-340.6" y="804"/>
      <point x="-331.6" y="808"/>
      <point x="-303.7" y="807" type="curve"/>
      <point x="-303.7" y="903" type="line"/>
      <point x="-412.6" y="903"/>
      <point x="-458.5" y="876"/>
      <point x="-458.5" y="797" type="curve" smooth="yes"/>
      <point x="-458.5" y="722"/>
      <point x="-383.8" y="684"/>
    </contour>
  </outline>
</glyph>
<glyph name="uni17D3" format="2">
  <unicode hex="17D3"/>
  <note>
uni17D3
</note>
  <outline>
    <contour>
      <point x="-297" y="685" type="curve" smooth="yes"/>
      <point x="-216" y="685"/>
      <point x="-135" y="727"/>
      <point x="-135" y="807" type="curve" smooth="yes"/>
      <point x="-135" y="886"/>
      <point x="-215" y="929"/>
      <point x="-297" y="929" type="curve" smooth="yes"/>
      <point x="-378" y="929"/>
      <point x="-460" y="885"/>
      <point x="-460" y="807" type="curve" smooth="yes"/>
      <point x="-460" y="733"/>
      <point x="-381" y="685"/>
    </contour>
    <contour>
      <point x="-296" y="781" type="curve" smooth="yes"/>
      <point x="-316" y="781"/>
      <point x="-330" y="792"/>
      <point x="-330" y="807" type="curve" smooth="yes"/>
      <point x="-330" y="822"/>
      <point x="-316" y="833"/>
      <point x="-296" y="833" type="curve" smooth="yes"/>
      <point x="-276" y="833"/>
      <point x="-263" y="822"/>
      <point x="-263" y="807" type="curve" smooth="yes"/>
      <point x="-263" y="792"/>
      <point x="-276" y="781"/>
    </contour>
  </outline>
</glyph>
<glyph name="uni17D4" format="2">
  <advance width="480"/>
  <unicode hex="17D4"/>
  <note>
uni17D4
</note>
  <outline>
    <contour>
      <point x="290" y="0" type="line"/>
      <point x="441" y="0" type="line"/>
      <point x="441" y="586" type="line"/>
      <point x="290" y="586" type="line"/>
      <point x="284" y="499"/>
      <point x="249" y="422"/>
      <point x="201" y="422" type="curve" smooth="yes"/>
      <point x="190" y="422"/>
      <point x="180" y="427"/>
      <point x="180" y="439" type="curve" smooth="yes"/>
      <point x="180" y="450"/>
      <point x="189" y="456"/>
      <point x="198" y="456" type="curve" smooth="yes"/>
      <point x="202" y="456" type="line"/>
      <point x="202" y="586" type="line"/>
      <point x="169" y="586" type="line" smooth="yes"/>
      <point x="92" y="586"/>
      <point x="35" y="528"/>
      <point x="35" y="453" type="curve" smooth="yes"/>
      <point x="35" y="356"/>
      <point x="109" y="301"/>
      <point x="182" y="301" type="curve" smooth="yes"/>
      <point x="250" y="301"/>
      <point x="268" y="330"/>
      <point x="290" y="356" type="curve"/>
    </contour>
  </outline>
</glyph>
<glyph name="uni17D6" format="2">
  <advance width="384"/>
  <unicode hex="17D6"/>
  <note>
uni17D6
</note>
  <outline>
    <contour>
      <point x="60" y="245" type="line"/>
      <point x="324" y="245" type="line"/>
      <point x="324" y="349" type="line"/>
      <point x="60" y="349" type="line"/>
    </contour>
    <contour>
      <point x="193" y="-6" type="curve" smooth="yes"/>
      <point x="257" y="-6"/>
      <point x="308" y="45"/>
      <point x="308" y="109" type="curve" smooth="yes"/>
      <point x="308" y="173"/>
      <point x="257" y="224"/>
      <point x="193" y="224" type="curve" smooth="yes"/>
      <point x="129" y="224"/>
      <point x="78" y="173"/>
      <point x="78" y="109" type="curve" smooth="yes"/>
      <point x="78" y="45"/>
      <point x="129" y="-6"/>
    </contour>
    <contour>
      <point x="193" y="78" type="curve" smooth="yes"/>
      <point x="176" y="78"/>
      <point x="162" y="92"/>
      <point x="162" y="109" type="curve" smooth="yes"/>
      <point x="162" y="126"/>
      <point x="176" y="140"/>
      <point x="193" y="140" type="curve" smooth="yes"/>
      <point x="210" y="140"/>
      <point x="224" y="126"/>
      <point x="224" y="109" type="curve" smooth="yes"/>
      <point x="224" y="92"/>
      <point x="210" y="78"/>
    </contour>
    <contour>
      <point x="193" y="370" type="curve" smooth="yes"/>
      <point x="257" y="370"/>
      <point x="308" y="421"/>
      <point x="308" y="485" type="curve" smooth="yes"/>
      <point x="308" y="549"/>
      <point x="257" y="600"/>
      <point x="193" y="600" type="curve" smooth="yes"/>
      <point x="129" y="600"/>
      <point x="78" y="549"/>
      <point x="78" y="485" type="curve" smooth="yes"/>
      <point x="78" y="421"/>
      <point x="129" y="370"/>
    </contour>
    <contour>
      <point x="193" y="454" type="curve" smooth="yes"/>
      <point x="176" y="454"/>
      <point x="162" y="468"/>
      <point x="162" y="485" type="curve" smooth="yes"/>
      <point x="162" y="502"/>
      <point x="176" y="516"/>
      <point x="193" y="516" type="curve" smooth="yes"/>
      <point x="210" y="516"/>
      <point x="224" y="502"/>
      <point x="224" y="485" type="curve" smooth="yes"/>
      <point x="224" y="468"/>
      <point x="210" y="454"/>
    </contour>
  </outline>
</glyph>
<glyph name="uni17D7" format="2">
  <advance width="521"/>
  <unicode hex="17D7"/>
  <note>
uni17D7
</note>
  <outline>
    <contour>
      <point x="211" y="-195" type="line"/>
      <point x="224" y="-195" type="line" smooth="yes"/>
      <point x="390" y="-195"/>
      <point x="432" y="-182"/>
      <point x="432" y="-54" type="curve" smooth="yes"/>
      <point x="432" y="586" type="line"/>
      <point x="281" y="586" type="line"/>
      <point x="277" y="560"/>
      <point x="261" y="533"/>
      <point x="240" y="533" type="curve" smooth="yes"/>
      <point x="216" y="533"/>
      <point x="195" y="586"/>
      <point x="131" y="586" type="curve" smooth="yes"/>
      <point x="70" y="586"/>
      <point x="12" y="544"/>
      <point x="12" y="456" type="curve" smooth="yes"/>
      <point x="12" y="375"/>
      <point x="50" y="314"/>
      <point x="139" y="314" type="curve" smooth="yes"/>
      <point x="165" y="314" type="line"/>
      <point x="165" y="428" type="line"/>
      <point x="158" y="428" type="line" smooth="yes"/>
      <point x="140" y="428"/>
      <point x="128" y="435"/>
      <point x="128" y="452" type="curve" smooth="yes"/>
      <point x="128" y="464"/>
      <point x="135" y="473"/>
      <point x="150" y="473" type="curve" smooth="yes"/>
      <point x="190" y="473"/>
      <point x="185" y="415"/>
      <point x="237" y="415" type="curve" smooth="yes"/>
      <point x="261" y="415"/>
      <point x="272" y="430"/>
      <point x="279" y="440" type="curve"/>
      <point x="281" y="440" type="line"/>
      <point x="281" y="-19" type="line" smooth="yes"/>
      <point x="281" y="-48"/>
      <point x="262" y="-63"/>
      <point x="223" y="-65" type="curve" smooth="yes"/>
      <point x="211" y="-65" type="line"/>
    </contour>
  </outline>
</glyph>
<glyph name="uni17D8" format="2">
  <advance width="1797"/>
  <unicode hex="17D8"/>
  <note>
uni17D8
</note>
  <outline>
    <contour>
      <point x="290" y="0" type="line"/>
      <point x="441" y="0" type="line"/>
      <point x="441" y="586" type="line"/>
      <point x="290" y="586" type="line"/>
      <point x="284" y="499"/>
      <point x="249" y="422"/>
      <point x="201" y="422" type="curve" smooth="yes"/>
      <point x="190" y="422"/>
      <point x="180" y="427"/>
      <point x="180" y="439" type="curve" smooth="yes"/>
      <point x="180" y="450"/>
      <point x="189" y="456"/>
      <point x="198" y="456" type="curve" smooth="yes"/>
      <point x="202" y="456" type="line"/>
      <point x="202" y="586" type="line"/>
      <point x="169" y="586" type="line" smooth="yes"/>
      <point x="92" y="586"/>
      <point x="35" y="528"/>
      <point x="35" y="453" type="curve" smooth="yes"/>
      <point x="35" y="356"/>
      <point x="109" y="301"/>
      <point x="182" y="301" type="curve" smooth="yes"/>
      <point x="250" y="301"/>
      <point x="268" y="330"/>
      <point x="290" y="356" type="curve"/>
    </contour>
    <contour>
      <point x="1237" y="378" type="line"/>
      <point x="1086" y="378" type="line"/>
      <point x="1086" y="168" type="line" smooth="yes"/>
      <point x="1086" y="137"/>
      <point x="1067" y="112"/>
      <point x="1028" y="112" type="curve" smooth="yes"/>
      <point x="989" y="112"/>
      <point x="970" y="137"/>
      <point x="970" y="168" type="curve" smooth="yes"/>
      <point x="970" y="428" type="line" smooth="yes"/>
      <point x="970" y="533"/>
      <point x="900" y="586"/>
      <point x="761" y="586" type="curve" smooth="yes"/>
      <point x="621" y="586"/>
      <point x="551" y="533"/>
      <point x="551" y="428" type="curve" smooth="yes"/>
      <point x="551" y="251" type="line"/>
      <point x="702" y="251" type="line"/>
      <point x="702" y="418" type="line" smooth="yes"/>
      <point x="702" y="449"/>
      <point x="722" y="474"/>
      <point x="761" y="474" type="curve" smooth="yes"/>
      <point x="800" y="474"/>
      <point x="820" y="449"/>
      <point x="820" y="418" type="curve" smooth="yes"/>
      <point x="820" y="158" type="line" smooth="yes"/>
      <point x="820" y="53"/>
      <point x="889" y="0"/>
      <point x="1028" y="0" type="curve" smooth="yes"/>
      <point x="1165" y="0"/>
      <point x="1237" y="53"/>
      <point x="1237" y="158" type="curve" smooth="yes"/>
    </contour>
    <contour>
      <point x="551" y="259" type="line"/>
      <point x="551" y="70" type="line" smooth="yes"/>
      <point x="551" y="19"/>
      <point x="569" y="0"/>
      <point x="633" y="0" type="curve" smooth="yes"/>
      <point x="680" y="0" type="line" smooth="yes"/>
      <point x="758" y="0"/>
      <point x="807" y="52"/>
      <point x="807" y="125" type="curve" smooth="yes"/>
      <point x="807" y="210"/>
      <point x="768" y="241"/>
      <point x="702" y="241" type="curve"/>
      <point x="702" y="259" type="line" smooth="yes"/>
    </contour>
    <contour>
      <point x="702" y="80" type="curve"/>
      <point x="702" y="164" type="line"/>
      <point x="714" y="164"/>
      <point x="726" y="152"/>
      <point x="726" y="127" type="curve" smooth="yes"/>
      <point x="726" y="100"/>
      <point x="713" y="80"/>
    </contour>
    <contour>
      <point x="1086" y="354" type="line"/>
      <point x="1237" y="354" type="line"/>
      <point x="1237" y="410" type="line"/>
      <point x="1181" y="473" type="line"/>
      <point x="1181" y="474" type="line"/>
      <point x="1245" y="474" type="line"/>
      <point x="1245" y="586" type="line"/>
      <point x="1094" y="586" type="line"/>
      <point x="1044" y="511"/>
      <point x="1026" y="484"/>
      <point x="1026" y="473" type="curve" smooth="yes"/>
      <point x="1026" y="462"/>
      <point x="1058" y="424"/>
      <point x="1086" y="391" type="curve"/>
    </contour>
    <contour>
      <point x="1567" y="0" type="line"/>
      <point x="1718" y="0" type="line"/>
      <point x="1718" y="586" type="line"/>
      <point x="1567" y="586" type="line"/>
      <point x="1561" y="499"/>
      <point x="1526" y="422"/>
      <point x="1478" y="422" type="curve" smooth="yes"/>
      <point x="1467" y="422"/>
      <point x="1457" y="427"/>
      <point x="1457" y="439" type="curve" smooth="yes"/>
      <point x="1457" y="450"/>
      <point x="1466" y="456"/>
      <point x="1475" y="456" type="curve" smooth="yes"/>
      <point x="1479" y="456" type="line"/>
      <point x="1479" y="586" type="line"/>
      <point x="1446" y="586" type="line" smooth="yes"/>
      <point x="1369" y="586"/>
      <point x="1312" y="528"/>
      <point x="1312" y="453" type="curve" smooth="yes"/>
      <point x="1312" y="356"/>
      <point x="1386" y="301"/>
      <point x="1459" y="301" type="curve" smooth="yes"/>
      <point x="1527" y="301"/>
      <point x="1545" y="330"/>
      <point x="1567" y="356" type="curve"/>
    </contour>
  </outline>
</glyph>
<glyph name="uni17D9" format="2">
  <advance width="576"/>
  <unicode hex="17D9"/>
  <note>
uni17D9
</note>
  <outline>
    <contour>
      <point x="287" y="-18" type="curve" smooth="yes"/>
      <point x="439" y="-18"/>
      <point x="542" y="103"/>
      <point x="542" y="293" type="curve" smooth="yes"/>
      <point x="542" y="483"/>
      <point x="442" y="604"/>
      <point x="287" y="604" type="curve" smooth="yes"/>
      <point x="132" y="604"/>
      <point x="34" y="481"/>
      <point x="34" y="293" type="curve" smooth="yes"/>
      <point x="34" y="106"/>
      <point x="133" y="-18"/>
    </contour>
    <contour>
      <point x="287" y="80" type="curve" smooth="yes"/>
      <point x="188" y="80"/>
      <point x="141" y="150"/>
      <point x="141" y="293" type="curve" smooth="yes"/>
      <point x="141" y="436"/>
      <point x="188" y="506"/>
      <point x="287" y="506" type="curve" smooth="yes"/>
      <point x="386" y="506"/>
      <point x="435" y="435"/>
      <point x="435" y="293" type="curve" smooth="yes"/>
      <point x="435" y="151"/>
      <point x="386" y="80"/>
    </contour>
    <contour>
      <point x="287" y="104" type="curve" smooth="yes"/>
      <point x="364" y="104"/>
      <point x="410" y="165"/>
      <point x="410" y="293" type="curve" smooth="yes"/>
      <point x="410" y="421"/>
      <point x="364" y="482"/>
      <point x="287" y="482" type="curve" smooth="yes"/>
      <point x="212" y="482"/>
      <point x="165" y="421"/>
      <point x="165" y="293" type="curve" smooth="yes"/>
      <point x="165" y="165"/>
      <point x="212" y="104"/>
    </contour>
    <contour>
      <point x="287" y="195" type="curve" smooth="yes"/>
      <point x="258" y="195"/>
      <point x="251" y="228"/>
      <point x="251" y="293" type="curve" smooth="yes"/>
      <point x="251" y="354"/>
      <point x="257" y="389"/>
      <point x="287" y="389" type="curve" smooth="yes"/>
      <point x="318" y="389"/>
      <point x="325" y="357"/>
      <point x="325" y="293" type="curve" smooth="yes"/>
      <point x="325" y="233"/>
      <point x="318" y="195"/>
    </contour>
  </outline>
</glyph>
<glyph name="uni17DA" format="2">
  <advance width="1137"/>
  <unicode hex="17DA"/>
  <note>
uni17DA
</note>
  <outline>
    <contour>
      <point x="279" y="0" type="curve" smooth="yes"/>
      <point x="394" y="0"/>
      <point x="457" y="83"/>
      <point x="524" y="265" type="curve" smooth="yes"/>
      <point x="573" y="400" type="line"/>
      <point x="651" y="35" type="line"/>
      <point x="778" y="35" type="line"/>
      <point x="832" y="345" type="line"/>
      <point x="879" y="106" type="line"/>
      <point x="983" y="106" type="line"/>
      <point x="1026" y="237" type="line"/>
      <point x="1087" y="237" type="line"/>
      <point x="1087" y="344" type="line"/>
      <point x="976" y="344" type="line"/>
      <point x="938" y="233" type="line"/>
      <point x="888" y="496" type="line"/>
      <point x="776" y="496" type="line"/>
      <point x="716" y="190" type="line"/>
      <point x="626" y="549" type="line"/>
      <point x="542" y="549" type="line"/>
      <point x="430" y="292" type="line" smooth="yes"/>
      <point x="376" y="168"/>
      <point x="354" y="117"/>
      <point x="291" y="117" type="curve" smooth="yes"/>
      <point x="212" y="117"/>
      <point x="185" y="204"/>
      <point x="185" y="295" type="curve" smooth="yes"/>
      <point x="185" y="409"/>
      <point x="218" y="469"/>
      <point x="276" y="469" type="curve" smooth="yes"/>
      <point x="304" y="469"/>
      <point x="318" y="454"/>
      <point x="318" y="430" type="curve" smooth="yes"/>
      <point x="318" y="406"/>
      <point x="302" y="388"/>
      <point x="266" y="388" type="curve"/>
      <point x="266" y="288" type="line"/>
      <point x="357" y="288"/>
      <point x="411" y="345"/>
      <point x="411" y="440" type="curve" smooth="yes"/>
      <point x="411" y="529"/>
      <point x="359" y="584"/>
      <point x="269" y="584" type="curve" smooth="yes"/>
      <point x="130" y="584"/>
      <point x="34" y="471"/>
      <point x="34" y="296" type="curve" smooth="yes"/>
      <point x="34" y="117"/>
      <point x="153" y="0"/>
    </contour>
  </outline>
</glyph>
<glyph name="uni17DC" format="2">
  <advance width="597"/>
  <unicode hex="17DC"/>
  <note>
uni17DC
</note>
  <outline>
    <contour>
      <point x="283" y="0" type="curve" smooth="yes"/>
      <point x="421" y="-1"/>
      <point x="518" y="81"/>
      <point x="518" y="197" type="curve" smooth="yes"/>
      <point x="518" y="300"/>
      <point x="418" y="350"/>
      <point x="333" y="384" type="curve" smooth="yes"/>
      <point x="265" y="411"/>
      <point x="231" y="424"/>
      <point x="231" y="481" type="curve" smooth="yes"/>
      <point x="231" y="542"/>
      <point x="275" y="574"/>
      <point x="323" y="574" type="curve" smooth="yes"/>
      <point x="356" y="574"/>
      <point x="375" y="566"/>
      <point x="375" y="543" type="curve" smooth="yes"/>
      <point x="375" y="526"/>
      <point x="365" y="518"/>
      <point x="356" y="516" type="curve"/>
      <point x="356" y="419" type="line"/>
      <point x="405" y="419"/>
      <point x="512" y="443"/>
      <point x="512" y="547" type="curve" smooth="yes"/>
      <point x="512" y="638"/>
      <point x="445" y="684"/>
      <point x="298" y="684" type="curve" smooth="yes"/>
      <point x="179" y="684"/>
      <point x="80" y="614"/>
      <point x="80" y="488" type="curve" smooth="yes"/>
      <point x="80" y="370"/>
      <point x="175" y="317"/>
      <point x="266" y="281" type="curve" smooth="yes"/>
      <point x="346" y="249"/>
      <point x="367" y="229"/>
      <point x="367" y="190" type="curve" smooth="yes"/>
      <point x="367" y="143"/>
      <point x="336" y="110"/>
      <point x="280" y="110" type="curve" smooth="yes"/>
      <point x="239" y="110"/>
      <point x="209" y="123"/>
      <point x="209" y="145" type="curve" smooth="yes"/>
      <point x="209" y="167"/>
      <point x="219" y="170"/>
      <point x="233" y="172" type="curve"/>
      <point x="233" y="262" type="line"/>
      <point x="166" y="262"/>
      <point x="80" y="248"/>
      <point x="80" y="139" type="curve" smooth="yes"/>
      <point x="80" y="66"/>
      <point x="150" y="1"/>
    </contour>
  </outline>
</glyph>
<glyph name="uni17E0" format="2">
  <advance width="561"/>
  <unicode hex="17E0"/>
  <note>
uni17E0
</note>
  <outline>
    <contour>
      <point x="280" y="0" type="curve" smooth="yes"/>
      <point x="428" y="0"/>
      <point x="501" y="62"/>
      <point x="501" y="186" type="curve" smooth="yes"/>
      <point x="501" y="400" type="line" smooth="yes"/>
      <point x="501" y="524"/>
      <point x="428" y="586"/>
      <point x="280" y="586" type="curve" smooth="yes"/>
      <point x="133" y="586"/>
      <point x="60" y="524"/>
      <point x="60" y="400" type="curve" smooth="yes"/>
      <point x="60" y="186" type="line" smooth="yes"/>
      <point x="60" y="62"/>
      <point x="133" y="0"/>
    </contour>
    <contour>
      <point x="280" y="112" type="curve" smooth="yes"/>
      <point x="234" y="112"/>
      <point x="211" y="137"/>
      <point x="211" y="186" type="curve" smooth="yes"/>
      <point x="211" y="400" type="line" smooth="yes"/>
      <point x="211" y="449"/>
      <point x="234" y="474"/>
      <point x="280" y="474" type="curve" smooth="yes"/>
      <point x="328" y="474"/>
      <point x="351" y="449"/>
      <point x="351" y="400" type="curve" smooth="yes"/>
      <point x="351" y="186" type="line" smooth="yes"/>
      <point x="351" y="137"/>
      <point x="328" y="112"/>
    </contour>
  </outline>
</glyph>
<glyph name="uni17E1" format="2">
  <advance width="561"/>
  <unicode hex="17E1"/>
  <note>
uni17E1
</note>
  <outline>
    <contour>
      <point x="280" y="0" type="curve" smooth="yes"/>
      <point x="428" y="0"/>
      <point x="501" y="52"/>
      <point x="501" y="156" type="curve" smooth="yes"/>
      <point x="501" y="430" type="line" smooth="yes"/>
      <point x="501" y="534"/>
      <point x="428" y="586"/>
      <point x="280" y="586" type="curve" smooth="yes"/>
      <point x="133" y="586"/>
      <point x="60" y="534"/>
      <point x="60" y="430" type="curve" smooth="yes"/>
      <point x="60" y="371" type="line" smooth="yes"/>
      <point x="60" y="270"/>
      <point x="115" y="253"/>
      <point x="185" y="253" type="curve" smooth="yes"/>
      <point x="280" y="253" type="line"/>
      <point x="280" y="382" type="line"/>
      <point x="243" y="382" type="line" smooth="yes"/>
      <point x="211" y="382"/>
      <point x="211" y="403"/>
      <point x="211" y="421" type="curve" smooth="yes"/>
      <point x="211" y="430" type="line" smooth="yes"/>
      <point x="211" y="459"/>
      <point x="234" y="474"/>
      <point x="280" y="474" type="curve" smooth="yes"/>
      <point x="328" y="474"/>
      <point x="351" y="459"/>
      <point x="351" y="430" type="curve" smooth="yes"/>
      <point x="351" y="156" type="line" smooth="yes"/>
      <point x="351" y="127"/>
      <point x="328" y="112"/>
      <point x="280" y="112" type="curve" smooth="yes"/>
      <point x="234" y="112"/>
      <point x="211" y="127"/>
      <point x="211" y="156" type="curve"/>
      <point x="60" y="156" type="line"/>
      <point x="60" y="52"/>
      <point x="133" y="0"/>
    </contour>
  </outline>
</glyph>
<glyph name="uni17E2" format="2">
  <advance width="729"/>
  <unicode hex="17E2"/>
  <note>
uni17E2
</note>
  <outline>
    <contour>
      <point x="376" y="0" type="curve" smooth="yes"/>
      <point x="572" y="0"/>
      <point x="669" y="65"/>
      <point x="669" y="195" type="curve" smooth="yes"/>
      <point x="669" y="586" type="line"/>
      <point x="518" y="586" type="line"/>
      <point x="472" y="544" type="line"/>
      <point x="426" y="586" type="line"/>
      <point x="275" y="586" type="line"/>
      <point x="275" y="293" type="line"/>
      <point x="441" y="293" type="line"/>
      <point x="441" y="405" type="line"/>
      <point x="426" y="405" type="line"/>
      <point x="426" y="459" type="line"/>
      <point x="472" y="419" type="line"/>
      <point x="518" y="459" type="line"/>
      <point x="518" y="195" type="line" smooth="yes"/>
      <point x="518" y="139"/>
      <point x="472" y="112"/>
      <point x="376" y="112" type="curve" smooth="yes"/>
      <point x="280" y="112"/>
      <point x="232" y="140"/>
      <point x="232" y="195" type="curve" smooth="yes"/>
      <point x="232" y="664" type="line" smooth="yes"/>
      <point x="232" y="695"/>
      <point x="221" y="708"/>
      <point x="179" y="708" type="curve" smooth="yes"/>
      <point x="40" y="708" type="line"/>
      <point x="40" y="596" type="line"/>
      <point x="81" y="596" type="line"/>
      <point x="81" y="195" type="line" smooth="yes"/>
      <point x="81" y="65"/>
      <point x="179" y="0"/>
    </contour>
  </outline>
</glyph>
<glyph name="uni17E3" format="2">
  <advance width="748"/>
  <unicode hex="17E3"/>
  <note>
uni17E3
</note>
  <outline>
    <contour>
      <point x="60" y="0" type="line"/>
      <point x="243" y="0" type="line"/>
      <point x="243" y="112" type="line"/>
      <point x="211" y="112" type="line"/>
      <point x="211" y="423" type="line" smooth="yes"/>
      <point x="211" y="458"/>
      <point x="226" y="474"/>
      <point x="255" y="474" type="curve" smooth="yes"/>
      <point x="284" y="474"/>
      <point x="299" y="458"/>
      <point x="299" y="423" type="curve" smooth="yes"/>
      <point x="299" y="0" type="line"/>
      <point x="449" y="0" type="line"/>
      <point x="449" y="423" type="line" smooth="yes"/>
      <point x="449" y="458"/>
      <point x="464" y="474"/>
      <point x="494" y="474" type="curve" smooth="yes"/>
      <point x="523" y="474"/>
      <point x="538" y="458"/>
      <point x="538" y="423" type="curve" smooth="yes"/>
      <point x="538" y="0" type="line"/>
      <point x="688" y="0" type="line"/>
      <point x="688" y="410" type="line" smooth="yes"/>
      <point x="688" y="527"/>
      <point x="623" y="586"/>
      <point x="494" y="586" type="curve" smooth="yes"/>
      <point x="440" y="586"/>
      <point x="400" y="571"/>
      <point x="374" y="542" type="curve"/>
      <point x="348" y="571"/>
      <point x="308" y="586"/>
      <point x="255" y="586" type="curve" smooth="yes"/>
      <point x="125" y="586"/>
      <point x="60" y="529"/>
      <point x="60" y="415" type="curve" smooth="yes"/>
    </contour>
  </outline>
</glyph>
<glyph name="uni17E4" format="2">
  <advance width="588"/>
  <unicode hex="17E4"/>
  <note>
uni17E4
</note>
  <outline>
    <contour>
      <point x="301" y="0" type="curve" smooth="yes"/>
      <point x="500" y="0" type="line"/>
      <point x="528" y="89" type="line"/>
      <point x="471" y="243" type="line"/>
      <point x="471" y="327" type="line"/>
      <point x="522" y="327" type="line"/>
      <point x="522" y="458" type="line"/>
      <point x="476" y="458" type="line" smooth="yes"/>
      <point x="393" y="458"/>
      <point x="322" y="454"/>
      <point x="322" y="391" type="curve" smooth="yes"/>
      <point x="322" y="219" type="line"/>
      <point x="394" y="112" type="line"/>
      <point x="301" y="112" type="line" smooth="yes"/>
      <point x="255" y="112"/>
      <point x="232" y="140"/>
      <point x="232" y="195" type="curve" smooth="yes"/>
      <point x="232" y="640" type="line" smooth="yes"/>
      <point x="232" y="689"/>
      <point x="213" y="713"/>
      <point x="169" y="713" type="curve" smooth="yes"/>
      <point x="40" y="713" type="line"/>
      <point x="40" y="601" type="line"/>
      <point x="81" y="601" type="line"/>
      <point x="81" y="195" type="line" smooth="yes"/>
      <point x="81" y="65"/>
      <point x="154" y="0"/>
    </contour>
  </outline>
</glyph>
<glyph name="uni17E5" format="2">
  <advance width="548"/>
  <unicode hex="17E5"/>
  <note>
uni17E5
</note>
  <outline>
    <contour>
      <point x="280" y="0" type="curve" smooth="yes"/>
      <point x="478" y="0" type="line"/>
      <point x="508" y="89" type="line"/>
      <point x="452" y="194" type="line"/>
      <point x="452" y="260" type="line"/>
      <point x="501" y="260" type="line"/>
      <point x="501" y="391" type="line"/>
      <point x="378" y="391" type="line" smooth="yes"/>
      <point x="323" y="391"/>
      <point x="301" y="368"/>
      <point x="301" y="293" type="curve" smooth="yes"/>
      <point x="301" y="180" type="line"/>
      <point x="365" y="112" type="line"/>
      <point x="280" y="112" type="line" smooth="yes"/>
      <point x="234" y="112"/>
      <point x="211" y="128"/>
      <point x="211" y="161" type="curve" smooth="yes"/>
      <point x="211" y="370" type="line" smooth="yes"/>
      <point x="211" y="409"/>
      <point x="219" y="440"/>
      <point x="228" y="452" type="curve"/>
      <point x="258" y="435"/>
      <point x="281" y="424"/>
      <point x="323" y="424" type="curve" smooth="yes"/>
      <point x="447" y="424"/>
      <point x="502" y="489"/>
      <point x="502" y="590" type="curve" smooth="yes"/>
      <point x="502" y="714" type="line"/>
      <point x="351" y="714" type="line"/>
      <point x="351" y="569" type="line" smooth="yes"/>
      <point x="351" y="540"/>
      <point x="337" y="529"/>
      <point x="325" y="526" type="curve" smooth="yes"/>
      <point x="315" y="523"/>
      <point x="301" y="525"/>
      <point x="281" y="535" type="curve"/>
      <point x="290" y="552"/>
      <point x="299" y="562"/>
      <point x="299" y="601" type="curve" smooth="yes"/>
      <point x="299" y="650"/>
      <point x="258" y="698"/>
      <point x="198" y="698" type="curve" smooth="yes"/>
      <point x="137" y="698"/>
      <point x="92" y="651"/>
      <point x="92" y="601" type="curve" smooth="yes"/>
      <point x="92" y="559"/>
      <point x="103" y="541"/>
      <point x="116" y="520" type="curve"/>
      <point x="67" y="481"/>
      <point x="60" y="437"/>
      <point x="60" y="370" type="curve" smooth="yes"/>
      <point x="60" y="161" type="line" smooth="yes"/>
      <point x="60" y="54"/>
      <point x="133" y="0"/>
    </contour>
  </outline>
</glyph>
<glyph name="uni17E6" format="2">
  <advance width="562"/>
  <unicode hex="17E6"/>
  <note>
uni17E6
</note>
  <outline>
    <contour>
      <point x="280" y="0" type="curve" smooth="yes"/>
      <point x="428" y="0"/>
      <point x="502" y="65"/>
      <point x="502" y="195" type="curve" smooth="yes"/>
      <point x="502" y="391" type="line" smooth="yes"/>
      <point x="502" y="521"/>
      <point x="428" y="600"/>
      <point x="305" y="600" type="curve" smooth="yes"/>
      <point x="256" y="600"/>
      <point x="224" y="578"/>
      <point x="211" y="560" type="curve"/>
      <point x="211" y="714" type="line"/>
      <point x="60" y="714" type="line"/>
      <point x="60" y="420" type="line"/>
      <point x="211" y="420" type="line"/>
      <point x="218" y="456"/>
      <point x="236" y="474"/>
      <point x="280" y="474" type="curve" smooth="yes"/>
      <point x="326" y="474"/>
      <point x="351" y="444"/>
      <point x="351" y="391" type="curve" smooth="yes"/>
      <point x="351" y="235" type="line" smooth="yes"/>
      <point x="351" y="178"/>
      <point x="328" y="142"/>
      <point x="280" y="142" type="curve" smooth="yes"/>
      <point x="234" y="142"/>
      <point x="211" y="167"/>
      <point x="211" y="203" type="curve" smooth="yes"/>
      <point x="211" y="233"/>
      <point x="221" y="270"/>
      <point x="273" y="270" type="curve" smooth="yes"/>
      <point x="301" y="270" type="line"/>
      <point x="301" y="382" type="line"/>
      <point x="240" y="382" type="line" smooth="yes"/>
      <point x="120" y="382"/>
      <point x="60" y="310"/>
      <point x="60" y="200" type="curve" smooth="yes"/>
      <point x="60" y="89"/>
      <point x="133" y="0"/>
    </contour>
  </outline>
</glyph>
<glyph name="uni17E7" format="2">
  <advance width="721"/>
  <unicode hex="17E7"/>
  <note>
uni17E7
</note>
  <outline>
    <contour>
      <point x="60" y="0" type="line"/>
      <point x="240" y="0" type="line"/>
      <point x="240" y="112" type="line"/>
      <point x="211" y="112" type="line"/>
      <point x="211" y="424" type="line" smooth="yes"/>
      <point x="211" y="438"/>
      <point x="213" y="452"/>
      <point x="221" y="452" type="curve" smooth="yes"/>
      <point x="227" y="452"/>
      <point x="234" y="442"/>
      <point x="248" y="422" type="curve" smooth="yes"/>
      <point x="254" y="412"/>
      <point x="262" y="407"/>
      <point x="270" y="407" type="curve" smooth="yes"/>
      <point x="278" y="407"/>
      <point x="286" y="412"/>
      <point x="293" y="422" type="curve" smooth="yes"/>
      <point x="303" y="434"/>
      <point x="311" y="452"/>
      <point x="319" y="452" type="curve" smooth="yes"/>
      <point x="327" y="452"/>
      <point x="329" y="442"/>
      <point x="329" y="424" type="curve" smooth="yes"/>
      <point x="329" y="142" type="line" smooth="yes"/>
      <point x="329" y="69"/>
      <point x="386" y="0"/>
      <point x="496" y="0" type="curve" smooth="yes"/>
      <point x="605" y="0"/>
      <point x="661" y="67"/>
      <point x="661" y="142" type="curve" smooth="yes"/>
      <point x="661" y="714" type="line"/>
      <point x="510" y="714" type="line"/>
      <point x="510" y="133" type="line" smooth="yes"/>
      <point x="510" y="122"/>
      <point x="507" y="112"/>
      <point x="495" y="112" type="curve" smooth="yes"/>
      <point x="483" y="112"/>
      <point x="480" y="122"/>
      <point x="480" y="133" type="curve" smooth="yes"/>
      <point x="480" y="402" type="line" smooth="yes"/>
      <point x="480" y="545"/>
      <point x="447" y="586"/>
      <point x="374" y="586" type="curve" smooth="yes"/>
      <point x="331" y="586"/>
      <point x="299" y="566"/>
      <point x="270" y="525" type="curve"/>
      <point x="242" y="566"/>
      <point x="220" y="586"/>
      <point x="166" y="586" type="curve" smooth="yes"/>
      <point x="103" y="586"/>
      <point x="60" y="545"/>
      <point x="60" y="419" type="curve" smooth="yes"/>
    </contour>
  </outline>
</glyph>
<glyph name="uni17E8" format="2">
  <advance width="562"/>
  <unicode hex="17E8"/>
  <note>
uni17E8
</note>
  <outline>
    <contour>
      <point x="60" y="0" type="line"/>
      <point x="187" y="0" type="line"/>
      <point x="281" y="83" type="line"/>
      <point x="375" y="0" type="line"/>
      <point x="502" y="0" type="line"/>
      <point x="502" y="301" type="line" smooth="yes"/>
      <point x="502" y="354"/>
      <point x="496" y="386"/>
      <point x="430" y="386" type="curve" smooth="yes"/>
      <point x="309" y="386" type="line"/>
      <point x="309" y="274" type="line"/>
      <point x="330" y="274" type="line" smooth="yes"/>
      <point x="344" y="274"/>
      <point x="351" y="270"/>
      <point x="351" y="244" type="curve" smooth="yes"/>
      <point x="351" y="165" type="line"/>
      <point x="281" y="231" type="line"/>
      <point x="211" y="164" type="line"/>
      <point x="211" y="430" type="line" smooth="yes"/>
      <point x="211" y="459"/>
      <point x="234" y="474"/>
      <point x="280" y="474" type="curve" smooth="yes"/>
      <point x="328" y="474"/>
      <point x="351" y="459"/>
      <point x="351" y="430" type="curve"/>
      <point x="501" y="430" type="line"/>
      <point x="501" y="714" type="line"/>
      <point x="351" y="714" type="line"/>
      <point x="351" y="560" type="line"/>
      <point x="325" y="577"/>
      <point x="288" y="586"/>
      <point x="237" y="586" type="curve" smooth="yes"/>
      <point x="119" y="586"/>
      <point x="60" y="534"/>
      <point x="60" y="430" type="curve" smooth="yes"/>
    </contour>
  </outline>
</glyph>
<glyph name="uni17E9" format="2">
  <advance width="561"/>
  <unicode hex="17E9"/>
  <note>
uni17E9
</note>
  <outline>
    <contour>
      <point x="280" y="0" type="curve" smooth="yes"/>
      <point x="428" y="0"/>
      <point x="493" y="59"/>
      <point x="493" y="143" type="curve" smooth="yes"/>
      <point x="493" y="219"/>
      <point x="454" y="259"/>
      <point x="352" y="259" type="curve" smooth="yes"/>
      <point x="290" y="259" type="line"/>
      <point x="290" y="178" type="line"/>
      <point x="300" y="178" type="line" smooth="yes"/>
      <point x="324" y="178"/>
      <point x="343" y="171"/>
      <point x="343" y="149" type="curve" smooth="yes"/>
      <point x="343" y="121"/>
      <point x="315" y="112"/>
      <point x="273" y="112" type="curve" smooth="yes"/>
      <point x="236" y="112"/>
      <point x="211" y="123"/>
      <point x="211" y="146" type="curve" smooth="yes"/>
      <point x="211" y="234" type="line" smooth="yes"/>
      <point x="211" y="274"/>
      <point x="234" y="289"/>
      <point x="262" y="289" type="curve" smooth="yes"/>
      <point x="403" y="289" type="line"/>
      <point x="403" y="401" type="line"/>
      <point x="242" y="401" type="line" smooth="yes"/>
      <point x="225" y="401"/>
      <point x="209" y="408"/>
      <point x="209" y="435" type="curve" smooth="yes"/>
      <point x="209" y="471"/>
      <point x="242" y="485"/>
      <point x="282" y="485" type="curve" smooth="yes"/>
      <point x="328" y="485"/>
      <point x="343" y="472"/>
      <point x="351" y="460" type="curve"/>
      <point x="501" y="460" type="line"/>
      <point x="501" y="714" type="line"/>
      <point x="351" y="714" type="line"/>
      <point x="351" y="567" type="line"/>
      <point x="337" y="579"/>
      <point x="305" y="596"/>
      <point x="244" y="596" type="curve" smooth="yes"/>
      <point x="122" y="596"/>
      <point x="60" y="537"/>
      <point x="60" y="449" type="curve" smooth="yes"/>
      <point x="60" y="396"/>
      <point x="80" y="363"/>
      <point x="131" y="349" type="curve"/>
      <point x="80" y="335"/>
      <point x="60" y="293"/>
      <point x="60" y="222" type="curve" smooth="yes"/>
      <point x="60" y="161" type="line" smooth="yes"/>
      <point x="60" y="65"/>
      <point x="133" y="0"/>
    </contour>
  </outline>
</glyph>
<glyph name="uni17F0" format="2">
  <advance width="336"/>
  <unicode hex="17F0"/>
  <note>
uni17F0
</note>
  <outline>
    <contour>
      <point x="167" y="-7" type="curve" smooth="yes"/>
      <point x="272" y="-7"/>
      <point x="308" y="82"/>
      <point x="308" y="171" type="curve" smooth="yes"/>
      <point x="308" y="260"/>
      <point x="272" y="349"/>
      <point x="167" y="349" type="curve" smooth="yes"/>
      <point x="63" y="349"/>
      <point x="28" y="260"/>
      <point x="28" y="171" type="curve" smooth="yes"/>
      <point x="28" y="82"/>
      <point x="63" y="-7"/>
    </contour>
    <contour>
      <point x="167" y="104" type="curve" smooth="yes"/>
      <point x="148" y="104"/>
      <point x="134" y="131"/>
      <point x="134" y="171" type="curve" smooth="yes"/>
      <point x="134" y="211"/>
      <point x="148" y="238"/>
      <point x="167" y="238" type="curve" smooth="yes"/>
      <point x="186" y="238"/>
      <point x="200" y="211"/>
      <point x="200" y="171" type="curve" smooth="yes"/>
      <point x="200" y="130"/>
      <point x="186" y="104"/>
    </contour>
  </outline>
</glyph>
<glyph name="uni17F1" format="2">
  <advance width="370"/>
  <unicode hex="17F1"/>
  <note>
uni17F1
</note>
  <outline>
    <contour>
      <point x="12" y="0" type="line"/>
      <point x="120" y="0" type="line"/>
      <point x="185" y="220" type="line"/>
      <point x="250" y="0" type="line"/>
      <point x="358" y="0" type="line"/>
      <point x="260" y="342" type="line"/>
      <point x="110" y="342" type="line"/>
    </contour>
  </outline>
</glyph>
<glyph name="uni17F3" format="2">
  <advance width="647"/>
  <unicode hex="17F3"/>
  <note>
uni17F3
</note>
  <outline>
    <contour>
      <point x="535" y="342" type="line"/>
      <point x="385" y="342" type="line"/>
      <point x="323" y="127" type="line"/>
      <point x="261" y="342" type="line"/>
      <point x="111" y="342" type="line"/>
      <point x="22" y="0" type="line"/>
      <point x="130" y="0" type="line"/>
      <point x="186" y="220" type="line"/>
      <point x="251" y="0" type="line"/>
      <point x="395" y="0" type="line"/>
      <point x="460" y="220" type="line"/>
      <point x="516" y="0" type="line"/>
      <point x="625" y="0" type="line"/>
    </contour>
  </outline>
</glyph>
<glyph name="uni17F4" format="2">
  <advance width="370"/>
  <unicode hex="17F4"/>
  <note>
uni17F4
</note>
  <outline>
    <contour>
      <point x="110" y="0" type="line"/>
      <point x="260" y="0" type="line"/>
      <point x="358" y="342" type="line"/>
      <point x="250" y="342" type="line"/>
      <point x="185" y="122" type="line"/>
      <point x="120" y="342" type="line"/>
      <point x="12" y="342" type="line"/>
    </contour>
  </outline>
</glyph>
<glyph name="uni17F8" format="2">
  <advance width="230"/>
  <unicode hex="17F8"/>
  <note>
uni17F8
</note>
  <outline>
    <contour>
      <point x="12" y="0" type="line"/>
      <point x="119" y="0" type="line"/>
      <point x="218" y="342" type="line"/>
      <point x="110" y="342" type="line"/>
    </contour>
  </outline>
</glyph>
<glyph name="uni17F9" format="2">
  <advance width="357"/>
  <unicode hex="17F9"/>
  <note>
uni17F9
</note>
  <outline>
    <contour>
      <point x="183" y="-171" type="line"/>
      <point x="284" y="-171"/>
      <point x="337" y="-132"/>
      <point x="337" y="-58" type="curve" smooth="yes"/>
      <point x="337" y="4"/>
      <point x="293" y="49"/>
      <point x="237" y="49" type="curve" smooth="yes"/>
      <point x="151" y="49" type="line"/>
      <point x="316" y="191" type="line"/>
      <point x="258" y="277" type="line"/>
      <point x="20" y="55" type="line"/>
      <point x="56" y="-30" type="line"/>
      <point x="188" y="-30" type="line" smooth="yes"/>
      <point x="218" y="-30"/>
      <point x="228" y="-42"/>
      <point x="228" y="-58" type="curve" smooth="yes"/>
      <point x="228" y="-80"/>
      <point x="198" y="-87"/>
      <point x="183" y="-87" type="curve"/>
    </contour>
  </outline>
</glyph>
<glyph name="uni19E0" format="2">
  <advance width="532"/>
  <unicode hex="19E0"/>
  <note>
uni19E0
</note>
  <outline>
    <contour>
      <point x="290" y="441" type="curve" smooth="yes"/>
      <point x="438" y="441"/>
      <point x="511" y="503"/>
      <point x="511" y="627" type="curve" smooth="yes"/>
      <point x="511" y="841" type="line" smooth="yes"/>
      <point x="511" y="965"/>
      <point x="438" y="1027"/>
      <point x="290" y="1027" type="curve" smooth="yes"/>
      <point x="143" y="1027"/>
      <point x="70" y="965"/>
      <point x="70" y="841" type="curve" smooth="yes"/>
      <point x="70" y="627" type="line" smooth="yes"/>
      <point x="70" y="503"/>
      <point x="143" y="441"/>
    </contour>
    <contour>
      <point x="290" y="553" type="curve" smooth="yes"/>
      <point x="244" y="553"/>
      <point x="221" y="578"/>
      <point x="221" y="627" type="curve" smooth="yes"/>
      <point x="221" y="841" type="line" smooth="yes"/>
      <point x="221" y="890"/>
      <point x="244" y="915"/>
      <point x="290" y="915" type="curve" smooth="yes"/>
      <point x="338" y="915"/>
      <point x="361" y="890"/>
      <point x="361" y="841" type="curve" smooth="yes"/>
      <point x="361" y="627" type="line" smooth="yes"/>
      <point x="361" y="578"/>
      <point x="338" y="553"/>
    </contour>
    <contour>
      <point x="70" y="-288" type="line"/>
      <point x="197" y="-288" type="line"/>
      <point x="291" y="-205" type="line"/>
      <point x="385" y="-288" type="line"/>
      <point x="512" y="-288" type="line"/>
      <point x="512" y="13" type="line" smooth="yes"/>
      <point x="512" y="66"/>
      <point x="506" y="98"/>
      <point x="440" y="98" type="curve" smooth="yes"/>
      <point x="319" y="98" type="line"/>
      <point x="319" y="-14" type="line"/>
      <point x="340" y="-14" type="line" smooth="yes"/>
      <point x="354" y="-14"/>
      <point x="361" y="-18"/>
      <point x="361" y="-44" type="curve" smooth="yes"/>
      <point x="361" y="-123" type="line"/>
      <point x="291" y="-57" type="line"/>
      <point x="221" y="-124" type="line"/>
      <point x="221" y="142" type="line" smooth="yes"/>
      <point x="221" y="171"/>
      <point x="244" y="186"/>
      <point x="290" y="186" type="curve" smooth="yes"/>
      <point x="338" y="186"/>
      <point x="361" y="171"/>
      <point x="361" y="142" type="curve"/>
      <point x="511" y="142" type="line"/>
      <point x="511" y="426" type="line"/>
      <point x="361" y="426" type="line"/>
      <point x="361" y="272" type="line"/>
      <point x="335" y="289"/>
      <point x="298" y="298"/>
      <point x="247" y="298" type="curve" smooth="yes"/>
      <point x="129" y="298"/>
      <point x="70" y="246"/>
      <point x="70" y="142" type="curve" smooth="yes"/>
    </contour>
  </outline>
</glyph>
<glyph name="uni19E1" format="2">
  <advance width="526"/>
  <unicode hex="19E1"/>
  <note>
uni19E1
</note>
  <outline>
    <contour>
      <point x="285" y="390" type="curve" smooth="yes"/>
      <point x="433" y="390"/>
      <point x="506" y="442"/>
      <point x="506" y="546" type="curve" smooth="yes"/>
      <point x="506" y="820" type="line" smooth="yes"/>
      <point x="506" y="924"/>
      <point x="433" y="976"/>
      <point x="285" y="976" type="curve" smooth="yes"/>
      <point x="138" y="976"/>
      <point x="65" y="924"/>
      <point x="65" y="820" type="curve" smooth="yes"/>
      <point x="65" y="761" type="line" smooth="yes"/>
      <point x="65" y="660"/>
      <point x="120" y="643"/>
      <point x="190" y="643" type="curve" smooth="yes"/>
      <point x="285" y="643" type="line"/>
      <point x="285" y="772" type="line"/>
      <point x="248" y="772" type="line" smooth="yes"/>
      <point x="216" y="772"/>
      <point x="216" y="793"/>
      <point x="216" y="811" type="curve" smooth="yes"/>
      <point x="216" y="820" type="line" smooth="yes"/>
      <point x="216" y="849"/>
      <point x="239" y="864"/>
      <point x="285" y="864" type="curve" smooth="yes"/>
      <point x="333" y="864"/>
      <point x="356" y="849"/>
      <point x="356" y="820" type="curve" smooth="yes"/>
      <point x="356" y="546" type="line" smooth="yes"/>
      <point x="356" y="517"/>
      <point x="333" y="502"/>
      <point x="285" y="502" type="curve" smooth="yes"/>
      <point x="239" y="502"/>
      <point x="216" y="517"/>
      <point x="216" y="546" type="curve"/>
      <point x="65" y="546" type="line"/>
      <point x="65" y="442"/>
      <point x="138" y="390"/>
    </contour>
    <contour>
      <point x="295" y="-288" type="line"/>
      <point x="446" y="-288" type="line"/>
      <point x="446" y="298" type="line"/>
      <point x="295" y="298" type="line"/>
      <point x="289" y="211"/>
      <point x="254" y="134"/>
      <point x="206" y="134" type="curve" smooth="yes"/>
      <point x="195" y="134"/>
      <point x="185" y="139"/>
      <point x="185" y="151" type="curve" smooth="yes"/>
      <point x="185" y="162"/>
      <point x="194" y="168"/>
      <point x="203" y="168" type="curve" smooth="yes"/>
      <point x="207" y="168" type="line"/>
      <point x="207" y="298" type="line"/>
      <point x="174" y="298" type="line" smooth="yes"/>
      <point x="97" y="298"/>
      <point x="40" y="240"/>
      <point x="40" y="165" type="curve" smooth="yes"/>
      <point x="40" y="68"/>
      <point x="114" y="13"/>
      <point x="187" y="13" type="curve" smooth="yes"/>
      <point x="255" y="13"/>
      <point x="273" y="42"/>
      <point x="295" y="68" type="curve"/>
    </contour>
  </outline>
</glyph>
<glyph name="uni19E2" format="2">
  <advance width="729"/>
  <unicode hex="19E2"/>
  <note>
uni19E2
</note>
  <outline>
    <contour>
      <point x="422" y="391" type="curve" smooth="yes"/>
      <point x="618" y="391"/>
      <point x="715" y="456"/>
      <point x="715" y="586" type="curve" smooth="yes"/>
      <point x="715" y="977" type="line"/>
      <point x="564" y="977" type="line"/>
      <point x="518" y="935" type="line"/>
      <point x="472" y="977" type="line"/>
      <point x="321" y="977" type="line"/>
      <point x="321" y="684" type="line"/>
      <point x="487" y="684" type="line"/>
      <point x="487" y="796" type="line"/>
      <point x="472" y="796" type="line"/>
      <point x="472" y="850" type="line"/>
      <point x="518" y="810" type="line"/>
      <point x="564" y="850" type="line"/>
      <point x="564" y="586" type="line" smooth="yes"/>
      <point x="564" y="530"/>
      <point x="518" y="503"/>
      <point x="422" y="503" type="curve" smooth="yes"/>
      <point x="326" y="503"/>
      <point x="278" y="531"/>
      <point x="278" y="586" type="curve" smooth="yes"/>
      <point x="278" y="1055" type="line" smooth="yes"/>
      <point x="278" y="1086"/>
      <point x="267" y="1099"/>
      <point x="225" y="1099" type="curve" smooth="yes"/>
      <point x="86" y="1099" type="line"/>
      <point x="86" y="987" type="line"/>
      <point x="127" y="987" type="line"/>
      <point x="127" y="586" type="line" smooth="yes"/>
      <point x="127" y="456"/>
      <point x="225" y="391"/>
    </contour>
    <contour>
      <point x="425" y="-288" type="line"/>
      <point x="576" y="-288" type="line"/>
      <point x="576" y="298" type="line"/>
      <point x="425" y="298" type="line"/>
      <point x="419" y="211"/>
      <point x="384" y="134"/>
      <point x="336" y="134" type="curve" smooth="yes"/>
      <point x="325" y="134"/>
      <point x="315" y="139"/>
      <point x="315" y="151" type="curve" smooth="yes"/>
      <point x="315" y="162"/>
      <point x="324" y="168"/>
      <point x="333" y="168" type="curve" smooth="yes"/>
      <point x="337" y="168" type="line"/>
      <point x="337" y="298" type="line"/>
      <point x="304" y="298" type="line" smooth="yes"/>
      <point x="227" y="298"/>
      <point x="170" y="240"/>
      <point x="170" y="165" type="curve" smooth="yes"/>
      <point x="170" y="68"/>
      <point x="244" y="13"/>
      <point x="317" y="13" type="curve" smooth="yes"/>
      <point x="385" y="13"/>
      <point x="403" y="42"/>
      <point x="425" y="68" type="curve"/>
    </contour>
  </outline>
</glyph>
